<svg class="main-svg" xmlns="http://www.w3.org/2000/svg" xmlns:xlink="http://www.w3.org/1999/xlink" width="1000" height="600" style="" viewBox="0 0 1000 600"><rect x="0" y="0" width="1000" height="600" style="fill: rgb(255, 255, 255); fill-opacity: 0;"/><defs id="defs-623c95"><g class="clips"><clipPath id="clip623c95xyplot" class="plotclip"><rect width="950" height="472"/></clipPath><clipPath class="axesclip" id="clip623c95x"><rect x="48" y="0" width="950" height="600"/></clipPath><clipPath class="axesclip" id="clip623c95y"><rect x="0" y="30" width="1000" height="472"/></clipPath><clipPath class="axesclip" id="clip623c95xy"><rect x="48" y="30" width="950" height="472"/></clipPath></g><g class="gradients"/></defs><g class="bglayer"><rect class="bg" x="48" y="30" width="950" height="472" style="fill: rgb(237, 237, 237); fill-opacity: 1; stroke-width: 0;"/></g><g class="layer-below"><g class="imagelayer"/><g class="shapelayer"/></g><g class="cartesianlayer"><g class="subplot xy"><g class="layer-subplot"><g class="shapelayer"/><g class="imagelayer"/></g><g class="gridlayer"><g class="x"><path class="xgrid crisp" transform="translate(101.12,0)" d="M0,30v472" style="stroke: rgb(255, 255, 255); stroke-opacity: 1; stroke-width: 1px;"/><path class="xgrid crisp" transform="translate(136.28,0)" d="M0,30v472" style="stroke: rgb(255, 255, 255); stroke-opacity: 1; stroke-width: 1px;"/><path class="xgrid crisp" transform="translate(171.44,0)" d="M0,30v472" style="stroke: rgb(255, 255, 255); stroke-opacity: 1; stroke-width: 1px;"/><path class="xgrid crisp" transform="translate(206.59,0)" d="M0,30v472" style="stroke: rgb(255, 255, 255); stroke-opacity: 1; stroke-width: 1px;"/><path class="xgrid crisp" transform="translate(241.75,0)" d="M0,30v472" style="stroke: rgb(255, 255, 255); stroke-opacity: 1; stroke-width: 1px;"/><path class="xgrid crisp" transform="translate(276.90999999999997,0)" d="M0,30v472" style="stroke: rgb(255, 255, 255); stroke-opacity: 1; stroke-width: 1px;"/><path class="xgrid crisp" transform="translate(312.06,0)" d="M0,30v472" style="stroke: rgb(255, 255, 255); stroke-opacity: 1; stroke-width: 1px;"/><path class="xgrid crisp" transform="translate(347.22,0)" d="M0,30v472" style="stroke: rgb(255, 255, 255); stroke-opacity: 1; stroke-width: 1px;"/><path class="xgrid crisp" transform="translate(382.37,0)" d="M0,30v472" style="stroke: rgb(255, 255, 255); stroke-opacity: 1; stroke-width: 1px;"/><path class="xgrid crisp" transform="translate(417.53,0)" d="M0,30v472" style="stroke: rgb(255, 255, 255); stroke-opacity: 1; stroke-width: 1px;"/><path class="xgrid crisp" transform="translate(452.69,0)" d="M0,30v472" style="stroke: rgb(255, 255, 255); stroke-opacity: 1; stroke-width: 1px;"/><path class="xgrid crisp" transform="translate(487.84,0)" d="M0,30v472" style="stroke: rgb(255, 255, 255); stroke-opacity: 1; stroke-width: 1px;"/><path class="xgrid crisp" transform="translate(523,0)" d="M0,30v472" style="stroke: rgb(255, 255, 255); stroke-opacity: 1; stroke-width: 1px;"/><path class="xgrid crisp" transform="translate(558.1600000000001,0)" d="M0,30v472" style="stroke: rgb(255, 255, 255); stroke-opacity: 1; stroke-width: 1px;"/><path class="xgrid crisp" transform="translate(593.31,0)" d="M0,30v472" style="stroke: rgb(255, 255, 255); stroke-opacity: 1; stroke-width: 1px;"/><path class="xgrid crisp" transform="translate(628.47,0)" d="M0,30v472" style="stroke: rgb(255, 255, 255); stroke-opacity: 1; stroke-width: 1px;"/><path class="xgrid crisp" transform="translate(663.62,0)" d="M0,30v472" style="stroke: rgb(255, 255, 255); stroke-opacity: 1; stroke-width: 1px;"/><path class="xgrid crisp" transform="translate(698.78,0)" d="M0,30v472" style="stroke: rgb(255, 255, 255); stroke-opacity: 1; stroke-width: 1px;"/><path class="xgrid crisp" transform="translate(733.94,0)" d="M0,30v472" style="stroke: rgb(255, 255, 255); stroke-opacity: 1; stroke-width: 1px;"/><path class="xgrid crisp" transform="translate(769.09,0)" d="M0,30v472" style="stroke: rgb(255, 255, 255); stroke-opacity: 1; stroke-width: 1px;"/><path class="xgrid crisp" transform="translate(804.25,0)" d="M0,30v472" style="stroke: rgb(255, 255, 255); stroke-opacity: 1; stroke-width: 1px;"/><path class="xgrid crisp" transform="translate(839.41,0)" d="M0,30v472" style="stroke: rgb(255, 255, 255); stroke-opacity: 1; stroke-width: 1px;"/><path class="xgrid crisp" transform="translate(874.56,0)" d="M0,30v472" style="stroke: rgb(255, 255, 255); stroke-opacity: 1; stroke-width: 1px;"/><path class="xgrid crisp" transform="translate(909.72,0)" d="M0,30v472" style="stroke: rgb(255, 255, 255); stroke-opacity: 1; stroke-width: 1px;"/><path class="xgrid crisp" transform="translate(944.87,0)" d="M0,30v472" style="stroke: rgb(255, 255, 255); stroke-opacity: 1; stroke-width: 1px;"/></g><g class="y"><path class="ygrid crisp" transform="translate(0,486.26)" d="M48,0h950" style="stroke: rgb(255, 255, 255); stroke-opacity: 1; stroke-width: 1px;"/><path class="ygrid crisp" transform="translate(0,336.42)" d="M48,0h950" style="stroke: rgb(255, 255, 255); stroke-opacity: 1; stroke-width: 1px;"/><path class="ygrid crisp" transform="translate(0,261.5)" d="M48,0h950" style="stroke: rgb(255, 255, 255); stroke-opacity: 1; stroke-width: 1px;"/><path class="ygrid crisp" transform="translate(0,186.59)" d="M48,0h950" style="stroke: rgb(255, 255, 255); stroke-opacity: 1; stroke-width: 1px;"/><path class="ygrid crisp" transform="translate(0,111.67)" d="M48,0h950" style="stroke: rgb(255, 255, 255); stroke-opacity: 1; stroke-width: 1px;"/><path class="ygrid crisp" transform="translate(0,36.75)" d="M48,0h950" style="stroke: rgb(255, 255, 255); stroke-opacity: 1; stroke-width: 1px;"/></g></g><g class="zerolinelayer"><path class="yzl zl crisp" transform="translate(0,411.34)" d="M48,0h950" style="stroke: rgb(255, 255, 255); stroke-opacity: 1; stroke-width: 1px;"/></g><path class="xlines-below"/><path class="ylines-below"/><g class="overlines-below"/><g class="xaxislayer-below"/><g class="yaxislayer-below"/><g class="overaxes-below"/><g class="plot" transform="translate(48,30)" clip-path="url('#clip623c95xyplot')"><g class="scatterlayer mlayer"><g class="trace scatter trace5abd86" style="stroke-miterlimit: 2; opacity: 1;"><g class="fills"/><g class="errorbars"/><g class="lines"/><g class="points"><path class="point" transform="translate(53.12,240.5)" d="M5.85,0L0,5.85L-5.85,0L0,-5.85Z" style="opacity: 1; stroke-width: 1.5px; fill: rgb(0, 119, 187); fill-opacity: 0.5; stroke: rgb(0, 119, 187); stroke-opacity: 1;"/><path class="point" transform="translate(88.28,291.44)" d="M5.85,0L0,5.85L-5.85,0L0,-5.85Z" style="opacity: 1; stroke-width: 1.5px; fill: rgb(0, 119, 187); fill-opacity: 0.5; stroke: rgb(0, 119, 187); stroke-opacity: 1;"/><path class="point" transform="translate(123.44,442.78)" d="M5.85,0L0,5.85L-5.85,0L0,-5.85Z" style="opacity: 1; stroke-width: 1.5px; fill: rgb(0, 119, 187); fill-opacity: 0.5; stroke: rgb(0, 119, 187); stroke-opacity: 1;"/><path class="point" transform="translate(158.59,330.4)" d="M5.85,0L0,5.85L-5.85,0L0,-5.85Z" style="opacity: 1; stroke-width: 1.5px; fill: rgb(0, 119, 187); fill-opacity: 0.5; stroke: rgb(0, 119, 187); stroke-opacity: 1;"/><path class="point" transform="translate(193.75,279.45)" d="M5.85,0L0,5.85L-5.85,0L0,-5.85Z" style="opacity: 1; stroke-width: 1.5px; fill: rgb(0, 119, 187); fill-opacity: 0.5; stroke: rgb(0, 119, 187); stroke-opacity: 1;"/><path class="point" transform="translate(228.91,304.92)" d="M5.85,0L0,5.85L-5.85,0L0,-5.85Z" style="opacity: 1; stroke-width: 1.5px; fill: rgb(0, 119, 187); fill-opacity: 0.5; stroke: rgb(0, 119, 187); stroke-opacity: 1;"/><path class="point" transform="translate(264.06,352.87)" d="M5.85,0L0,5.85L-5.85,0L0,-5.85Z" style="opacity: 1; stroke-width: 1.5px; fill: rgb(0, 119, 187); fill-opacity: 0.5; stroke: rgb(0, 119, 187); stroke-opacity: 1;"/><path class="point" transform="translate(299.22,388.83)" d="M5.85,0L0,5.85L-5.85,0L0,-5.85Z" style="opacity: 1; stroke-width: 1.5px; fill: rgb(0, 119, 187); fill-opacity: 0.5; stroke: rgb(0, 119, 187); stroke-opacity: 1;"/><path class="point" transform="translate(334.37,324.4)" d="M5.85,0L0,5.85L-5.85,0L0,-5.85Z" style="opacity: 1; stroke-width: 1.5px; fill: rgb(0, 119, 187); fill-opacity: 0.5; stroke: rgb(0, 119, 187); stroke-opacity: 1;"/><path class="point" transform="translate(369.53,327.4)" d="M5.85,0L0,5.85L-5.85,0L0,-5.85Z" style="opacity: 1; stroke-width: 1.5px; fill: rgb(0, 119, 187); fill-opacity: 0.5; stroke: rgb(0, 119, 187); stroke-opacity: 1;"/><path class="point" transform="translate(404.69,252.48)" d="M5.85,0L0,5.85L-5.85,0L0,-5.85Z" style="opacity: 1; stroke-width: 1.5px; fill: rgb(0, 119, 187); fill-opacity: 0.5; stroke: rgb(0, 119, 187); stroke-opacity: 1;"/><path class="point" transform="translate(475,186.55)" d="M5.85,0L0,5.85L-5.85,0L0,-5.85Z" style="opacity: 1; stroke-width: 1.5px; fill: rgb(0, 119, 187); fill-opacity: 0.5; stroke: rgb(0, 119, 187); stroke-opacity: 1;"/><path class="point" transform="translate(510.16,304.92)" d="M5.85,0L0,5.85L-5.85,0L0,-5.85Z" style="opacity: 1; stroke-width: 1.5px; fill: rgb(0, 119, 187); fill-opacity: 0.5; stroke: rgb(0, 119, 187); stroke-opacity: 1;"/><path class="point" transform="translate(545.31,240.5)" d="M5.85,0L0,5.85L-5.85,0L0,-5.85Z" style="opacity: 1; stroke-width: 1.5px; fill: rgb(0, 119, 187); fill-opacity: 0.5; stroke: rgb(0, 119, 187); stroke-opacity: 1;"/><path class="point" transform="translate(615.62,304.92)" d="M5.85,0L0,5.85L-5.85,0L0,-5.85Z" style="opacity: 1; stroke-width: 1.5px; fill: rgb(0, 119, 187); fill-opacity: 0.5; stroke: rgb(0, 119, 187); stroke-opacity: 1;"/><path class="point" transform="translate(650.78,236)" d="M5.85,0L0,5.85L-5.85,0L0,-5.85Z" style="opacity: 1; stroke-width: 1.5px; fill: rgb(0, 119, 187); fill-opacity: 0.5; stroke: rgb(0, 119, 187); stroke-opacity: 1;"/></g><g class="text"/></g><g class="trace scatter traced797b2" style="stroke-miterlimit: 2; opacity: 1;"><g class="fills"/><g class="errorbars"/><g class="lines"/><g class="points"><path class="point" transform="translate(53.12,66.68)" d="M0,2.55l2.55,2.55l2.55,-2.55l-2.55,-2.55l2.55,-2.55l-2.55,-2.55l-2.55,2.55l-2.55,-2.55l-2.55,2.55l2.55,2.55l-2.55,2.55l2.55,2.55Z" style="opacity: 1; stroke-width: 1.5px; fill: rgb(0, 119, 187); fill-opacity: 0.5; stroke: rgb(0, 119, 187); stroke-opacity: 1;"/><path class="point" transform="translate(88.28,147.6)" d="M0,2.55l2.55,2.55l2.55,-2.55l-2.55,-2.55l2.55,-2.55l-2.55,-2.55l-2.55,2.55l-2.55,-2.55l-2.55,2.55l2.55,2.55l-2.55,2.55l2.55,2.55Z" style="opacity: 1; stroke-width: 1.5px; fill: rgb(0, 119, 187); fill-opacity: 0.5; stroke: rgb(0, 119, 187); stroke-opacity: 1;"/><path class="point" transform="translate(123.44,282.45)" d="M0,2.55l2.55,2.55l2.55,-2.55l-2.55,-2.55l2.55,-2.55l-2.55,-2.55l-2.55,2.55l-2.55,-2.55l-2.55,2.55l2.55,2.55l-2.55,2.55l2.55,2.55Z" style="opacity: 1; stroke-width: 1.5px; fill: rgb(0, 119, 187); fill-opacity: 0.5; stroke: rgb(0, 119, 187); stroke-opacity: 1;"/><path class="point" transform="translate(158.59,165.58)" d="M0,2.55l2.55,2.55l2.55,-2.55l-2.55,-2.55l2.55,-2.55l-2.55,-2.55l-2.55,2.55l-2.55,-2.55l-2.55,2.55l2.55,2.55l-2.55,2.55l2.55,2.55Z" style="opacity: 1; stroke-width: 1.5px; fill: rgb(0, 119, 187); fill-opacity: 0.5; stroke: rgb(0, 119, 187); stroke-opacity: 1;"/><path class="point" transform="translate(193.75,194.05)" d="M0,2.55l2.55,2.55l2.55,-2.55l-2.55,-2.55l2.55,-2.55l-2.55,-2.55l-2.55,2.55l-2.55,-2.55l-2.55,2.55l2.55,2.55l-2.55,2.55l2.55,2.55Z" style="opacity: 1; stroke-width: 1.5px; fill: rgb(0, 119, 187); fill-opacity: 0.5; stroke: rgb(0, 119, 187); stroke-opacity: 1;"/><path class="point" transform="translate(228.91,180.56)" d="M0,2.55l2.55,2.55l2.55,-2.55l-2.55,-2.55l2.55,-2.55l-2.55,-2.55l-2.55,2.55l-2.55,-2.55l-2.55,2.55l2.55,2.55l-2.55,2.55l2.55,2.55Z" style="opacity: 1; stroke-width: 1.5px; fill: rgb(0, 119, 187); fill-opacity: 0.5; stroke: rgb(0, 119, 187); stroke-opacity: 1;"/><path class="point" transform="translate(264.06,215.02)" d="M0,2.55l2.55,2.55l2.55,-2.55l-2.55,-2.55l2.55,-2.55l-2.55,-2.55l-2.55,2.55l-2.55,-2.55l-2.55,2.55l2.55,2.55l-2.55,2.55l2.55,2.55Z" style="opacity: 1; stroke-width: 1.5px; fill: rgb(0, 119, 187); fill-opacity: 0.5; stroke: rgb(0, 119, 187); stroke-opacity: 1;"/><path class="point" transform="translate(299.22,132.61)" d="M0,2.55l2.55,2.55l2.55,-2.55l-2.55,-2.55l2.55,-2.55l-2.55,-2.55l-2.55,2.55l-2.55,-2.55l-2.55,2.55l2.55,2.55l-2.55,2.55l2.55,2.55Z" style="opacity: 1; stroke-width: 1.5px; fill: rgb(0, 119, 187); fill-opacity: 0.5; stroke: rgb(0, 119, 187); stroke-opacity: 1;"/><path class="point" transform="translate(334.37,213.52)" d="M0,2.55l2.55,2.55l2.55,-2.55l-2.55,-2.55l2.55,-2.55l-2.55,-2.55l-2.55,2.55l-2.55,-2.55l-2.55,2.55l2.55,2.55l-2.55,2.55l2.55,2.55Z" style="opacity: 1; stroke-width: 1.5px; fill: rgb(0, 119, 187); fill-opacity: 0.5; stroke: rgb(0, 119, 187); stroke-opacity: 1;"/><path class="point" transform="translate(369.53,212.03)" d="M0,2.55l2.55,2.55l2.55,-2.55l-2.55,-2.55l2.55,-2.55l-2.55,-2.55l-2.55,2.55l-2.55,-2.55l-2.55,2.55l2.55,2.55l-2.55,2.55l2.55,2.55Z" style="opacity: 1; stroke-width: 1.5px; fill: rgb(0, 119, 187); fill-opacity: 0.5; stroke: rgb(0, 119, 187); stroke-opacity: 1;"/><path class="point" transform="translate(404.69,294.44)" d="M0,2.55l2.55,2.55l2.55,-2.55l-2.55,-2.55l2.55,-2.55l-2.55,-2.55l-2.55,2.55l-2.55,-2.55l-2.55,2.55l2.55,2.55l-2.55,2.55l2.55,2.55Z" style="opacity: 1; stroke-width: 1.5px; fill: rgb(0, 119, 187); fill-opacity: 0.5; stroke: rgb(0, 119, 187); stroke-opacity: 1;"/><path class="point" transform="translate(475,29.22)" d="M0,2.55l2.55,2.55l2.55,-2.55l-2.55,-2.55l2.55,-2.55l-2.55,-2.55l-2.55,2.55l-2.55,-2.55l-2.55,2.55l2.55,2.55l-2.55,2.55l2.55,2.55Z" style="opacity: 1; stroke-width: 1.5px; fill: rgb(0, 119, 187); fill-opacity: 0.5; stroke: rgb(0, 119, 187); stroke-opacity: 1;"/><path class="point" transform="translate(510.16,249.49)" d="M0,2.55l2.55,2.55l2.55,-2.55l-2.55,-2.55l2.55,-2.55l-2.55,-2.55l-2.55,2.55l-2.55,-2.55l-2.55,2.55l2.55,2.55l-2.55,2.55l2.55,2.55Z" style="opacity: 1; stroke-width: 1.5px; fill: rgb(0, 119, 187); fill-opacity: 0.5; stroke: rgb(0, 119, 187); stroke-opacity: 1;"/><path class="point" transform="translate(545.31,233)" d="M0,2.55l2.55,2.55l2.55,-2.55l-2.55,-2.55l2.55,-2.55l-2.55,-2.55l-2.55,2.55l-2.55,-2.55l-2.55,2.55l2.55,2.55l-2.55,2.55l2.55,2.55Z" style="opacity: 1; stroke-width: 1.5px; fill: rgb(0, 119, 187); fill-opacity: 0.5; stroke: rgb(0, 119, 187); stroke-opacity: 1;"/><path class="point" transform="translate(615.62,367.86)" d="M0,2.55l2.55,2.55l2.55,-2.55l-2.55,-2.55l2.55,-2.55l-2.55,-2.55l-2.55,2.55l-2.55,-2.55l-2.55,2.55l2.55,2.55l-2.55,2.55l2.55,2.55Z" style="opacity: 1; stroke-width: 1.5px; fill: rgb(0, 119, 187); fill-opacity: 0.5; stroke: rgb(0, 119, 187); stroke-opacity: 1;"/><path class="point" transform="translate(650.78,108.64)" d="M0,2.55l2.55,2.55l2.55,-2.55l-2.55,-2.55l2.55,-2.55l-2.55,-2.55l-2.55,2.55l-2.55,-2.55l-2.55,2.55l2.55,2.55l-2.55,2.55l2.55,2.55Z" style="opacity: 1; stroke-width: 1.5px; fill: rgb(0, 119, 187); fill-opacity: 0.5; stroke: rgb(0, 119, 187); stroke-opacity: 1;"/><path class="point" transform="translate(721.09,388.83)" d="M0,2.55l2.55,2.55l2.55,-2.55l-2.55,-2.55l2.55,-2.55l-2.55,-2.55l-2.55,2.55l-2.55,-2.55l-2.55,2.55l2.55,2.55l-2.55,2.55l2.55,2.55Z" style="opacity: 1; stroke-width: 1.5px; fill: rgb(0, 119, 187); fill-opacity: 0.5; stroke: rgb(0, 119, 187); stroke-opacity: 1;"/></g><g class="text"/></g><g class="trace scatter trace77c1db" style="stroke-miterlimit: 2; opacity: 1;"><g class="fills"/><g class="errorbars"/><g class="lines"/><g class="points"><path class="point" transform="translate(53.12,119.13)" d="M4.5,0A4.5,4.5 0 1,1 0,-4.5A4.5,4.5 0 0,1 4.5,0Z" style="opacity: 1; stroke-width: 1.5px; fill: rgb(0, 119, 187); fill-opacity: 0.5; stroke: rgb(0, 119, 187); stroke-opacity: 1;"/><path class="point" transform="translate(88.28,174.57)" d="M4.5,0A4.5,4.5 0 1,1 0,-4.5A4.5,4.5 0 0,1 4.5,0Z" style="opacity: 1; stroke-width: 1.5px; fill: rgb(0, 119, 187); fill-opacity: 0.5; stroke: rgb(0, 119, 187); stroke-opacity: 1;"/><path class="point" transform="translate(123.44,319.91)" d="M4.5,0A4.5,4.5 0 1,1 0,-4.5A4.5,4.5 0 0,1 4.5,0Z" style="opacity: 1; stroke-width: 1.5px; fill: rgb(0, 119, 187); fill-opacity: 0.5; stroke: rgb(0, 119, 187); stroke-opacity: 1;"/><path class="point" transform="translate(158.59,188.05)" d="M4.5,0A4.5,4.5 0 1,1 0,-4.5A4.5,4.5 0 0,1 4.5,0Z" style="opacity: 1; stroke-width: 1.5px; fill: rgb(0, 119, 187); fill-opacity: 0.5; stroke: rgb(0, 119, 187); stroke-opacity: 1;"/><path class="point" transform="translate(193.75,243.49)" d="M4.5,0A4.5,4.5 0 1,1 0,-4.5A4.5,4.5 0 0,1 4.5,0Z" style="opacity: 1; stroke-width: 1.5px; fill: rgb(0, 119, 187); fill-opacity: 0.5; stroke: rgb(0, 119, 187); stroke-opacity: 1;"/><path class="point" transform="translate(228.91,176.07)" d="M4.5,0A4.5,4.5 0 1,1 0,-4.5A4.5,4.5 0 0,1 4.5,0Z" style="opacity: 1; stroke-width: 1.5px; fill: rgb(0, 119, 187); fill-opacity: 0.5; stroke: rgb(0, 119, 187); stroke-opacity: 1;"/><path class="point" transform="translate(264.06,227.01)" d="M4.5,0A4.5,4.5 0 1,1 0,-4.5A4.5,4.5 0 0,1 4.5,0Z" style="opacity: 1; stroke-width: 1.5px; fill: rgb(0, 119, 187); fill-opacity: 0.5; stroke: rgb(0, 119, 187); stroke-opacity: 1;"/><path class="point" transform="translate(299.22,155.09)" d="M4.5,0A4.5,4.5 0 1,1 0,-4.5A4.5,4.5 0 0,1 4.5,0Z" style="opacity: 1; stroke-width: 1.5px; fill: rgb(0, 119, 187); fill-opacity: 0.5; stroke: rgb(0, 119, 187); stroke-opacity: 1;"/><path class="point" transform="translate(334.37,243.49)" d="M4.5,0A4.5,4.5 0 1,1 0,-4.5A4.5,4.5 0 0,1 4.5,0Z" style="opacity: 1; stroke-width: 1.5px; fill: rgb(0, 119, 187); fill-opacity: 0.5; stroke: rgb(0, 119, 187); stroke-opacity: 1;"/><path class="point" transform="translate(369.53,218.02)" d="M4.5,0A4.5,4.5 0 1,1 0,-4.5A4.5,4.5 0 0,1 4.5,0Z" style="opacity: 1; stroke-width: 1.5px; fill: rgb(0, 119, 187); fill-opacity: 0.5; stroke: rgb(0, 119, 187); stroke-opacity: 1;"/><path class="point" transform="translate(404.69,321.41)" d="M4.5,0A4.5,4.5 0 1,1 0,-4.5A4.5,4.5 0 0,1 4.5,0Z" style="opacity: 1; stroke-width: 1.5px; fill: rgb(0, 119, 187); fill-opacity: 0.5; stroke: rgb(0, 119, 187); stroke-opacity: 1;"/><path class="point" transform="translate(475,78.67)" d="M4.5,0A4.5,4.5 0 1,1 0,-4.5A4.5,4.5 0 0,1 4.5,0Z" style="opacity: 1; stroke-width: 1.5px; fill: rgb(0, 119, 187); fill-opacity: 0.5; stroke: rgb(0, 119, 187); stroke-opacity: 1;"/><path class="point" transform="translate(510.16,258.48)" d="M4.5,0A4.5,4.5 0 1,1 0,-4.5A4.5,4.5 0 0,1 4.5,0Z" style="opacity: 1; stroke-width: 1.5px; fill: rgb(0, 119, 187); fill-opacity: 0.5; stroke: rgb(0, 119, 187); stroke-opacity: 1;"/><path class="point" transform="translate(545.31,264.47)" d="M4.5,0A4.5,4.5 0 1,1 0,-4.5A4.5,4.5 0 0,1 4.5,0Z" style="opacity: 1; stroke-width: 1.5px; fill: rgb(0, 119, 187); fill-opacity: 0.5; stroke: rgb(0, 119, 187); stroke-opacity: 1;"/><path class="point" transform="translate(615.62,400.82)" d="M4.5,0A4.5,4.5 0 1,1 0,-4.5A4.5,4.5 0 0,1 4.5,0Z" style="opacity: 1; stroke-width: 1.5px; fill: rgb(0, 119, 187); fill-opacity: 0.5; stroke: rgb(0, 119, 187); stroke-opacity: 1;"/><path class="point" transform="translate(650.78,143.1)" d="M4.5,0A4.5,4.5 0 1,1 0,-4.5A4.5,4.5 0 0,1 4.5,0Z" style="opacity: 1; stroke-width: 1.5px; fill: rgb(0, 119, 187); fill-opacity: 0.5; stroke: rgb(0, 119, 187); stroke-opacity: 1;"/><path class="point" transform="translate(721.09,390.33)" d="M4.5,0A4.5,4.5 0 1,1 0,-4.5A4.5,4.5 0 0,1 4.5,0Z" style="opacity: 1; stroke-width: 1.5px; fill: rgb(0, 119, 187); fill-opacity: 0.5; stroke: rgb(0, 119, 187); stroke-opacity: 1;"/></g><g class="text"/></g><g class="trace scatter trace9afe5d" style="stroke-miterlimit: 2; opacity: 1;"><g class="fills"/><g class="errorbars"/><g class="lines"/><g class="points"><path class="point" transform="translate(439.84,177.56)" d="M5.85,0L0,5.85L-5.85,0L0,-5.85Z" style="opacity: 1; stroke-width: 1.5px; fill: rgb(136, 204, 238); fill-opacity: 0.5; stroke: rgb(136, 204, 238); stroke-opacity: 1;"/><path class="point" transform="translate(580.47,412.81)" d="M5.85,0L0,5.85L-5.85,0L0,-5.85Z" style="opacity: 1; stroke-width: 1.5px; fill: rgb(136, 204, 238); fill-opacity: 0.5; stroke: rgb(136, 204, 238); stroke-opacity: 1;"/><path class="point" transform="translate(685.94,301.93)" d="M5.85,0L0,5.85L-5.85,0L0,-5.85Z" style="opacity: 1; stroke-width: 1.5px; fill: rgb(136, 204, 238); fill-opacity: 0.5; stroke: rgb(136, 204, 238); stroke-opacity: 1;"/><path class="point" transform="translate(896.87,201.54)" d="M5.85,0L0,5.85L-5.85,0L0,-5.85Z" style="opacity: 1; stroke-width: 1.5px; fill: rgb(136, 204, 238); fill-opacity: 0.5; stroke: rgb(136, 204, 238); stroke-opacity: 1;"/></g><g class="text"/></g><g class="trace scatter trace9acae3" style="stroke-miterlimit: 2; opacity: 1;"><g class="fills"/><g class="errorbars"/><g class="lines"/><g class="points"><path class="point" transform="translate(439.84,171.57)" d="M0,2.55l2.55,2.55l2.55,-2.55l-2.55,-2.55l2.55,-2.55l-2.55,-2.55l-2.55,2.55l-2.55,-2.55l-2.55,2.55l2.55,2.55l-2.55,2.55l2.55,2.55Z" style="opacity: 1; stroke-width: 1.5px; fill: rgb(136, 204, 238); fill-opacity: 0.5; stroke: rgb(136, 204, 238); stroke-opacity: 1;"/><path class="point" transform="translate(580.47,313.92)" d="M0,2.55l2.55,2.55l2.55,-2.55l-2.55,-2.55l2.55,-2.55l-2.55,-2.55l-2.55,2.55l-2.55,-2.55l-2.55,2.55l2.55,2.55l-2.55,2.55l2.55,2.55Z" style="opacity: 1; stroke-width: 1.5px; fill: rgb(136, 204, 238); fill-opacity: 0.5; stroke: rgb(136, 204, 238); stroke-opacity: 1;"/><path class="point" transform="translate(685.94,310.92)" d="M0,2.55l2.55,2.55l2.55,-2.55l-2.55,-2.55l2.55,-2.55l-2.55,-2.55l-2.55,2.55l-2.55,-2.55l-2.55,2.55l2.55,2.55l-2.55,2.55l2.55,2.55Z" style="opacity: 1; stroke-width: 1.5px; fill: rgb(136, 204, 238); fill-opacity: 0.5; stroke: rgb(136, 204, 238); stroke-opacity: 1;"/><path class="point" transform="translate(791.41,306.42)" d="M0,2.55l2.55,2.55l2.55,-2.55l-2.55,-2.55l2.55,-2.55l-2.55,-2.55l-2.55,2.55l-2.55,-2.55l-2.55,2.55l2.55,2.55l-2.55,2.55l2.55,2.55Z" style="opacity: 1; stroke-width: 1.5px; fill: rgb(136, 204, 238); fill-opacity: 0.5; stroke: rgb(136, 204, 238); stroke-opacity: 1;"/><path class="point" transform="translate(861.72,381.34)" d="M0,2.55l2.55,2.55l2.55,-2.55l-2.55,-2.55l2.55,-2.55l-2.55,-2.55l-2.55,2.55l-2.55,-2.55l-2.55,2.55l2.55,2.55l-2.55,2.55l2.55,2.55Z" style="opacity: 1; stroke-width: 1.5px; fill: rgb(136, 204, 238); fill-opacity: 0.5; stroke: rgb(136, 204, 238); stroke-opacity: 1;"/><path class="point" transform="translate(896.87,188.05)" d="M0,2.55l2.55,2.55l2.55,-2.55l-2.55,-2.55l2.55,-2.55l-2.55,-2.55l-2.55,2.55l-2.55,-2.55l-2.55,2.55l2.55,2.55l-2.55,2.55l2.55,2.55Z" style="opacity: 1; stroke-width: 1.5px; fill: rgb(136, 204, 238); fill-opacity: 0.5; stroke: rgb(136, 204, 238); stroke-opacity: 1;"/></g><g class="text"/></g><g class="trace scatter trace22951a" style="stroke-miterlimit: 2; opacity: 1;"><g class="fills"/><g class="errorbars"/><g class="lines"/><g class="points"><path class="point" transform="translate(439.84,182.06)" d="M4.5,0A4.5,4.5 0 1,1 0,-4.5A4.5,4.5 0 0,1 4.5,0Z" style="opacity: 1; stroke-width: 1.5px; fill: rgb(136, 204, 238); fill-opacity: 0.5; stroke: rgb(136, 204, 238); stroke-opacity: 1;"/><path class="point" transform="translate(580.47,319.91)" d="M4.5,0A4.5,4.5 0 1,1 0,-4.5A4.5,4.5 0 0,1 4.5,0Z" style="opacity: 1; stroke-width: 1.5px; fill: rgb(136, 204, 238); fill-opacity: 0.5; stroke: rgb(136, 204, 238); stroke-opacity: 1;"/><path class="point" transform="translate(685.94,334.89)" d="M4.5,0A4.5,4.5 0 1,1 0,-4.5A4.5,4.5 0 0,1 4.5,0Z" style="opacity: 1; stroke-width: 1.5px; fill: rgb(136, 204, 238); fill-opacity: 0.5; stroke: rgb(136, 204, 238); stroke-opacity: 1;"/><path class="point" transform="translate(791.41,348.38)" d="M4.5,0A4.5,4.5 0 1,1 0,-4.5A4.5,4.5 0 0,1 4.5,0Z" style="opacity: 1; stroke-width: 1.5px; fill: rgb(136, 204, 238); fill-opacity: 0.5; stroke: rgb(136, 204, 238); stroke-opacity: 1;"/><path class="point" transform="translate(861.72,408.31)" d="M4.5,0A4.5,4.5 0 1,1 0,-4.5A4.5,4.5 0 0,1 4.5,0Z" style="opacity: 1; stroke-width: 1.5px; fill: rgb(136, 204, 238); fill-opacity: 0.5; stroke: rgb(136, 204, 238); stroke-opacity: 1;"/><path class="point" transform="translate(896.87,250.98)" d="M4.5,0A4.5,4.5 0 1,1 0,-4.5A4.5,4.5 0 0,1 4.5,0Z" style="opacity: 1; stroke-width: 1.5px; fill: rgb(136, 204, 238); fill-opacity: 0.5; stroke: rgb(136, 204, 238); stroke-opacity: 1;"/></g><g class="text"/></g></g></g><g class="overplot"/><path class="xlines-above crisp" d="M46,503H1000M46,29H1000" style="fill: none; stroke-width: 2px; stroke: rgb(0, 0, 0); stroke-opacity: 1;"/><path class="ylines-above crisp" d="M47,30V502M999,30V502" style="fill: none; stroke-width: 2px; stroke: rgb(0, 0, 0); stroke-opacity: 1;"/><g class="overlines-above"/><g class="xaxislayer-above"><path class="xtick ticks crisp" d="M0,504v5" transform="translate(101.12,0)" style="stroke: rgb(51, 51, 51); stroke-opacity: 1; stroke-width: 2px;"/><path class="xtick ticks crisp" d="M0,504v5" transform="translate(136.28,0)" style="stroke: rgb(51, 51, 51); stroke-opacity: 1; stroke-width: 2px;"/><path class="xtick ticks crisp" d="M0,504v5" transform="translate(171.44,0)" style="stroke: rgb(51, 51, 51); stroke-opacity: 1; stroke-width: 2px;"/><path class="xtick ticks crisp" d="M0,504v5" transform="translate(206.59,0)" style="stroke: rgb(51, 51, 51); stroke-opacity: 1; stroke-width: 2px;"/><path class="xtick ticks crisp" d="M0,504v5" transform="translate(241.75,0)" style="stroke: rgb(51, 51, 51); stroke-opacity: 1; stroke-width: 2px;"/><path class="xtick ticks crisp" d="M0,504v5" transform="translate(276.90999999999997,0)" style="stroke: rgb(51, 51, 51); stroke-opacity: 1; stroke-width: 2px;"/><path class="xtick ticks crisp" d="M0,504v5" transform="translate(312.06,0)" style="stroke: rgb(51, 51, 51); stroke-opacity: 1; stroke-width: 2px;"/><path class="xtick ticks crisp" d="M0,504v5" transform="translate(347.22,0)" style="stroke: rgb(51, 51, 51); stroke-opacity: 1; stroke-width: 2px;"/><path class="xtick ticks crisp" d="M0,504v5" transform="translate(382.37,0)" style="stroke: rgb(51, 51, 51); stroke-opacity: 1; stroke-width: 2px;"/><path class="xtick ticks crisp" d="M0,504v5" transform="translate(417.53,0)" style="stroke: rgb(51, 51, 51); stroke-opacity: 1; stroke-width: 2px;"/><path class="xtick ticks crisp" d="M0,504v5" transform="translate(452.69,0)" style="stroke: rgb(51, 51, 51); stroke-opacity: 1; stroke-width: 2px;"/><path class="xtick ticks crisp" d="M0,504v5" transform="translate(487.84,0)" style="stroke: rgb(51, 51, 51); stroke-opacity: 1; stroke-width: 2px;"/><path class="xtick ticks crisp" d="M0,504v5" transform="translate(523,0)" style="stroke: rgb(51, 51, 51); stroke-opacity: 1; stroke-width: 2px;"/><path class="xtick ticks crisp" d="M0,504v5" transform="translate(558.1600000000001,0)" style="stroke: rgb(51, 51, 51); stroke-opacity: 1; stroke-width: 2px;"/><path class="xtick ticks crisp" d="M0,504v5" transform="translate(593.31,0)" style="stroke: rgb(51, 51, 51); stroke-opacity: 1; stroke-width: 2px;"/><path class="xtick ticks crisp" d="M0,504v5" transform="translate(628.47,0)" style="stroke: rgb(51, 51, 51); stroke-opacity: 1; stroke-width: 2px;"/><path class="xtick ticks crisp" d="M0,504v5" transform="translate(663.62,0)" style="stroke: rgb(51, 51, 51); stroke-opacity: 1; stroke-width: 2px;"/><path class="xtick ticks crisp" d="M0,504v5" transform="translate(698.78,0)" style="stroke: rgb(51, 51, 51); stroke-opacity: 1; stroke-width: 2px;"/><path class="xtick ticks crisp" d="M0,504v5" transform="translate(733.94,0)" style="stroke: rgb(51, 51, 51); stroke-opacity: 1; stroke-width: 2px;"/><path class="xtick ticks crisp" d="M0,504v5" transform="translate(769.09,0)" style="stroke: rgb(51, 51, 51); stroke-opacity: 1; stroke-width: 2px;"/><path class="xtick ticks crisp" d="M0,504v5" transform="translate(804.25,0)" style="stroke: rgb(51, 51, 51); stroke-opacity: 1; stroke-width: 2px;"/><path class="xtick ticks crisp" d="M0,504v5" transform="translate(839.41,0)" style="stroke: rgb(51, 51, 51); stroke-opacity: 1; stroke-width: 2px;"/><path class="xtick ticks crisp" d="M0,504v5" transform="translate(874.56,0)" style="stroke: rgb(51, 51, 51); stroke-opacity: 1; stroke-width: 2px;"/><path class="xtick ticks crisp" d="M0,504v5" transform="translate(909.72,0)" style="stroke: rgb(51, 51, 51); stroke-opacity: 1; stroke-width: 2px;"/><path class="xtick ticks crisp" d="M0,504v5" transform="translate(944.87,0)" style="stroke: rgb(51, 51, 51); stroke-opacity: 1; stroke-width: 2px;"/><g class="xtick"><text text-anchor="end" x="0" y="523.4" transform="translate(101.12,0) rotate(-45,0,517.4)" style="font-family: 'Open Sans', verdana, arial, sans-serif; font-size: 12px; fill: rgb(51, 51, 51); fill-opacity: 1; white-space: pre;">Austria</text></g><g class="xtick"><text text-anchor="end" x="0" y="523.4" transform="translate(136.28,0) rotate(-45,0,517.4)" style="font-family: 'Open Sans', verdana, arial, sans-serif; font-size: 12px; fill: rgb(51, 51, 51); fill-opacity: 1; white-space: pre;">Belgium</text></g><g class="xtick"><text text-anchor="end" x="0" y="523.4" transform="translate(171.44,0) rotate(-45,0,517.4)" style="font-family: 'Open Sans', verdana, arial, sans-serif; font-size: 12px; fill: rgb(51, 51, 51); fill-opacity: 1; white-space: pre;">Finland</text></g><g class="xtick"><text text-anchor="end" x="0" y="523.4" transform="translate(206.59,0) rotate(-45,0,517.4)" style="font-family: 'Open Sans', verdana, arial, sans-serif; font-size: 12px; fill: rgb(51, 51, 51); fill-opacity: 1; white-space: pre;">France</text></g><g class="xtick"><text text-anchor="end" x="0" y="523.4" transform="translate(241.75,0) rotate(-45,0,517.4)" style="font-family: 'Open Sans', verdana, arial, sans-serif; font-size: 12px; fill: rgb(51, 51, 51); fill-opacity: 1; white-space: pre;">Germany</text></g><g class="xtick"><text text-anchor="end" x="0" y="523.4" transform="translate(276.90999999999997,0) rotate(-45,0,517.4)" style="font-family: 'Open Sans', verdana, arial, sans-serif; font-size: 12px; fill: rgb(51, 51, 51); fill-opacity: 1; white-space: pre;">Luxembourg</text></g><g class="xtick"><text text-anchor="end" x="0" y="523.4" transform="translate(312.06,0) rotate(-45,0,517.4)" style="font-family: 'Open Sans', verdana, arial, sans-serif; font-size: 12px; fill: rgb(51, 51, 51); fill-opacity: 1; white-space: pre;">Norway</text></g><g class="xtick"><text text-anchor="end" x="0" y="523.4" transform="translate(347.22,0) rotate(-45,0,517.4)" style="font-family: 'Open Sans', verdana, arial, sans-serif; font-size: 12px; fill: rgb(51, 51, 51); fill-opacity: 1; white-space: pre;">Sweden</text></g><g class="xtick"><text text-anchor="end" x="0" y="523.4" transform="translate(382.37,0) rotate(-45,0,517.4)" style="font-family: 'Open Sans', verdana, arial, sans-serif; font-size: 12px; fill: rgb(51, 51, 51); fill-opacity: 1; white-space: pre;">Switzerland</text></g><g class="xtick"><text text-anchor="end" x="0" y="523.4" transform="translate(417.53,0) rotate(-45,0,517.4)" style="font-family: 'Open Sans', verdana, arial, sans-serif; font-size: 12px; fill: rgb(51, 51, 51); fill-opacity: 1; white-space: pre;">UK</text></g><g class="xtick"><text text-anchor="end" x="0" y="523.4" transform="translate(452.69,0) rotate(-45,0,517.4)" style="font-family: 'Open Sans', verdana, arial, sans-serif; font-size: 12px; fill: rgb(51, 51, 51); fill-opacity: 1; white-space: pre;">Greece</text></g><g class="xtick"><text text-anchor="end" x="0" y="523.4" transform="translate(487.84,0) rotate(-45,0,517.4)" style="font-family: 'Open Sans', verdana, arial, sans-serif; font-size: 12px; fill: rgb(51, 51, 51); fill-opacity: 1; white-space: pre;">Malta</text></g><g class="xtick"><text text-anchor="end" x="0" y="523.4" transform="translate(523,0) rotate(-45,0,517.4)" style="font-family: 'Open Sans', verdana, arial, sans-serif; font-size: 12px; fill: rgb(51, 51, 51); fill-opacity: 1; white-space: pre;">Italy</text></g><g class="xtick"><text text-anchor="end" x="0" y="523.4" transform="translate(558.1600000000001,0) rotate(-45,0,517.4)" style="font-family: 'Open Sans', verdana, arial, sans-serif; font-size: 12px; fill: rgb(51, 51, 51); fill-opacity: 1; white-space: pre;">Portugal</text></g><g class="xtick"><text text-anchor="end" x="0" y="523.4" transform="translate(593.31,0) rotate(-45,0,517.4)" style="font-family: 'Open Sans', verdana, arial, sans-serif; font-size: 12px; fill: rgb(51, 51, 51); fill-opacity: 1; white-space: pre;">Spain</text></g><g class="xtick"><text text-anchor="end" x="0" y="523.4" transform="translate(628.47,0) rotate(-45,0,517.4)" style="font-family: 'Open Sans', verdana, arial, sans-serif; font-size: 12px; fill: rgb(51, 51, 51); fill-opacity: 1; white-space: pre;">Croatia</text></g><g class="xtick"><text text-anchor="end" x="0" y="523.4" transform="translate(663.62,0) rotate(-45,0,517.4)" style="font-family: 'Open Sans', verdana, arial, sans-serif; font-size: 12px; fill: rgb(51, 51, 51); fill-opacity: 1; white-space: pre;">Czechia</text></g><g class="xtick"><text text-anchor="end" x="0" y="523.4" transform="translate(698.78,0) rotate(-45,0,517.4)" style="font-family: 'Open Sans', verdana, arial, sans-serif; font-size: 12px; fill: rgb(51, 51, 51); fill-opacity: 1; white-space: pre;">Estonia</text></g><g class="xtick"><text text-anchor="end" x="0" y="523.4" transform="translate(733.94,0) rotate(-45,0,517.4)" style="font-family: 'Open Sans', verdana, arial, sans-serif; font-size: 12px; fill: rgb(51, 51, 51); fill-opacity: 1; white-space: pre;">Hungary</text></g><g class="xtick"><text text-anchor="end" x="0" y="523.4" transform="translate(769.09,0) rotate(-45,0,517.4)" style="font-family: 'Open Sans', verdana, arial, sans-serif; font-size: 12px; fill: rgb(51, 51, 51); fill-opacity: 1; white-space: pre;">Latvia</text></g><g class="xtick"><text text-anchor="end" x="0" y="523.4" transform="translate(804.25,0) rotate(-45,0,517.4)" style="font-family: 'Open Sans', verdana, arial, sans-serif; font-size: 12px; fill: rgb(51, 51, 51); fill-opacity: 1; white-space: pre;">Lithuania</text></g><g class="xtick"><text text-anchor="end" x="0" y="523.4" transform="translate(839.41,0) rotate(-45,0,517.4)" style="font-family: 'Open Sans', verdana, arial, sans-serif; font-size: 12px; fill: rgb(51, 51, 51); fill-opacity: 1; white-space: pre;">Poland</text></g><g class="xtick"><text text-anchor="end" x="0" y="523.4" transform="translate(874.56,0) rotate(-45,0,517.4)" style="font-family: 'Open Sans', verdana, arial, sans-serif; font-size: 12px; fill: rgb(51, 51, 51); fill-opacity: 1; white-space: pre;">Romania</text></g><g class="xtick"><text text-anchor="end" x="0" y="523.4" transform="translate(909.72,0) rotate(-45,0,517.4)" style="font-family: 'Open Sans', verdana, arial, sans-serif; font-size: 12px; fill: rgb(51, 51, 51); fill-opacity: 1; white-space: pre;">Slovakia</text></g><g class="xtick"><text text-anchor="end" x="0" y="523.4" transform="translate(944.87,0) rotate(-45,0,517.4)" style="font-family: 'Open Sans', verdana, arial, sans-serif; font-size: 12px; fill: rgb(51, 51, 51); fill-opacity: 1; white-space: pre;">Slovenia</text></g></g><g class="yaxislayer-above"><path class="ytick ticks crisp" d="M46,0h-5" transform="translate(0,486.26)" style="stroke: rgb(51, 51, 51); stroke-opacity: 1; stroke-width: 2px;"/><path class="ytick ticks crisp" d="M46,0h-5" transform="translate(0,411.34)" style="stroke: rgb(51, 51, 51); stroke-opacity: 1; stroke-width: 2px;"/><path class="ytick ticks crisp" d="M46,0h-5" transform="translate(0,336.42)" style="stroke: rgb(51, 51, 51); stroke-opacity: 1; stroke-width: 2px;"/><path class="ytick ticks crisp" d="M46,0h-5" transform="translate(0,261.5)" style="stroke: rgb(51, 51, 51); stroke-opacity: 1; stroke-width: 2px;"/><path class="ytick ticks crisp" d="M46,0h-5" transform="translate(0,186.59)" style="stroke: rgb(51, 51, 51); stroke-opacity: 1; stroke-width: 2px;"/><path class="ytick ticks crisp" d="M46,0h-5" transform="translate(0,111.67)" style="stroke: rgb(51, 51, 51); stroke-opacity: 1; stroke-width: 2px;"/><path class="ytick ticks crisp" d="M46,0h-5" transform="translate(0,36.75)" style="stroke: rgb(51, 51, 51); stroke-opacity: 1; stroke-width: 2px;"/><g class="ytick"><text text-anchor="end" x="38.6" y="4.199999999999999" transform="translate(0,486.26)" style="font-family: 'Open Sans', verdana, arial, sans-serif; font-size: 12px; fill: rgb(51, 51, 51); fill-opacity: 1; white-space: pre;">−5</text></g><g class="ytick"><text text-anchor="end" x="38.6" y="4.199999999999999" transform="translate(0,411.34)" style="font-family: 'Open Sans', verdana, arial, sans-serif; font-size: 12px; fill: rgb(51, 51, 51); fill-opacity: 1; white-space: pre;">0</text></g><g class="ytick"><text text-anchor="end" x="38.6" y="4.199999999999999" transform="translate(0,336.42)" style="font-family: 'Open Sans', verdana, arial, sans-serif; font-size: 12px; fill: rgb(51, 51, 51); fill-opacity: 1; white-space: pre;">5</text></g><g class="ytick"><text text-anchor="end" x="38.6" y="4.199999999999999" transform="translate(0,261.5)" style="font-family: 'Open Sans', verdana, arial, sans-serif; font-size: 12px; fill: rgb(51, 51, 51); fill-opacity: 1; white-space: pre;">10</text></g><g class="ytick"><text text-anchor="end" x="38.6" y="4.199999999999999" transform="translate(0,186.59)" style="font-family: 'Open Sans', verdana, arial, sans-serif; font-size: 12px; fill: rgb(51, 51, 51); fill-opacity: 1; white-space: pre;">15</text></g><g class="ytick"><text text-anchor="end" x="38.6" y="4.199999999999999" transform="translate(0,111.67)" style="font-family: 'Open Sans', verdana, arial, sans-serif; font-size: 12px; fill: rgb(51, 51, 51); fill-opacity: 1; white-space: pre;">20</text></g><g class="ytick"><text text-anchor="end" x="38.6" y="4.199999999999999" transform="translate(0,36.75)" style="font-family: 'Open Sans', verdana, arial, sans-serif; font-size: 12px; fill: rgb(51, 51, 51); fill-opacity: 1; white-space: pre;">25</text></g></g><g class="overaxes-above"/></g></g><g class="polarlayer"/><g class="ternarylayer"/><g class="geolayer"/><g class="funnelarealayer"/><g class="pielayer"/><g class="treemaplayer"/><g class="sunburstlayer"/><g class="glimages"/><defs id="topdefs-623c95"><g class="clips"/><clipPath id="legend623c95"><rect width="141" height="83" x="2" y="2"/></clipPath></defs><g class="layer-above"><g class="imagelayer"/><g class="shapelayer"><path data-index="0" fill-rule="evenodd" d="M48,411.34L998,411.34" clip-path="url('#clip623c95y')" style="opacity: 0.3; stroke: rgb(0, 0, 0); stroke-opacity: 1; fill: rgb(0, 0, 0); fill-opacity: 1; stroke-width: 1px;"/><path data-index="1" fill-rule="evenodd" d="M575.73,502H751.52V30H575.73Z" clip-path="url('#clip623c95x')" style="opacity: 0.05; stroke: rgb(0, 0, 0); stroke-opacity: 0; fill: rgb(0, 0, 0); fill-opacity: 1; stroke-width: 0px;"/></g></g><g class="infolayer"><g class="legend" pointer-events="all" transform="translate(62.25,44.16000000000001)"><rect class="bg" shape-rendering="crispEdges" width="143" height="85" x="1" y="1" style="stroke: rgb(0, 0, 0); stroke-opacity: 1; fill: rgb(255, 255, 255); fill-opacity: 1; stroke-width: 2px;"/><g class="scrollbox" transform="" clip-path="url('#legend623c95')"><text class="legendtitletext" text-anchor="start" x="4" y="17.6" style="font-family: 'Open Sans', verdana, arial, sans-serif; font-size: 12px; fill: rgb(51, 51, 51); fill-opacity: 1; white-space: pre;"><tspan style="font-weight:bold"> Immigrant women vs. </tspan></text><g class="groups"><g class="traces" transform="translate(2,32.1)" style="opacity: 1;"><text class="legendtext" text-anchor="start" x="40" y="4.680000000000001" style="font-family: 'Open Sans', verdana, arial, sans-serif; font-size: 12px; fill: rgb(51, 51, 51); fill-opacity: 1; white-space: pre;">Native women</text><g class="layers" style="opacity: 1;"><g class="legendfill"/><g class="legendlines"/><g class="legendsymbols"><g class="legendpoints"><path class="scatterpts" transform="translate(20,0)" d="M4.5,0A4.5,4.5 0 1,1 0,-4.5A4.5,4.5 0 0,1 4.5,0Z" style="opacity: 1; stroke-width: 1.5px; fill: rgb(0, 119, 187); fill-opacity: 0.5; stroke: rgb(0, 119, 187); stroke-opacity: 1;"/></g></g></g><rect class="legendtoggle" x="0" y="-9.5" width="126.84375" height="19" style="fill: rgb(0, 0, 0); fill-opacity: 0;"/></g><g class="traces" transform="translate(2,51.1)" style="opacity: 1;"><text class="legendtext" text-anchor="start" x="40" y="4.680000000000001" style="font-family: 'Open Sans', verdana, arial, sans-serif; font-size: 12px; fill: rgb(51, 51, 51); fill-opacity: 1; white-space: pre;">Native men</text><g class="layers" style="opacity: 1;"><g class="legendfill"/><g class="legendlines"/><g class="legendsymbols"><g class="legendpoints"><path class="scatterpts" transform="translate(20,0)" d="M0,2.55l2.55,2.55l2.55,-2.55l-2.55,-2.55l2.55,-2.55l-2.55,-2.55l-2.55,2.55l-2.55,-2.55l-2.55,2.55l2.55,2.55l-2.55,2.55l2.55,2.55Z" style="opacity: 1; stroke-width: 1.5px; fill: rgb(0, 119, 187); fill-opacity: 0.5; stroke: rgb(0, 119, 187); stroke-opacity: 1;"/></g></g></g><rect class="legendtoggle" x="0" y="-9.5" width="126.84375" height="19" style="fill: rgb(0, 0, 0); fill-opacity: 0;"/></g><g class="traces" transform="translate(2,70.1)" style="opacity: 1;"><text class="legendtext" text-anchor="start" x="40" y="4.680000000000001" style="font-family: 'Open Sans', verdana, arial, sans-serif; font-size: 12px; fill: rgb(51, 51, 51); fill-opacity: 1; white-space: pre;">Immigrant men</text><g class="layers" style="opacity: 1;"><g class="legendfill"/><g class="legendlines"/><g class="legendsymbols"><g class="legendpoints"><path class="scatterpts" transform="translate(20,0)" d="M5.85,0L0,5.85L-5.85,0L0,-5.85Z" style="opacity: 1; stroke-width: 1.5px; fill: rgb(0, 119, 187); fill-opacity: 0.5; stroke: rgb(0, 119, 187); stroke-opacity: 1;"/></g></g></g><rect class="legendtoggle" x="0" y="-9.5" width="126.84375" height="19" style="fill: rgb(0, 0, 0); fill-opacity: 0;"/></g></g></g><rect class="scrollbar" rx="20" ry="3" width="0" height="0" x="0" y="0" style="fill: rgb(128, 139, 164); fill-opacity: 1;"/></g><g class="g-gtitle"/><g class="g-xtitle" transform="translate(0,-3.6349609374999545)"><text class="xtitle" x="523" y="599.6349609375" text-anchor="middle" style="font-family: 'Open Sans', verdana, arial, sans-serif; font-size: 14px; fill: rgb(51, 51, 51); opacity: 1; font-weight: normal; white-space: pre;">Country</text></g><g class="g-ytitle" transform="translate(14.9248046875,0)"><text class="ytitle" transform="rotate(-90,0.07500000000000284,266)" x="0.07500000000000284" y="266" text-anchor="middle" style="font-family: 'Open Sans', verdana, arial, sans-serif; font-size: 14px; fill: rgb(51, 51, 51); opacity: 1; font-weight: normal; white-space: pre;">Gap inoverqualification rates (pp)</text></g></g></svg>