<svg class="main-svg" xmlns="http://www.w3.org/2000/svg" xmlns:xlink="http://www.w3.org/1999/xlink" width="1000" height="600" style="" viewBox="0 0 1000 600"><rect x="0" y="0" width="1000" height="600" style="fill: rgb(255, 255, 255); fill-opacity: 0;"/><defs id="defs-ebc01d"><g class="clips"><clipPath id="clipebc01dxyplot" class="plotclip"><rect width="946" height="470"/></clipPath><clipPath class="axesclip" id="clipebc01dx"><rect x="52" y="0" width="946" height="600"/></clipPath><clipPath class="axesclip" id="clipebc01dy"><rect x="0" y="30" width="1000" height="470"/></clipPath><clipPath class="axesclip" id="clipebc01dxy"><rect x="52" y="30" width="946" height="470"/></clipPath></g><g class="gradients"/></defs><g class="bglayer"><rect class="bg" x="52" y="30" width="946" height="470" style="fill: rgb(237, 237, 237); fill-opacity: 1; stroke-width: 0;"/></g><g class="layer-below"><g class="imagelayer"/><g class="shapelayer"/></g><g class="cartesianlayer"><g class="subplot xy"><g class="layer-subplot"><g class="shapelayer"/><g class="imagelayer"/></g><g class="gridlayer"><g class="x"><path class="xgrid crisp" transform="translate(104.93,0)" d="M0,30v470" style="stroke: rgb(255, 255, 255); stroke-opacity: 1; stroke-width: 1px;"/><path class="xgrid crisp" transform="translate(139.93,0)" d="M0,30v470" style="stroke: rgb(255, 255, 255); stroke-opacity: 1; stroke-width: 1px;"/><path class="xgrid crisp" transform="translate(174.94,0)" d="M0,30v470" style="stroke: rgb(255, 255, 255); stroke-opacity: 1; stroke-width: 1px;"/><path class="xgrid crisp" transform="translate(209.94,0)" d="M0,30v470" style="stroke: rgb(255, 255, 255); stroke-opacity: 1; stroke-width: 1px;"/><path class="xgrid crisp" transform="translate(244.95,0)" d="M0,30v470" style="stroke: rgb(255, 255, 255); stroke-opacity: 1; stroke-width: 1px;"/><path class="xgrid crisp" transform="translate(279.96000000000004,0)" d="M0,30v470" style="stroke: rgb(255, 255, 255); stroke-opacity: 1; stroke-width: 1px;"/><path class="xgrid crisp" transform="translate(314.96,0)" d="M0,30v470" style="stroke: rgb(255, 255, 255); stroke-opacity: 1; stroke-width: 1px;"/><path class="xgrid crisp" transform="translate(349.97,0)" d="M0,30v470" style="stroke: rgb(255, 255, 255); stroke-opacity: 1; stroke-width: 1px;"/><path class="xgrid crisp" transform="translate(384.98,0)" d="M0,30v470" style="stroke: rgb(255, 255, 255); stroke-opacity: 1; stroke-width: 1px;"/><path class="xgrid crisp" transform="translate(419.98,0)" d="M0,30v470" style="stroke: rgb(255, 255, 255); stroke-opacity: 1; stroke-width: 1px;"/><path class="xgrid crisp" transform="translate(454.99,0)" d="M0,30v470" style="stroke: rgb(255, 255, 255); stroke-opacity: 1; stroke-width: 1px;"/><path class="xgrid crisp" transform="translate(489.99,0)" d="M0,30v470" style="stroke: rgb(255, 255, 255); stroke-opacity: 1; stroke-width: 1px;"/><path class="xgrid crisp" transform="translate(525,0)" d="M0,30v470" style="stroke: rgb(255, 255, 255); stroke-opacity: 1; stroke-width: 1px;"/><path class="xgrid crisp" transform="translate(560.01,0)" d="M0,30v470" style="stroke: rgb(255, 255, 255); stroke-opacity: 1; stroke-width: 1px;"/><path class="xgrid crisp" transform="translate(595.01,0)" d="M0,30v470" style="stroke: rgb(255, 255, 255); stroke-opacity: 1; stroke-width: 1px;"/><path class="xgrid crisp" transform="translate(630.02,0)" d="M0,30v470" style="stroke: rgb(255, 255, 255); stroke-opacity: 1; stroke-width: 1px;"/><path class="xgrid crisp" transform="translate(665.03,0)" d="M0,30v470" style="stroke: rgb(255, 255, 255); stroke-opacity: 1; stroke-width: 1px;"/><path class="xgrid crisp" transform="translate(700.03,0)" d="M0,30v470" style="stroke: rgb(255, 255, 255); stroke-opacity: 1; stroke-width: 1px;"/><path class="xgrid crisp" transform="translate(735.04,0)" d="M0,30v470" style="stroke: rgb(255, 255, 255); stroke-opacity: 1; stroke-width: 1px;"/><path class="xgrid crisp" transform="translate(770.04,0)" d="M0,30v470" style="stroke: rgb(255, 255, 255); stroke-opacity: 1; stroke-width: 1px;"/><path class="xgrid crisp" transform="translate(805.05,0)" d="M0,30v470" style="stroke: rgb(255, 255, 255); stroke-opacity: 1; stroke-width: 1px;"/><path class="xgrid crisp" transform="translate(840.06,0)" d="M0,30v470" style="stroke: rgb(255, 255, 255); stroke-opacity: 1; stroke-width: 1px;"/><path class="xgrid crisp" transform="translate(875.06,0)" d="M0,30v470" style="stroke: rgb(255, 255, 255); stroke-opacity: 1; stroke-width: 1px;"/><path class="xgrid crisp" transform="translate(910.07,0)" d="M0,30v470" style="stroke: rgb(255, 255, 255); stroke-opacity: 1; stroke-width: 1px;"/><path class="xgrid crisp" transform="translate(945.08,0)" d="M0,30v470" style="stroke: rgb(255, 255, 255); stroke-opacity: 1; stroke-width: 1px;"/></g><g class="y"><path class="ygrid crisp" transform="translate(0,484.3)" d="M52,0h946" style="stroke: rgb(255, 255, 255); stroke-opacity: 1; stroke-width: 1px;"/><path class="ygrid crisp" transform="translate(0,335.12)" d="M52,0h946" style="stroke: rgb(255, 255, 255); stroke-opacity: 1; stroke-width: 1px;"/><path class="ygrid crisp" transform="translate(0,260.52)" d="M52,0h946" style="stroke: rgb(255, 255, 255); stroke-opacity: 1; stroke-width: 1px;"/><path class="ygrid crisp" transform="translate(0,185.93)" d="M52,0h946" style="stroke: rgb(255, 255, 255); stroke-opacity: 1; stroke-width: 1px;"/><path class="ygrid crisp" transform="translate(0,111.34)" d="M52,0h946" style="stroke: rgb(255, 255, 255); stroke-opacity: 1; stroke-width: 1px;"/><path class="ygrid crisp" transform="translate(0,36.75)" d="M52,0h946" style="stroke: rgb(255, 255, 255); stroke-opacity: 1; stroke-width: 1px;"/></g></g><g class="zerolinelayer"><path class="yzl zl crisp" transform="translate(0,409.71)" d="M52,0h946" style="stroke: rgb(255, 255, 255); stroke-opacity: 1; stroke-width: 1px;"/></g><path class="xlines-below"/><path class="ylines-below"/><g class="overlines-below"/><g class="xaxislayer-below"/><g class="yaxislayer-below"/><g class="overaxes-below"/><g class="plot" transform="translate(52,30)" clip-path="url('#clipebc01dxyplot')"><g class="scatterlayer mlayer"><g class="trace scatter traceaa28ac" style="stroke-miterlimit: 2; opacity: 1;"><g class="fills"/><g class="errorbars"/><g class="lines"/><g class="points"><path class="point" transform="translate(52.93,239.48)" d="M5.85,0L0,5.85L-5.85,0L0,-5.85Z" style="opacity: 1; stroke-width: 1.5px; fill: rgb(0, 119, 187); fill-opacity: 0.5; stroke: rgb(0, 119, 187); stroke-opacity: 1;"/><path class="point" transform="translate(87.93,290.2)" d="M5.85,0L0,5.85L-5.85,0L0,-5.85Z" style="opacity: 1; stroke-width: 1.5px; fill: rgb(0, 119, 187); fill-opacity: 0.5; stroke: rgb(0, 119, 187); stroke-opacity: 1;"/><path class="point" transform="translate(122.94,440.88)" d="M5.85,0L0,5.85L-5.85,0L0,-5.85Z" style="opacity: 1; stroke-width: 1.5px; fill: rgb(0, 119, 187); fill-opacity: 0.5; stroke: rgb(0, 119, 187); stroke-opacity: 1;"/><path class="point" transform="translate(157.94,328.99)" d="M5.85,0L0,5.85L-5.85,0L0,-5.85Z" style="opacity: 1; stroke-width: 1.5px; fill: rgb(0, 119, 187); fill-opacity: 0.5; stroke: rgb(0, 119, 187); stroke-opacity: 1;"/><path class="point" transform="translate(192.95,278.26)" d="M5.85,0L0,5.85L-5.85,0L0,-5.85Z" style="opacity: 1; stroke-width: 1.5px; fill: rgb(0, 119, 187); fill-opacity: 0.5; stroke: rgb(0, 119, 187); stroke-opacity: 1;"/><path class="point" transform="translate(227.96,303.63)" d="M5.85,0L0,5.85L-5.85,0L0,-5.85Z" style="opacity: 1; stroke-width: 1.5px; fill: rgb(0, 119, 187); fill-opacity: 0.5; stroke: rgb(0, 119, 187); stroke-opacity: 1;"/><path class="point" transform="translate(262.96,351.36)" d="M5.85,0L0,5.85L-5.85,0L0,-5.85Z" style="opacity: 1; stroke-width: 1.5px; fill: rgb(0, 119, 187); fill-opacity: 0.5; stroke: rgb(0, 119, 187); stroke-opacity: 1;"/><path class="point" transform="translate(297.97,387.17)" d="M5.85,0L0,5.85L-5.85,0L0,-5.85Z" style="opacity: 1; stroke-width: 1.5px; fill: rgb(0, 119, 187); fill-opacity: 0.5; stroke: rgb(0, 119, 187); stroke-opacity: 1;"/><path class="point" transform="translate(332.98,323.02)" d="M5.85,0L0,5.85L-5.85,0L0,-5.85Z" style="opacity: 1; stroke-width: 1.5px; fill: rgb(0, 119, 187); fill-opacity: 0.5; stroke: rgb(0, 119, 187); stroke-opacity: 1;"/><path class="point" transform="translate(367.98,326)" d="M5.85,0L0,5.85L-5.85,0L0,-5.85Z" style="opacity: 1; stroke-width: 1.5px; fill: rgb(0, 119, 187); fill-opacity: 0.5; stroke: rgb(0, 119, 187); stroke-opacity: 1;"/><path class="point" transform="translate(402.99,251.41)" d="M5.85,0L0,5.85L-5.85,0L0,-5.85Z" style="opacity: 1; stroke-width: 1.5px; fill: rgb(0, 119, 187); fill-opacity: 0.5; stroke: rgb(0, 119, 187); stroke-opacity: 1;"/><path class="point" transform="translate(473,185.77)" d="M5.85,0L0,5.85L-5.85,0L0,-5.85Z" style="opacity: 1; stroke-width: 1.5px; fill: rgb(0, 119, 187); fill-opacity: 0.5; stroke: rgb(0, 119, 187); stroke-opacity: 1;"/><path class="point" transform="translate(508.01,303.62)" d="M5.85,0L0,5.85L-5.85,0L0,-5.85Z" style="opacity: 1; stroke-width: 1.5px; fill: rgb(0, 119, 187); fill-opacity: 0.5; stroke: rgb(0, 119, 187); stroke-opacity: 1;"/><path class="point" transform="translate(543.01,239.48)" d="M5.85,0L0,5.85L-5.85,0L0,-5.85Z" style="opacity: 1; stroke-width: 1.5px; fill: rgb(0, 119, 187); fill-opacity: 0.5; stroke: rgb(0, 119, 187); stroke-opacity: 1;"/><path class="point" transform="translate(613.03,303.62)" d="M5.85,0L0,5.85L-5.85,0L0,-5.85Z" style="opacity: 1; stroke-width: 1.5px; fill: rgb(0, 119, 187); fill-opacity: 0.5; stroke: rgb(0, 119, 187); stroke-opacity: 1;"/><path class="point" transform="translate(648.03,235)" d="M5.85,0L0,5.85L-5.85,0L0,-5.85Z" style="opacity: 1; stroke-width: 1.5px; fill: rgb(0, 119, 187); fill-opacity: 0.5; stroke: rgb(0, 119, 187); stroke-opacity: 1;"/></g><g class="text"/></g><g class="trace scatter tracea9f6ea" style="stroke-miterlimit: 2; opacity: 1;"><g class="fills"/><g class="errorbars"/><g class="lines"/><g class="points"><path class="point" transform="translate(52.93,66.42)" d="M0,2.55l2.55,2.55l2.55,-2.55l-2.55,-2.55l2.55,-2.55l-2.55,-2.55l-2.55,2.55l-2.55,-2.55l-2.55,2.55l2.55,2.55l-2.55,2.55l2.55,2.55Z" style="opacity: 1; stroke-width: 1.5px; fill: rgb(136, 34, 85); fill-opacity: 0.5; stroke: rgb(136, 34, 85); stroke-opacity: 1;"/><path class="point" transform="translate(87.93,146.98)" d="M0,2.55l2.55,2.55l2.55,-2.55l-2.55,-2.55l2.55,-2.55l-2.55,-2.55l-2.55,2.55l-2.55,-2.55l-2.55,2.55l2.55,2.55l-2.55,2.55l2.55,2.55Z" style="opacity: 1; stroke-width: 1.5px; fill: rgb(136, 34, 85); fill-opacity: 0.5; stroke: rgb(136, 34, 85); stroke-opacity: 1;"/><path class="point" transform="translate(122.94,281.25)" d="M0,2.55l2.55,2.55l2.55,-2.55l-2.55,-2.55l2.55,-2.55l-2.55,-2.55l-2.55,2.55l-2.55,-2.55l-2.55,2.55l2.55,2.55l-2.55,2.55l2.55,2.55Z" style="opacity: 1; stroke-width: 1.5px; fill: rgb(136, 34, 85); fill-opacity: 0.5; stroke: rgb(136, 34, 85); stroke-opacity: 1;"/><path class="point" transform="translate(157.94,164.88)" d="M0,2.55l2.55,2.55l2.55,-2.55l-2.55,-2.55l2.55,-2.55l-2.55,-2.55l-2.55,2.55l-2.55,-2.55l-2.55,2.55l2.55,2.55l-2.55,2.55l2.55,2.55Z" style="opacity: 1; stroke-width: 1.5px; fill: rgb(136, 34, 85); fill-opacity: 0.5; stroke: rgb(136, 34, 85); stroke-opacity: 1;"/><path class="point" transform="translate(192.95,193.23)" d="M0,2.55l2.55,2.55l2.55,-2.55l-2.55,-2.55l2.55,-2.55l-2.55,-2.55l-2.55,2.55l-2.55,-2.55l-2.55,2.55l2.55,2.55l-2.55,2.55l2.55,2.55Z" style="opacity: 1; stroke-width: 1.5px; fill: rgb(136, 34, 85); fill-opacity: 0.5; stroke: rgb(136, 34, 85); stroke-opacity: 1;"/><path class="point" transform="translate(227.96,179.8)" d="M0,2.55l2.55,2.55l2.55,-2.55l-2.55,-2.55l2.55,-2.55l-2.55,-2.55l-2.55,2.55l-2.55,-2.55l-2.55,2.55l2.55,2.55l-2.55,2.55l2.55,2.55Z" style="opacity: 1; stroke-width: 1.5px; fill: rgb(136, 34, 85); fill-opacity: 0.5; stroke: rgb(136, 34, 85); stroke-opacity: 1;"/><path class="point" transform="translate(262.96,214.11)" d="M0,2.55l2.55,2.55l2.55,-2.55l-2.55,-2.55l2.55,-2.55l-2.55,-2.55l-2.55,2.55l-2.55,-2.55l-2.55,2.55l2.55,2.55l-2.55,2.55l2.55,2.55Z" style="opacity: 1; stroke-width: 1.5px; fill: rgb(136, 34, 85); fill-opacity: 0.5; stroke: rgb(136, 34, 85); stroke-opacity: 1;"/><path class="point" transform="translate(297.97,132.06)" d="M0,2.55l2.55,2.55l2.55,-2.55l-2.55,-2.55l2.55,-2.55l-2.55,-2.55l-2.55,2.55l-2.55,-2.55l-2.55,2.55l2.55,2.55l-2.55,2.55l2.55,2.55Z" style="opacity: 1; stroke-width: 1.5px; fill: rgb(136, 34, 85); fill-opacity: 0.5; stroke: rgb(136, 34, 85); stroke-opacity: 1;"/><path class="point" transform="translate(332.98,212.62)" d="M0,2.55l2.55,2.55l2.55,-2.55l-2.55,-2.55l2.55,-2.55l-2.55,-2.55l-2.55,2.55l-2.55,-2.55l-2.55,2.55l2.55,2.55l-2.55,2.55l2.55,2.55Z" style="opacity: 1; stroke-width: 1.5px; fill: rgb(136, 34, 85); fill-opacity: 0.5; stroke: rgb(136, 34, 85); stroke-opacity: 1;"/><path class="point" transform="translate(367.98,211.13)" d="M0,2.55l2.55,2.55l2.55,-2.55l-2.55,-2.55l2.55,-2.55l-2.55,-2.55l-2.55,2.55l-2.55,-2.55l-2.55,2.55l2.55,2.55l-2.55,2.55l2.55,2.55Z" style="opacity: 1; stroke-width: 1.5px; fill: rgb(136, 34, 85); fill-opacity: 0.5; stroke: rgb(136, 34, 85); stroke-opacity: 1;"/><path class="point" transform="translate(402.99,293.18)" d="M0,2.55l2.55,2.55l2.55,-2.55l-2.55,-2.55l2.55,-2.55l-2.55,-2.55l-2.55,2.55l-2.55,-2.55l-2.55,2.55l2.55,2.55l-2.55,2.55l2.55,2.55Z" style="opacity: 1; stroke-width: 1.5px; fill: rgb(136, 34, 85); fill-opacity: 0.5; stroke: rgb(136, 34, 85); stroke-opacity: 1;"/><path class="point" transform="translate(473,29.13)" d="M0,2.55l2.55,2.55l2.55,-2.55l-2.55,-2.55l2.55,-2.55l-2.55,-2.55l-2.55,2.55l-2.55,-2.55l-2.55,2.55l2.55,2.55l-2.55,2.55l2.55,2.55Z" style="opacity: 1; stroke-width: 1.5px; fill: rgb(136, 34, 85); fill-opacity: 0.5; stroke: rgb(136, 34, 85); stroke-opacity: 1;"/><path class="point" transform="translate(508.01,248.43)" d="M0,2.55l2.55,2.55l2.55,-2.55l-2.55,-2.55l2.55,-2.55l-2.55,-2.55l-2.55,2.55l-2.55,-2.55l-2.55,2.55l2.55,2.55l-2.55,2.55l2.55,2.55Z" style="opacity: 1; stroke-width: 1.5px; fill: rgb(136, 34, 85); fill-opacity: 0.5; stroke: rgb(136, 34, 85); stroke-opacity: 1;"/><path class="point" transform="translate(543.01,232.02)" d="M0,2.55l2.55,2.55l2.55,-2.55l-2.55,-2.55l2.55,-2.55l-2.55,-2.55l-2.55,2.55l-2.55,-2.55l-2.55,2.55l2.55,2.55l-2.55,2.55l2.55,2.55Z" style="opacity: 1; stroke-width: 1.5px; fill: rgb(136, 34, 85); fill-opacity: 0.5; stroke: rgb(136, 34, 85); stroke-opacity: 1;"/><path class="point" transform="translate(613.03,366.28)" d="M0,2.55l2.55,2.55l2.55,-2.55l-2.55,-2.55l2.55,-2.55l-2.55,-2.55l-2.55,2.55l-2.55,-2.55l-2.55,2.55l2.55,2.55l-2.55,2.55l2.55,2.55Z" style="opacity: 1; stroke-width: 1.5px; fill: rgb(136, 34, 85); fill-opacity: 0.5; stroke: rgb(136, 34, 85); stroke-opacity: 1;"/><path class="point" transform="translate(648.03,108.19)" d="M0,2.55l2.55,2.55l2.55,-2.55l-2.55,-2.55l2.55,-2.55l-2.55,-2.55l-2.55,2.55l-2.55,-2.55l-2.55,2.55l2.55,2.55l-2.55,2.55l2.55,2.55Z" style="opacity: 1; stroke-width: 1.5px; fill: rgb(136, 34, 85); fill-opacity: 0.5; stroke: rgb(136, 34, 85); stroke-opacity: 1;"/><path class="point" transform="translate(718.04,387.17)" d="M0,2.55l2.55,2.55l2.55,-2.55l-2.55,-2.55l2.55,-2.55l-2.55,-2.55l-2.55,2.55l-2.55,-2.55l-2.55,2.55l2.55,2.55l-2.55,2.55l2.55,2.55Z" style="opacity: 1; stroke-width: 1.5px; fill: rgb(136, 34, 85); fill-opacity: 0.5; stroke: rgb(136, 34, 85); stroke-opacity: 1;"/></g><g class="text"/></g><g class="trace scatter trace983adc" style="stroke-miterlimit: 2; opacity: 1;"><g class="fills"/><g class="errorbars"/><g class="lines"/><g class="points"><path class="point" transform="translate(52.93,118.64)" d="M4.5,0A4.5,4.5 0 1,1 0,-4.5A4.5,4.5 0 0,1 4.5,0Z" style="opacity: 1; stroke-width: 1.5px; fill: rgb(230, 118, 7); fill-opacity: 0.5; stroke: rgb(230, 118, 7); stroke-opacity: 1;"/><path class="point" transform="translate(87.93,173.83)" d="M4.5,0A4.5,4.5 0 1,1 0,-4.5A4.5,4.5 0 0,1 4.5,0Z" style="opacity: 1; stroke-width: 1.5px; fill: rgb(230, 118, 7); fill-opacity: 0.5; stroke: rgb(230, 118, 7); stroke-opacity: 1;"/><path class="point" transform="translate(122.94,318.54)" d="M4.5,0A4.5,4.5 0 1,1 0,-4.5A4.5,4.5 0 0,1 4.5,0Z" style="opacity: 1; stroke-width: 1.5px; fill: rgb(230, 118, 7); fill-opacity: 0.5; stroke: rgb(230, 118, 7); stroke-opacity: 1;"/><path class="point" transform="translate(157.94,187.26)" d="M4.5,0A4.5,4.5 0 1,1 0,-4.5A4.5,4.5 0 0,1 4.5,0Z" style="opacity: 1; stroke-width: 1.5px; fill: rgb(230, 118, 7); fill-opacity: 0.5; stroke: rgb(230, 118, 7); stroke-opacity: 1;"/><path class="point" transform="translate(192.95,242.46)" d="M4.5,0A4.5,4.5 0 1,1 0,-4.5A4.5,4.5 0 0,1 4.5,0Z" style="opacity: 1; stroke-width: 1.5px; fill: rgb(230, 118, 7); fill-opacity: 0.5; stroke: rgb(230, 118, 7); stroke-opacity: 1;"/><path class="point" transform="translate(227.96,175.33)" d="M4.5,0A4.5,4.5 0 1,1 0,-4.5A4.5,4.5 0 0,1 4.5,0Z" style="opacity: 1; stroke-width: 1.5px; fill: rgb(230, 118, 7); fill-opacity: 0.5; stroke: rgb(230, 118, 7); stroke-opacity: 1;"/><path class="point" transform="translate(262.96,226.05)" d="M4.5,0A4.5,4.5 0 1,1 0,-4.5A4.5,4.5 0 0,1 4.5,0Z" style="opacity: 1; stroke-width: 1.5px; fill: rgb(230, 118, 7); fill-opacity: 0.5; stroke: rgb(230, 118, 7); stroke-opacity: 1;"/><path class="point" transform="translate(297.97,154.44)" d="M4.5,0A4.5,4.5 0 1,1 0,-4.5A4.5,4.5 0 0,1 4.5,0Z" style="opacity: 1; stroke-width: 1.5px; fill: rgb(230, 118, 7); fill-opacity: 0.5; stroke: rgb(230, 118, 7); stroke-opacity: 1;"/><path class="point" transform="translate(332.98,242.46)" d="M4.5,0A4.5,4.5 0 1,1 0,-4.5A4.5,4.5 0 0,1 4.5,0Z" style="opacity: 1; stroke-width: 1.5px; fill: rgb(230, 118, 7); fill-opacity: 0.5; stroke: rgb(230, 118, 7); stroke-opacity: 1;"/><path class="point" transform="translate(367.98,217.1)" d="M4.5,0A4.5,4.5 0 1,1 0,-4.5A4.5,4.5 0 0,1 4.5,0Z" style="opacity: 1; stroke-width: 1.5px; fill: rgb(230, 118, 7); fill-opacity: 0.5; stroke: rgb(230, 118, 7); stroke-opacity: 1;"/><path class="point" transform="translate(402.99,320.04)" d="M4.5,0A4.5,4.5 0 1,1 0,-4.5A4.5,4.5 0 0,1 4.5,0Z" style="opacity: 1; stroke-width: 1.5px; fill: rgb(230, 118, 7); fill-opacity: 0.5; stroke: rgb(230, 118, 7); stroke-opacity: 1;"/><path class="point" transform="translate(473,78.36)" d="M4.5,0A4.5,4.5 0 1,1 0,-4.5A4.5,4.5 0 0,1 4.5,0Z" style="opacity: 1; stroke-width: 1.5px; fill: rgb(230, 118, 7); fill-opacity: 0.5; stroke: rgb(230, 118, 7); stroke-opacity: 1;"/><path class="point" transform="translate(508.01,257.38)" d="M4.5,0A4.5,4.5 0 1,1 0,-4.5A4.5,4.5 0 0,1 4.5,0Z" style="opacity: 1; stroke-width: 1.5px; fill: rgb(230, 118, 7); fill-opacity: 0.5; stroke: rgb(230, 118, 7); stroke-opacity: 1;"/><path class="point" transform="translate(543.01,263.35)" d="M4.5,0A4.5,4.5 0 1,1 0,-4.5A4.5,4.5 0 0,1 4.5,0Z" style="opacity: 1; stroke-width: 1.5px; fill: rgb(230, 118, 7); fill-opacity: 0.5; stroke: rgb(230, 118, 7); stroke-opacity: 1;"/><path class="point" transform="translate(613.03,399.1)" d="M4.5,0A4.5,4.5 0 1,1 0,-4.5A4.5,4.5 0 0,1 4.5,0Z" style="opacity: 1; stroke-width: 1.5px; fill: rgb(230, 118, 7); fill-opacity: 0.5; stroke: rgb(230, 118, 7); stroke-opacity: 1;"/><path class="point" transform="translate(648.03,142.51)" d="M4.5,0A4.5,4.5 0 1,1 0,-4.5A4.5,4.5 0 0,1 4.5,0Z" style="opacity: 1; stroke-width: 1.5px; fill: rgb(230, 118, 7); fill-opacity: 0.5; stroke: rgb(230, 118, 7); stroke-opacity: 1;"/><path class="point" transform="translate(718.04,388.66)" d="M4.5,0A4.5,4.5 0 1,1 0,-4.5A4.5,4.5 0 0,1 4.5,0Z" style="opacity: 1; stroke-width: 1.5px; fill: rgb(230, 118, 7); fill-opacity: 0.5; stroke: rgb(230, 118, 7); stroke-opacity: 1;"/></g><g class="text"/></g><g class="trace scatter trace2b88b3" style="stroke-miterlimit: 2; opacity: 1;"><g class="fills"/><g class="errorbars"/><g class="lines"/><g class="points"><path class="point" transform="translate(437.99,176.82)" d="M5.85,0L0,5.85L-5.85,0L0,-5.85Z" style="opacity: 1; stroke-width: 1.5px; fill: rgb(136, 204, 238); fill-opacity: 0.5; stroke: rgb(136, 204, 238); stroke-opacity: 1;"/><path class="point" transform="translate(578.02,411.04)" d="M5.85,0L0,5.85L-5.85,0L0,-5.85Z" style="opacity: 1; stroke-width: 1.5px; fill: rgb(136, 204, 238); fill-opacity: 0.5; stroke: rgb(136, 204, 238); stroke-opacity: 1;"/><path class="point" transform="translate(683.04,300.64)" d="M5.85,0L0,5.85L-5.85,0L0,-5.85Z" style="opacity: 1; stroke-width: 1.5px; fill: rgb(136, 204, 238); fill-opacity: 0.5; stroke: rgb(136, 204, 238); stroke-opacity: 1;"/><path class="point" transform="translate(893.08,200.69)" d="M5.85,0L0,5.85L-5.85,0L0,-5.85Z" style="opacity: 1; stroke-width: 1.5px; fill: rgb(136, 204, 238); fill-opacity: 0.5; stroke: rgb(136, 204, 238); stroke-opacity: 1;"/></g><g class="text"/></g><g class="trace scatter trace3f39fa" style="stroke-miterlimit: 2; opacity: 1;"><g class="fills"/><g class="errorbars"/><g class="lines"/><g class="points"><path class="point" transform="translate(437.99,170.85)" d="M0,2.55l2.55,2.55l2.55,-2.55l-2.55,-2.55l2.55,-2.55l-2.55,-2.55l-2.55,2.55l-2.55,-2.55l-2.55,2.55l2.55,2.55l-2.55,2.55l2.55,2.55Z" style="opacity: 1; stroke-width: 1.5px; fill: rgb(204, 102, 119); fill-opacity: 0.5; stroke: rgb(204, 102, 119); stroke-opacity: 1;"/><path class="point" transform="translate(578.02,312.58)" d="M0,2.55l2.55,2.55l2.55,-2.55l-2.55,-2.55l2.55,-2.55l-2.55,-2.55l-2.55,2.55l-2.55,-2.55l-2.55,2.55l2.55,2.55l-2.55,2.55l2.55,2.55Z" style="opacity: 1; stroke-width: 1.5px; fill: rgb(204, 102, 119); fill-opacity: 0.5; stroke: rgb(204, 102, 119); stroke-opacity: 1;"/><path class="point" transform="translate(683.04,309.59)" d="M0,2.55l2.55,2.55l2.55,-2.55l-2.55,-2.55l2.55,-2.55l-2.55,-2.55l-2.55,2.55l-2.55,-2.55l-2.55,2.55l2.55,2.55l-2.55,2.55l2.55,2.55Z" style="opacity: 1; stroke-width: 1.5px; fill: rgb(204, 102, 119); fill-opacity: 0.5; stroke: rgb(204, 102, 119); stroke-opacity: 1;"/><path class="point" transform="translate(788.06,305.12)" d="M0,2.55l2.55,2.55l2.55,-2.55l-2.55,-2.55l2.55,-2.55l-2.55,-2.55l-2.55,2.55l-2.55,-2.55l-2.55,2.55l2.55,2.55l-2.55,2.55l2.55,2.55Z" style="opacity: 1; stroke-width: 1.5px; fill: rgb(204, 102, 119); fill-opacity: 0.5; stroke: rgb(204, 102, 119); stroke-opacity: 1;"/><path class="point" transform="translate(858.07,379.71)" d="M0,2.55l2.55,2.55l2.55,-2.55l-2.55,-2.55l2.55,-2.55l-2.55,-2.55l-2.55,2.55l-2.55,-2.55l-2.55,2.55l2.55,2.55l-2.55,2.55l2.55,2.55Z" style="opacity: 1; stroke-width: 1.5px; fill: rgb(204, 102, 119); fill-opacity: 0.5; stroke: rgb(204, 102, 119); stroke-opacity: 1;"/><path class="point" transform="translate(893.08,187.26)" d="M0,2.55l2.55,2.55l2.55,-2.55l-2.55,-2.55l2.55,-2.55l-2.55,-2.55l-2.55,2.55l-2.55,-2.55l-2.55,2.55l2.55,2.55l-2.55,2.55l2.55,2.55Z" style="opacity: 1; stroke-width: 1.5px; fill: rgb(204, 102, 119); fill-opacity: 0.5; stroke: rgb(204, 102, 119); stroke-opacity: 1;"/></g><g class="text"/></g><g class="trace scatter tracedace9d" style="stroke-miterlimit: 2; opacity: 1;"><g class="fills"/><g class="errorbars"/><g class="lines"/><g class="points"><path class="point" transform="translate(437.99,181.29)" d="M4.5,0A4.5,4.5 0 1,1 0,-4.5A4.5,4.5 0 0,1 4.5,0Z" style="opacity: 1; stroke-width: 1.5px; fill: rgb(235, 171, 108); fill-opacity: 0.5; stroke: rgb(235, 171, 108); stroke-opacity: 1;"/><path class="point" transform="translate(578.02,318.54)" d="M4.5,0A4.5,4.5 0 1,1 0,-4.5A4.5,4.5 0 0,1 4.5,0Z" style="opacity: 1; stroke-width: 1.5px; fill: rgb(235, 171, 108); fill-opacity: 0.5; stroke: rgb(235, 171, 108); stroke-opacity: 1;"/><path class="point" transform="translate(683.04,333.46)" d="M4.5,0A4.5,4.5 0 1,1 0,-4.5A4.5,4.5 0 0,1 4.5,0Z" style="opacity: 1; stroke-width: 1.5px; fill: rgb(235, 171, 108); fill-opacity: 0.5; stroke: rgb(235, 171, 108); stroke-opacity: 1;"/><path class="point" transform="translate(788.06,346.89)" d="M4.5,0A4.5,4.5 0 1,1 0,-4.5A4.5,4.5 0 0,1 4.5,0Z" style="opacity: 1; stroke-width: 1.5px; fill: rgb(235, 171, 108); fill-opacity: 0.5; stroke: rgb(235, 171, 108); stroke-opacity: 1;"/><path class="point" transform="translate(858.07,406.56)" d="M4.5,0A4.5,4.5 0 1,1 0,-4.5A4.5,4.5 0 0,1 4.5,0Z" style="opacity: 1; stroke-width: 1.5px; fill: rgb(235, 171, 108); fill-opacity: 0.5; stroke: rgb(235, 171, 108); stroke-opacity: 1;"/><path class="point" transform="translate(893.08,249.92)" d="M4.5,0A4.5,4.5 0 1,1 0,-4.5A4.5,4.5 0 0,1 4.5,0Z" style="opacity: 1; stroke-width: 1.5px; fill: rgb(235, 171, 108); fill-opacity: 0.5; stroke: rgb(235, 171, 108); stroke-opacity: 1;"/></g><g class="text"/></g></g></g><g class="overplot"/><path class="xlines-above crisp" d="M50,501H1000M50,29H1000" style="fill: none; stroke-width: 2px; stroke: rgb(0, 0, 0); stroke-opacity: 1;"/><path class="ylines-above crisp" d="M51,30V500M999,30V500" style="fill: none; stroke-width: 2px; stroke: rgb(0, 0, 0); stroke-opacity: 1;"/><g class="overlines-above"/><g class="xaxislayer-above"><path class="xtick ticks crisp" d="M0,502v5" transform="translate(104.93,0)" style="stroke: rgb(51, 51, 51); stroke-opacity: 1; stroke-width: 2px;"/><path class="xtick ticks crisp" d="M0,502v5" transform="translate(139.93,0)" style="stroke: rgb(51, 51, 51); stroke-opacity: 1; stroke-width: 2px;"/><path class="xtick ticks crisp" d="M0,502v5" transform="translate(174.94,0)" style="stroke: rgb(51, 51, 51); stroke-opacity: 1; stroke-width: 2px;"/><path class="xtick ticks crisp" d="M0,502v5" transform="translate(209.94,0)" style="stroke: rgb(51, 51, 51); stroke-opacity: 1; stroke-width: 2px;"/><path class="xtick ticks crisp" d="M0,502v5" transform="translate(244.95,0)" style="stroke: rgb(51, 51, 51); stroke-opacity: 1; stroke-width: 2px;"/><path class="xtick ticks crisp" d="M0,502v5" transform="translate(279.96000000000004,0)" style="stroke: rgb(51, 51, 51); stroke-opacity: 1; stroke-width: 2px;"/><path class="xtick ticks crisp" d="M0,502v5" transform="translate(314.96,0)" style="stroke: rgb(51, 51, 51); stroke-opacity: 1; stroke-width: 2px;"/><path class="xtick ticks crisp" d="M0,502v5" transform="translate(349.97,0)" style="stroke: rgb(51, 51, 51); stroke-opacity: 1; stroke-width: 2px;"/><path class="xtick ticks crisp" d="M0,502v5" transform="translate(384.98,0)" style="stroke: rgb(51, 51, 51); stroke-opacity: 1; stroke-width: 2px;"/><path class="xtick ticks crisp" d="M0,502v5" transform="translate(419.98,0)" style="stroke: rgb(51, 51, 51); stroke-opacity: 1; stroke-width: 2px;"/><path class="xtick ticks crisp" d="M0,502v5" transform="translate(454.99,0)" style="stroke: rgb(51, 51, 51); stroke-opacity: 1; stroke-width: 2px;"/><path class="xtick ticks crisp" d="M0,502v5" transform="translate(489.99,0)" style="stroke: rgb(51, 51, 51); stroke-opacity: 1; stroke-width: 2px;"/><path class="xtick ticks crisp" d="M0,502v5" transform="translate(525,0)" style="stroke: rgb(51, 51, 51); stroke-opacity: 1; stroke-width: 2px;"/><path class="xtick ticks crisp" d="M0,502v5" transform="translate(560.01,0)" style="stroke: rgb(51, 51, 51); stroke-opacity: 1; stroke-width: 2px;"/><path class="xtick ticks crisp" d="M0,502v5" transform="translate(595.01,0)" style="stroke: rgb(51, 51, 51); stroke-opacity: 1; stroke-width: 2px;"/><path class="xtick ticks crisp" d="M0,502v5" transform="translate(630.02,0)" style="stroke: rgb(51, 51, 51); stroke-opacity: 1; stroke-width: 2px;"/><path class="xtick ticks crisp" d="M0,502v5" transform="translate(665.03,0)" style="stroke: rgb(51, 51, 51); stroke-opacity: 1; stroke-width: 2px;"/><path class="xtick ticks crisp" d="M0,502v5" transform="translate(700.03,0)" style="stroke: rgb(51, 51, 51); stroke-opacity: 1; stroke-width: 2px;"/><path class="xtick ticks crisp" d="M0,502v5" transform="translate(735.04,0)" style="stroke: rgb(51, 51, 51); stroke-opacity: 1; stroke-width: 2px;"/><path class="xtick ticks crisp" d="M0,502v5" transform="translate(770.04,0)" style="stroke: rgb(51, 51, 51); stroke-opacity: 1; stroke-width: 2px;"/><path class="xtick ticks crisp" d="M0,502v5" transform="translate(805.05,0)" style="stroke: rgb(51, 51, 51); stroke-opacity: 1; stroke-width: 2px;"/><path class="xtick ticks crisp" d="M0,502v5" transform="translate(840.06,0)" style="stroke: rgb(51, 51, 51); stroke-opacity: 1; stroke-width: 2px;"/><path class="xtick ticks crisp" d="M0,502v5" transform="translate(875.06,0)" style="stroke: rgb(51, 51, 51); stroke-opacity: 1; stroke-width: 2px;"/><path class="xtick ticks crisp" d="M0,502v5" transform="translate(910.07,0)" style="stroke: rgb(51, 51, 51); stroke-opacity: 1; stroke-width: 2px;"/><path class="xtick ticks crisp" d="M0,502v5" transform="translate(945.08,0)" style="stroke: rgb(51, 51, 51); stroke-opacity: 1; stroke-width: 2px;"/><g class="xtick"><text text-anchor="end" x="0" y="521.4" transform="translate(104.93,0) rotate(-45,0,515.4)" style="font-family: 'Open Sans', verdana, arial, sans-serif; font-size: 12px; fill: rgb(51, 51, 51); fill-opacity: 1; white-space: pre;">Austria</text></g><g class="xtick"><text text-anchor="end" x="0" y="521.4" transform="translate(139.93,0) rotate(-45,0,515.4)" style="font-family: 'Open Sans', verdana, arial, sans-serif; font-size: 12px; fill: rgb(51, 51, 51); fill-opacity: 1; white-space: pre;">Belgium</text></g><g class="xtick"><text text-anchor="end" x="0" y="521.4" transform="translate(174.94,0) rotate(-45,0,515.4)" style="font-family: 'Open Sans', verdana, arial, sans-serif; font-size: 12px; fill: rgb(51, 51, 51); fill-opacity: 1; white-space: pre;">Finland</text></g><g class="xtick"><text text-anchor="end" x="0" y="521.4" transform="translate(209.94,0) rotate(-45,0,515.4)" style="font-family: 'Open Sans', verdana, arial, sans-serif; font-size: 12px; fill: rgb(51, 51, 51); fill-opacity: 1; white-space: pre;">France</text></g><g class="xtick"><text text-anchor="end" x="0" y="521.4" transform="translate(244.95,0) rotate(-45,0,515.4)" style="font-family: 'Open Sans', verdana, arial, sans-serif; font-size: 12px; fill: rgb(51, 51, 51); fill-opacity: 1; white-space: pre;">Germany</text></g><g class="xtick"><text text-anchor="end" x="0" y="521.4" transform="translate(279.96000000000004,0) rotate(-45,0,515.4)" style="font-family: 'Open Sans', verdana, arial, sans-serif; font-size: 12px; fill: rgb(51, 51, 51); fill-opacity: 1; white-space: pre;">Luxembourg</text></g><g class="xtick"><text text-anchor="end" x="0" y="521.4" transform="translate(314.96,0) rotate(-45,0,515.4)" style="font-family: 'Open Sans', verdana, arial, sans-serif; font-size: 12px; fill: rgb(51, 51, 51); fill-opacity: 1; white-space: pre;">Norway</text></g><g class="xtick"><text text-anchor="end" x="0" y="521.4" transform="translate(349.97,0) rotate(-45,0,515.4)" style="font-family: 'Open Sans', verdana, arial, sans-serif; font-size: 12px; fill: rgb(51, 51, 51); fill-opacity: 1; white-space: pre;">Sweden</text></g><g class="xtick"><text text-anchor="end" x="0" y="521.4" transform="translate(384.98,0) rotate(-45,0,515.4)" style="font-family: 'Open Sans', verdana, arial, sans-serif; font-size: 12px; fill: rgb(51, 51, 51); fill-opacity: 1; white-space: pre;">Switzerland</text></g><g class="xtick"><text text-anchor="end" x="0" y="521.4" transform="translate(419.98,0) rotate(-45,0,515.4)" style="font-family: 'Open Sans', verdana, arial, sans-serif; font-size: 12px; fill: rgb(51, 51, 51); fill-opacity: 1; white-space: pre;">UK</text></g><g class="xtick"><text text-anchor="end" x="0" y="521.4" transform="translate(454.99,0) rotate(-45,0,515.4)" style="font-family: 'Open Sans', verdana, arial, sans-serif; font-size: 12px; fill: rgb(51, 51, 51); fill-opacity: 1; white-space: pre;">Greece</text></g><g class="xtick"><text text-anchor="end" x="0" y="521.4" transform="translate(489.99,0) rotate(-45,0,515.4)" style="font-family: 'Open Sans', verdana, arial, sans-serif; font-size: 12px; fill: rgb(51, 51, 51); fill-opacity: 1; white-space: pre;">Malta</text></g><g class="xtick"><text text-anchor="end" x="0" y="521.4" transform="translate(525,0) rotate(-45,0,515.4)" style="font-family: 'Open Sans', verdana, arial, sans-serif; font-size: 12px; fill: rgb(51, 51, 51); fill-opacity: 1; white-space: pre;">Italy</text></g><g class="xtick"><text text-anchor="end" x="0" y="521.4" transform="translate(560.01,0) rotate(-45,0,515.4)" style="font-family: 'Open Sans', verdana, arial, sans-serif; font-size: 12px; fill: rgb(51, 51, 51); fill-opacity: 1; white-space: pre;">Portugal</text></g><g class="xtick"><text text-anchor="end" x="0" y="521.4" transform="translate(595.01,0) rotate(-45,0,515.4)" style="font-family: 'Open Sans', verdana, arial, sans-serif; font-size: 12px; fill: rgb(51, 51, 51); fill-opacity: 1; white-space: pre;">Spain</text></g><g class="xtick"><text text-anchor="end" x="0" y="521.4" transform="translate(630.02,0) rotate(-45,0,515.4)" style="font-family: 'Open Sans', verdana, arial, sans-serif; font-size: 12px; fill: rgb(51, 51, 51); fill-opacity: 1; white-space: pre;">Croatia</text></g><g class="xtick"><text text-anchor="end" x="0" y="521.4" transform="translate(665.03,0) rotate(-45,0,515.4)" style="font-family: 'Open Sans', verdana, arial, sans-serif; font-size: 12px; fill: rgb(51, 51, 51); fill-opacity: 1; white-space: pre;">Czechia</text></g><g class="xtick"><text text-anchor="end" x="0" y="521.4" transform="translate(700.03,0) rotate(-45,0,515.4)" style="font-family: 'Open Sans', verdana, arial, sans-serif; font-size: 12px; fill: rgb(51, 51, 51); fill-opacity: 1; white-space: pre;">Estonia</text></g><g class="xtick"><text text-anchor="end" x="0" y="521.4" transform="translate(735.04,0) rotate(-45,0,515.4)" style="font-family: 'Open Sans', verdana, arial, sans-serif; font-size: 12px; fill: rgb(51, 51, 51); fill-opacity: 1; white-space: pre;">Hungary</text></g><g class="xtick"><text text-anchor="end" x="0" y="521.4" transform="translate(770.04,0) rotate(-45,0,515.4)" style="font-family: 'Open Sans', verdana, arial, sans-serif; font-size: 12px; fill: rgb(51, 51, 51); fill-opacity: 1; white-space: pre;">Latvia</text></g><g class="xtick"><text text-anchor="end" x="0" y="521.4" transform="translate(805.05,0) rotate(-45,0,515.4)" style="font-family: 'Open Sans', verdana, arial, sans-serif; font-size: 12px; fill: rgb(51, 51, 51); fill-opacity: 1; white-space: pre;">Lithuania</text></g><g class="xtick"><text text-anchor="end" x="0" y="521.4" transform="translate(840.06,0) rotate(-45,0,515.4)" style="font-family: 'Open Sans', verdana, arial, sans-serif; font-size: 12px; fill: rgb(51, 51, 51); fill-opacity: 1; white-space: pre;">Poland</text></g><g class="xtick"><text text-anchor="end" x="0" y="521.4" transform="translate(875.06,0) rotate(-45,0,515.4)" style="font-family: 'Open Sans', verdana, arial, sans-serif; font-size: 12px; fill: rgb(51, 51, 51); fill-opacity: 1; white-space: pre;">Romania</text></g><g class="xtick"><text text-anchor="end" x="0" y="521.4" transform="translate(910.07,0) rotate(-45,0,515.4)" style="font-family: 'Open Sans', verdana, arial, sans-serif; font-size: 12px; fill: rgb(51, 51, 51); fill-opacity: 1; white-space: pre;">Slovakia</text></g><g class="xtick"><text text-anchor="end" x="0" y="521.4" transform="translate(945.08,0) rotate(-45,0,515.4)" style="font-family: 'Open Sans', verdana, arial, sans-serif; font-size: 12px; fill: rgb(51, 51, 51); fill-opacity: 1; white-space: pre;">Slovenia</text></g></g><g class="yaxislayer-above"><path class="ytick ticks crisp" d="M50,0h-5" transform="translate(0,484.3)" style="stroke: rgb(51, 51, 51); stroke-opacity: 1; stroke-width: 2px;"/><path class="ytick ticks crisp" d="M50,0h-5" transform="translate(0,409.71)" style="stroke: rgb(51, 51, 51); stroke-opacity: 1; stroke-width: 2px;"/><path class="ytick ticks crisp" d="M50,0h-5" transform="translate(0,335.12)" style="stroke: rgb(51, 51, 51); stroke-opacity: 1; stroke-width: 2px;"/><path class="ytick ticks crisp" d="M50,0h-5" transform="translate(0,260.52)" style="stroke: rgb(51, 51, 51); stroke-opacity: 1; stroke-width: 2px;"/><path class="ytick ticks crisp" d="M50,0h-5" transform="translate(0,185.93)" style="stroke: rgb(51, 51, 51); stroke-opacity: 1; stroke-width: 2px;"/><path class="ytick ticks crisp" d="M50,0h-5" transform="translate(0,111.34)" style="stroke: rgb(51, 51, 51); stroke-opacity: 1; stroke-width: 2px;"/><path class="ytick ticks crisp" d="M50,0h-5" transform="translate(0,36.75)" style="stroke: rgb(51, 51, 51); stroke-opacity: 1; stroke-width: 2px;"/><g class="ytick"><text text-anchor="end" x="42.6" y="4.199999999999999" transform="translate(0,484.3)" style="font-family: 'Open Sans', verdana, arial, sans-serif; font-size: 12px; fill: rgb(51, 51, 51); fill-opacity: 1; white-space: pre;">−5</text></g><g class="ytick"><text text-anchor="end" x="42.6" y="4.199999999999999" transform="translate(0,409.71)" style="font-family: 'Open Sans', verdana, arial, sans-serif; font-size: 12px; fill: rgb(51, 51, 51); fill-opacity: 1; white-space: pre;">0</text></g><g class="ytick"><text text-anchor="end" x="42.6" y="4.199999999999999" transform="translate(0,335.12)" style="font-family: 'Open Sans', verdana, arial, sans-serif; font-size: 12px; fill: rgb(51, 51, 51); fill-opacity: 1; white-space: pre;">5</text></g><g class="ytick"><text text-anchor="end" x="42.6" y="4.199999999999999" transform="translate(0,260.52)" style="font-family: 'Open Sans', verdana, arial, sans-serif; font-size: 12px; fill: rgb(51, 51, 51); fill-opacity: 1; white-space: pre;">10</text></g><g class="ytick"><text text-anchor="end" x="42.6" y="4.199999999999999" transform="translate(0,185.93)" style="font-family: 'Open Sans', verdana, arial, sans-serif; font-size: 12px; fill: rgb(51, 51, 51); fill-opacity: 1; white-space: pre;">15</text></g><g class="ytick"><text text-anchor="end" x="42.6" y="4.199999999999999" transform="translate(0,111.34)" style="font-family: 'Open Sans', verdana, arial, sans-serif; font-size: 12px; fill: rgb(51, 51, 51); fill-opacity: 1; white-space: pre;">20</text></g><g class="ytick"><text text-anchor="end" x="42.6" y="4.199999999999999" transform="translate(0,36.75)" style="font-family: 'Open Sans', verdana, arial, sans-serif; font-size: 12px; fill: rgb(51, 51, 51); fill-opacity: 1; white-space: pre;">25</text></g></g><g class="overaxes-above"/></g></g><g class="polarlayer"/><g class="ternarylayer"/><g class="geolayer"/><g class="funnelarealayer"/><g class="pielayer"/><g class="treemaplayer"/><g class="sunburstlayer"/><g class="glimages"/><defs id="topdefs-ebc01d"><g class="clips"/><clipPath id="legendebc01d"><rect width="162" height="83" x="2" y="2"/></clipPath></defs><g class="layer-above"><g class="imagelayer"/><g class="shapelayer"><path data-index="0" fill-rule="evenodd" d="M52,409.71L998,409.71" clip-path="url('#clipebc01dy')" style="opacity: 0.3; stroke: rgb(0, 0, 0); stroke-opacity: 1; fill: rgb(0, 0, 0); fill-opacity: 1; stroke-width: 1px;"/><path data-index="1" fill-rule="evenodd" d="M437.48,500L437.48,30" clip-path="url('#clipebc01dx')" style="opacity: 0.3; stroke: rgb(0, 0, 0); stroke-opacity: 1; fill: rgb(0, 0, 0); fill-opacity: 1; stroke-dasharray: 9px, 9px; stroke-width: 1px;"/><path data-index="2" fill-rule="evenodd" d="M612.52,500L612.52,30" clip-path="url('#clipebc01dx')" style="opacity: 0.3; stroke: rgb(0, 0, 0); stroke-opacity: 1; fill: rgb(0, 0, 0); fill-opacity: 1; stroke-dasharray: 9px, 9px; stroke-width: 1px;"/></g></g><g class="infolayer"><g class="legend" pointer-events="all" transform="translate(66.19,44.10000000000001)"><rect class="bg" shape-rendering="crispEdges" width="164" height="85" x="1" y="1" style="stroke: rgb(0, 0, 0); stroke-opacity: 1; fill: rgb(255, 255, 255); fill-opacity: 1; stroke-width: 2px;"/><g class="scrollbox" transform="" clip-path="url('#legendebc01d')"><text class="legendtitletext" text-anchor="start" x="4" y="17.6" style="font-family: 'Open Sans', verdana, arial, sans-serif; font-size: 12px; fill: rgb(51, 51, 51); fill-opacity: 1; white-space: pre;"><tspan style="font-weight:bold"> Immigrant women vs. </tspan></text><g class="groups"><g class="traces" transform="translate(2,32.1)" style="opacity: 1;"><text class="legendtext" text-anchor="start" x="40" y="4.680000000000001" style="font-family: 'Open Sans', verdana, arial, sans-serif; font-size: 12px; fill: rgb(51, 51, 51); fill-opacity: 1; white-space: pre;">Native women</text><g class="layers" style="opacity: 1;"><g class="legendfill"/><g class="legendlines"/><g class="legendsymbols"><g class="legendpoints"><path class="scatterpts" transform="translate(20,0)" d="M4.5,0A4.5,4.5 0 1,1 0,-4.5A4.5,4.5 0 0,1 4.5,0Z" style="opacity: 1; stroke-width: 1.5px; fill: rgb(230, 118, 7); fill-opacity: 0.5; stroke: rgb(230, 118, 7); stroke-opacity: 1;"/></g></g></g><rect class="legendtoggle" x="0" y="-9.5" width="134.25" height="19" style="fill: rgb(0, 0, 0); fill-opacity: 0;"/></g><g class="traces" transform="translate(2,51.1)" style="opacity: 1;"><text class="legendtext" text-anchor="start" x="40" y="4.680000000000001" style="font-family: 'Open Sans', verdana, arial, sans-serif; font-size: 12px; fill: rgb(51, 51, 51); fill-opacity: 1; white-space: pre;">Native men</text><g class="layers" style="opacity: 1;"><g class="legendfill"/><g class="legendlines"/><g class="legendsymbols"><g class="legendpoints"><path class="scatterpts" transform="translate(20,0)" d="M0,2.55l2.55,2.55l2.55,-2.55l-2.55,-2.55l2.55,-2.55l-2.55,-2.55l-2.55,2.55l-2.55,-2.55l-2.55,2.55l2.55,2.55l-2.55,2.55l2.55,2.55Z" style="opacity: 1; stroke-width: 1.5px; fill: rgb(136, 34, 85); fill-opacity: 0.5; stroke: rgb(136, 34, 85); stroke-opacity: 1;"/></g></g></g><rect class="legendtoggle" x="0" y="-9.5" width="134.25" height="19" style="fill: rgb(0, 0, 0); fill-opacity: 0;"/></g><g class="traces" transform="translate(2,70.1)" style="opacity: 1;"><text class="legendtext" text-anchor="start" x="40" y="4.680000000000001" style="font-family: 'Open Sans', verdana, arial, sans-serif; font-size: 12px; fill: rgb(51, 51, 51); fill-opacity: 1; white-space: pre;">Immigrant men</text><g class="layers" style="opacity: 1;"><g class="legendfill"/><g class="legendlines"/><g class="legendsymbols"><g class="legendpoints"><path class="scatterpts" transform="translate(20,0)" d="M5.85,0L0,5.85L-5.85,0L0,-5.85Z" style="opacity: 1; stroke-width: 1.5px; fill: rgb(0, 119, 187); fill-opacity: 0.5; stroke: rgb(0, 119, 187); stroke-opacity: 1;"/></g></g></g><rect class="legendtoggle" x="0" y="-9.5" width="134.25" height="19" style="fill: rgb(0, 0, 0); fill-opacity: 0;"/></g></g></g><rect class="scrollbar" rx="20" ry="3" width="0" height="0" x="0" y="0" style="fill: rgb(128, 139, 164); fill-opacity: 1;"/></g><g class="g-gtitle"/><g class="g-xtitle" transform="translate(0,-2.6124999999999545)"><text class="xtitle" x="525" y="599.6125" text-anchor="middle" style="font-family: 'Open Sans', verdana, arial, sans-serif; font-size: 14px; fill: rgb(51, 51, 51); opacity: 1; font-weight: normal; white-space: pre;">Country</text></g><g class="g-ytitle" transform="translate(13.6591796875,0)"><text class="ytitle" transform="rotate(-90,0.34062500000000284,265)" x="0.34062500000000284" y="265" text-anchor="middle" style="font-family: 'Open Sans', verdana, arial, sans-serif; font-size: 14px; fill: rgb(51, 51, 51); opacity: 1; font-weight: normal; white-space: pre;">Gap inoverqualification rates (pp)</text></g></g></svg>