<svg class="main-svg" xmlns="http://www.w3.org/2000/svg" xmlns:xlink="http://www.w3.org/1999/xlink" width="1000" height="600" style="" viewBox="0 0 1000 600"><rect x="0" y="0" width="1000" height="600" style="fill: rgb(255, 255, 255); fill-opacity: 0;"/><defs id="defs-101b22"><g class="clips"><clipPath id="clip101b22xyplot" class="plotclip"><rect width="949" height="466"/></clipPath><clipPath class="axesclip" id="clip101b22x"><rect x="49" y="0" width="949" height="600"/></clipPath><clipPath class="axesclip" id="clip101b22y"><rect x="0" y="30" width="1000" height="466"/></clipPath><clipPath class="axesclip" id="clip101b22xy"><rect x="49" y="30" width="949" height="466"/></clipPath></g><g class="gradients"/></defs><g class="bglayer"><rect class="bg" x="49" y="30" width="949" height="466" style="fill: rgb(237, 237, 237); fill-opacity: 1; stroke-width: 0;"/></g><g class="layer-below"><g class="imagelayer"/><g class="shapelayer"/></g><g class="cartesianlayer"><g class="subplot xy"><g class="layer-subplot"><g class="shapelayer"/><g class="imagelayer"/></g><g class="gridlayer"><g class="x"><path class="xgrid crisp" transform="translate(102.08,0)" d="M0,30v466" style="stroke: rgb(255, 255, 255); stroke-opacity: 1; stroke-width: 1px;"/><path class="xgrid crisp" transform="translate(129.26,0)" d="M0,30v466" style="stroke: rgb(255, 255, 255); stroke-opacity: 1; stroke-width: 1px;"/><path class="xgrid crisp" transform="translate(156.45,0)" d="M0,30v466" style="stroke: rgb(255, 255, 255); stroke-opacity: 1; stroke-width: 1px;"/><path class="xgrid crisp" transform="translate(183.64,0)" d="M0,30v466" style="stroke: rgb(255, 255, 255); stroke-opacity: 1; stroke-width: 1px;"/><path class="xgrid crisp" transform="translate(210.83,0)" d="M0,30v466" style="stroke: rgb(255, 255, 255); stroke-opacity: 1; stroke-width: 1px;"/><path class="xgrid crisp" transform="translate(238.02,0)" d="M0,30v466" style="stroke: rgb(255, 255, 255); stroke-opacity: 1; stroke-width: 1px;"/><path class="xgrid crisp" transform="translate(265.21000000000004,0)" d="M0,30v466" style="stroke: rgb(255, 255, 255); stroke-opacity: 1; stroke-width: 1px;"/><path class="xgrid crisp" transform="translate(292.4,0)" d="M0,30v466" style="stroke: rgb(255, 255, 255); stroke-opacity: 1; stroke-width: 1px;"/><path class="xgrid crisp" transform="translate(319.58,0)" d="M0,30v466" style="stroke: rgb(255, 255, 255); stroke-opacity: 1; stroke-width: 1px;"/><path class="xgrid crisp" transform="translate(346.77,0)" d="M0,30v466" style="stroke: rgb(255, 255, 255); stroke-opacity: 1; stroke-width: 1px;"/><path class="xgrid crisp" transform="translate(373.96,0)" d="M0,30v466" style="stroke: rgb(255, 255, 255); stroke-opacity: 1; stroke-width: 1px;"/><path class="xgrid crisp" transform="translate(401.15,0)" d="M0,30v466" style="stroke: rgb(255, 255, 255); stroke-opacity: 1; stroke-width: 1px;"/><path class="xgrid crisp" transform="translate(428.34,0)" d="M0,30v466" style="stroke: rgb(255, 255, 255); stroke-opacity: 1; stroke-width: 1px;"/><path class="xgrid crisp" transform="translate(455.53,0)" d="M0,30v466" style="stroke: rgb(255, 255, 255); stroke-opacity: 1; stroke-width: 1px;"/><path class="xgrid crisp" transform="translate(482.72,0)" d="M0,30v466" style="stroke: rgb(255, 255, 255); stroke-opacity: 1; stroke-width: 1px;"/><path class="xgrid crisp" transform="translate(509.91,0)" d="M0,30v466" style="stroke: rgb(255, 255, 255); stroke-opacity: 1; stroke-width: 1px;"/><path class="xgrid crisp" transform="translate(537.0899999999999,0)" d="M0,30v466" style="stroke: rgb(255, 255, 255); stroke-opacity: 1; stroke-width: 1px;"/><path class="xgrid crisp" transform="translate(564.28,0)" d="M0,30v466" style="stroke: rgb(255, 255, 255); stroke-opacity: 1; stroke-width: 1px;"/><path class="xgrid crisp" transform="translate(591.47,0)" d="M0,30v466" style="stroke: rgb(255, 255, 255); stroke-opacity: 1; stroke-width: 1px;"/><path class="xgrid crisp" transform="translate(618.66,0)" d="M0,30v466" style="stroke: rgb(255, 255, 255); stroke-opacity: 1; stroke-width: 1px;"/><path class="xgrid crisp" transform="translate(645.85,0)" d="M0,30v466" style="stroke: rgb(255, 255, 255); stroke-opacity: 1; stroke-width: 1px;"/><path class="xgrid crisp" transform="translate(673.04,0)" d="M0,30v466" style="stroke: rgb(255, 255, 255); stroke-opacity: 1; stroke-width: 1px;"/><path class="xgrid crisp" transform="translate(700.23,0)" d="M0,30v466" style="stroke: rgb(255, 255, 255); stroke-opacity: 1; stroke-width: 1px;"/><path class="xgrid crisp" transform="translate(727.42,0)" d="M0,30v466" style="stroke: rgb(255, 255, 255); stroke-opacity: 1; stroke-width: 1px;"/><path class="xgrid crisp" transform="translate(754.6,0)" d="M0,30v466" style="stroke: rgb(255, 255, 255); stroke-opacity: 1; stroke-width: 1px;"/><path class="xgrid crisp" transform="translate(781.79,0)" d="M0,30v466" style="stroke: rgb(255, 255, 255); stroke-opacity: 1; stroke-width: 1px;"/><path class="xgrid crisp" transform="translate(808.98,0)" d="M0,30v466" style="stroke: rgb(255, 255, 255); stroke-opacity: 1; stroke-width: 1px;"/><path class="xgrid crisp" transform="translate(836.17,0)" d="M0,30v466" style="stroke: rgb(255, 255, 255); stroke-opacity: 1; stroke-width: 1px;"/><path class="xgrid crisp" transform="translate(863.36,0)" d="M0,30v466" style="stroke: rgb(255, 255, 255); stroke-opacity: 1; stroke-width: 1px;"/><path class="xgrid crisp" transform="translate(890.55,0)" d="M0,30v466" style="stroke: rgb(255, 255, 255); stroke-opacity: 1; stroke-width: 1px;"/><path class="xgrid crisp" transform="translate(917.74,0)" d="M0,30v466" style="stroke: rgb(255, 255, 255); stroke-opacity: 1; stroke-width: 1px;"/><path class="xgrid crisp" transform="translate(944.93,0)" d="M0,30v466" style="stroke: rgb(255, 255, 255); stroke-opacity: 1; stroke-width: 1px;"/></g><g class="y"><path class="ygrid crisp" transform="translate(0,343.08)" d="M49,0h949" style="stroke: rgb(255, 255, 255); stroke-opacity: 1; stroke-width: 1px;"/><path class="ygrid crisp" transform="translate(0,256.97)" d="M49,0h949" style="stroke: rgb(255, 255, 255); stroke-opacity: 1; stroke-width: 1px;"/><path class="ygrid crisp" transform="translate(0,170.86)" d="M49,0h949" style="stroke: rgb(255, 255, 255); stroke-opacity: 1; stroke-width: 1px;"/><path class="ygrid crisp" transform="translate(0,84.75999999999999)" d="M49,0h949" style="stroke: rgb(255, 255, 255); stroke-opacity: 1; stroke-width: 1px;"/></g></g><g class="zerolinelayer"><path class="yzl zl crisp" transform="translate(0,429.19)" d="M49,0h949" style="stroke: rgb(255, 255, 255); stroke-opacity: 1; stroke-width: 1px;"/></g><path class="xlines-below"/><path class="ylines-below"/><g class="overlines-below"/><g class="xaxislayer-below"/><g class="yaxislayer-below"/><g class="overaxes-below"/><g class="plot" transform="translate(49,30)" clip-path="url('#clip101b22xyplot')"><g class="scatterlayer mlayer"><g class="trace scatter tracee67214" style="stroke-miterlimit: 2; opacity: 1;"><g class="fills"/><g class="errorbars"/><g class="lines"/><g class="points"><path class="point" transform="translate(53.08,395.74)" d="M5.85,0L0,5.85L-5.85,0L0,-5.85Z" style="opacity: 1; stroke-width: 1.5px; fill: rgb(0, 119, 187); fill-opacity: 0.5; stroke: rgb(0, 119, 187); stroke-opacity: 1;"/><path class="point" transform="translate(80.26,397.47)" d="M5.85,0L0,5.85L-5.85,0L0,-5.85Z" style="opacity: 1; stroke-width: 1.5px; fill: rgb(0, 119, 187); fill-opacity: 0.5; stroke: rgb(0, 119, 187); stroke-opacity: 1;"/><path class="point" transform="translate(107.45,380.24)" d="M5.85,0L0,5.85L-5.85,0L0,-5.85Z" style="opacity: 1; stroke-width: 1.5px; fill: rgb(0, 119, 187); fill-opacity: 0.5; stroke: rgb(0, 119, 187); stroke-opacity: 1;"/><path class="point" transform="translate(134.64,357.86)" d="M5.85,0L0,5.85L-5.85,0L0,-5.85Z" style="opacity: 1; stroke-width: 1.5px; fill: rgb(0, 119, 187); fill-opacity: 0.5; stroke: rgb(0, 119, 187); stroke-opacity: 1;"/><path class="point" transform="translate(161.83,375.08)" d="M5.85,0L0,5.85L-5.85,0L0,-5.85Z" style="opacity: 1; stroke-width: 1.5px; fill: rgb(0, 119, 187); fill-opacity: 0.5; stroke: rgb(0, 119, 187); stroke-opacity: 1;"/><path class="point" transform="translate(189.02,419.85)" d="M5.85,0L0,5.85L-5.85,0L0,-5.85Z" style="opacity: 1; stroke-width: 1.5px; fill: rgb(0, 119, 187); fill-opacity: 0.5; stroke: rgb(0, 119, 187); stroke-opacity: 1;"/><path class="point" transform="translate(243.4,388.85)" d="M5.85,0L0,5.85L-5.85,0L0,-5.85Z" style="opacity: 1; stroke-width: 1.5px; fill: rgb(0, 119, 187); fill-opacity: 0.5; stroke: rgb(0, 119, 187); stroke-opacity: 1;"/><path class="point" transform="translate(270.58,400.91)" d="M5.85,0L0,5.85L-5.85,0L0,-5.85Z" style="opacity: 1; stroke-width: 1.5px; fill: rgb(0, 119, 187); fill-opacity: 0.5; stroke: rgb(0, 119, 187); stroke-opacity: 1;"/><path class="point" transform="translate(297.77,380.24)" d="M5.85,0L0,5.85L-5.85,0L0,-5.85Z" style="opacity: 1; stroke-width: 1.5px; fill: rgb(0, 119, 187); fill-opacity: 0.5; stroke: rgb(0, 119, 187); stroke-opacity: 1;"/><path class="point" transform="translate(324.96,409.52)" d="M5.85,0L0,5.85L-5.85,0L0,-5.85Z" style="opacity: 1; stroke-width: 1.5px; fill: rgb(0, 119, 187); fill-opacity: 0.5; stroke: rgb(0, 119, 187); stroke-opacity: 1;"/><path class="point" transform="translate(352.15,364.74)" d="M5.85,0L0,5.85L-5.85,0L0,-5.85Z" style="opacity: 1; stroke-width: 1.5px; fill: rgb(0, 119, 187); fill-opacity: 0.5; stroke: rgb(0, 119, 187); stroke-opacity: 1;"/><path class="point" transform="translate(379.34,371.63)" d="M5.85,0L0,5.85L-5.85,0L0,-5.85Z" style="opacity: 1; stroke-width: 1.5px; fill: rgb(0, 119, 187); fill-opacity: 0.5; stroke: rgb(0, 119, 187); stroke-opacity: 1;"/><path class="point" transform="translate(406.53,378.52)" d="M5.85,0L0,5.85L-5.85,0L0,-5.85Z" style="opacity: 1; stroke-width: 1.5px; fill: rgb(0, 119, 187); fill-opacity: 0.5; stroke: rgb(0, 119, 187); stroke-opacity: 1;"/><path class="point" transform="translate(433.72,208.03)" d="M5.85,0L0,5.85L-5.85,0L0,-5.85Z" style="opacity: 1; stroke-width: 1.5px; fill: rgb(0, 119, 187); fill-opacity: 0.5; stroke: rgb(0, 119, 187); stroke-opacity: 1;"/><path class="point" transform="translate(460.91,385.41)" d="M5.85,0L0,5.85L-5.85,0L0,-5.85Z" style="opacity: 1; stroke-width: 1.5px; fill: rgb(0, 119, 187); fill-opacity: 0.5; stroke: rgb(0, 119, 187); stroke-opacity: 1;"/><path class="point" transform="translate(488.09,319.97)" d="M5.85,0L0,5.85L-5.85,0L0,-5.85Z" style="opacity: 1; stroke-width: 1.5px; fill: rgb(0, 119, 187); fill-opacity: 0.5; stroke: rgb(0, 119, 187); stroke-opacity: 1;"/><path class="point" transform="translate(515.28,325.14)" d="M5.85,0L0,5.85L-5.85,0L0,-5.85Z" style="opacity: 1; stroke-width: 1.5px; fill: rgb(0, 119, 187); fill-opacity: 0.5; stroke: rgb(0, 119, 187); stroke-opacity: 1;"/><path class="point" transform="translate(542.47,319.97)" d="M5.85,0L0,5.85L-5.85,0L0,-5.85Z" style="opacity: 1; stroke-width: 1.5px; fill: rgb(0, 119, 187); fill-opacity: 0.5; stroke: rgb(0, 119, 187); stroke-opacity: 1;"/><path class="point" transform="translate(759.98,197.7)" d="M5.85,0L0,5.85L-5.85,0L0,-5.85Z" style="opacity: 1; stroke-width: 1.5px; fill: rgb(0, 119, 187); fill-opacity: 0.5; stroke: rgb(0, 119, 187); stroke-opacity: 1;"/><path class="point" transform="translate(841.55,363.02)" d="M5.85,0L0,5.85L-5.85,0L0,-5.85Z" style="opacity: 1; stroke-width: 1.5px; fill: rgb(0, 119, 187); fill-opacity: 0.5; stroke: rgb(0, 119, 187); stroke-opacity: 1;"/></g><g class="text"/></g><g class="trace scatter trace173444" style="stroke-miterlimit: 2; opacity: 1;"><g class="fills"/><g class="errorbars"/><g class="lines"/><g class="points"><path class="point" transform="translate(53.08,318.25)" d="M0,2.55l2.55,2.55l2.55,-2.55l-2.55,-2.55l2.55,-2.55l-2.55,-2.55l-2.55,2.55l-2.55,-2.55l-2.55,2.55l2.55,2.55l-2.55,2.55l2.55,2.55Z" style="opacity: 1; stroke-width: 1.5px; fill: rgb(136, 34, 85); fill-opacity: 0.5; stroke: rgb(136, 34, 85); stroke-opacity: 1;"/><path class="point" transform="translate(80.26,301.02)" d="M0,2.55l2.55,2.55l2.55,-2.55l-2.55,-2.55l2.55,-2.55l-2.55,-2.55l-2.55,2.55l-2.55,-2.55l-2.55,2.55l2.55,2.55l-2.55,2.55l2.55,2.55Z" style="opacity: 1; stroke-width: 1.5px; fill: rgb(136, 34, 85); fill-opacity: 0.5; stroke: rgb(136, 34, 85); stroke-opacity: 1;"/><path class="point" transform="translate(107.45,323.41)" d="M0,2.55l2.55,2.55l2.55,-2.55l-2.55,-2.55l2.55,-2.55l-2.55,-2.55l-2.55,2.55l-2.55,-2.55l-2.55,2.55l2.55,2.55l-2.55,2.55l2.55,2.55Z" style="opacity: 1; stroke-width: 1.5px; fill: rgb(136, 34, 85); fill-opacity: 0.5; stroke: rgb(136, 34, 85); stroke-opacity: 1;"/><path class="point" transform="translate(134.64,294.14)" d="M0,2.55l2.55,2.55l2.55,-2.55l-2.55,-2.55l2.55,-2.55l-2.55,-2.55l-2.55,2.55l-2.55,-2.55l-2.55,2.55l2.55,2.55l-2.55,2.55l2.55,2.55Z" style="opacity: 1; stroke-width: 1.5px; fill: rgb(136, 34, 85); fill-opacity: 0.5; stroke: rgb(136, 34, 85); stroke-opacity: 1;"/><path class="point" transform="translate(161.83,299.3)" d="M0,2.55l2.55,2.55l2.55,-2.55l-2.55,-2.55l2.55,-2.55l-2.55,-2.55l-2.55,2.55l-2.55,-2.55l-2.55,2.55l2.55,2.55l-2.55,2.55l2.55,2.55Z" style="opacity: 1; stroke-width: 1.5px; fill: rgb(136, 34, 85); fill-opacity: 0.5; stroke: rgb(136, 34, 85); stroke-opacity: 1;"/><path class="point" transform="translate(189.02,364.74)" d="M0,2.55l2.55,2.55l2.55,-2.55l-2.55,-2.55l2.55,-2.55l-2.55,-2.55l-2.55,2.55l-2.55,-2.55l-2.55,2.55l2.55,2.55l-2.55,2.55l2.55,2.55Z" style="opacity: 1; stroke-width: 1.5px; fill: rgb(136, 34, 85); fill-opacity: 0.5; stroke: rgb(136, 34, 85); stroke-opacity: 1;"/><path class="point" transform="translate(243.4,383.69)" d="M0,2.55l2.55,2.55l2.55,-2.55l-2.55,-2.55l2.55,-2.55l-2.55,-2.55l-2.55,2.55l-2.55,-2.55l-2.55,2.55l2.55,2.55l-2.55,2.55l2.55,2.55Z" style="opacity: 1; stroke-width: 1.5px; fill: rgb(136, 34, 85); fill-opacity: 0.5; stroke: rgb(136, 34, 85); stroke-opacity: 1;"/><path class="point" transform="translate(270.58,357.86)" d="M0,2.55l2.55,2.55l2.55,-2.55l-2.55,-2.55l2.55,-2.55l-2.55,-2.55l-2.55,2.55l-2.55,-2.55l-2.55,2.55l2.55,2.55l-2.55,2.55l2.55,2.55Z" style="opacity: 1; stroke-width: 1.5px; fill: rgb(136, 34, 85); fill-opacity: 0.5; stroke: rgb(136, 34, 85); stroke-opacity: 1;"/><path class="point" transform="translate(297.77,338.91)" d="M0,2.55l2.55,2.55l2.55,-2.55l-2.55,-2.55l2.55,-2.55l-2.55,-2.55l-2.55,2.55l-2.55,-2.55l-2.55,2.55l2.55,2.55l-2.55,2.55l2.55,2.55Z" style="opacity: 1; stroke-width: 1.5px; fill: rgb(136, 34, 85); fill-opacity: 0.5; stroke: rgb(136, 34, 85); stroke-opacity: 1;"/><path class="point" transform="translate(324.96,330.3)" d="M0,2.55l2.55,2.55l2.55,-2.55l-2.55,-2.55l2.55,-2.55l-2.55,-2.55l-2.55,2.55l-2.55,-2.55l-2.55,2.55l2.55,2.55l-2.55,2.55l2.55,2.55Z" style="opacity: 1; stroke-width: 1.5px; fill: rgb(136, 34, 85); fill-opacity: 0.5; stroke: rgb(136, 34, 85); stroke-opacity: 1;"/><path class="point" transform="translate(352.15,190.81)" d="M0,2.55l2.55,2.55l2.55,-2.55l-2.55,-2.55l2.55,-2.55l-2.55,-2.55l-2.55,2.55l-2.55,-2.55l-2.55,2.55l2.55,2.55l-2.55,2.55l2.55,2.55Z" style="opacity: 1; stroke-width: 1.5px; fill: rgb(136, 34, 85); fill-opacity: 0.5; stroke: rgb(136, 34, 85); stroke-opacity: 1;"/><path class="point" transform="translate(379.34,313.08)" d="M0,2.55l2.55,2.55l2.55,-2.55l-2.55,-2.55l2.55,-2.55l-2.55,-2.55l-2.55,2.55l-2.55,-2.55l-2.55,2.55l2.55,2.55l-2.55,2.55l2.55,2.55Z" style="opacity: 1; stroke-width: 1.5px; fill: rgb(136, 34, 85); fill-opacity: 0.5; stroke: rgb(136, 34, 85); stroke-opacity: 1;"/><path class="point" transform="translate(406.53,385.41)" d="M0,2.55l2.55,2.55l2.55,-2.55l-2.55,-2.55l2.55,-2.55l-2.55,-2.55l-2.55,2.55l-2.55,-2.55l-2.55,2.55l2.55,2.55l-2.55,2.55l2.55,2.55Z" style="opacity: 1; stroke-width: 1.5px; fill: rgb(136, 34, 85); fill-opacity: 0.5; stroke: rgb(136, 34, 85); stroke-opacity: 1;"/><path class="point" transform="translate(433.72,28.93)" d="M0,2.55l2.55,2.55l2.55,-2.55l-2.55,-2.55l2.55,-2.55l-2.55,-2.55l-2.55,2.55l-2.55,-2.55l-2.55,2.55l2.55,2.55l-2.55,2.55l2.55,2.55Z" style="opacity: 1; stroke-width: 1.5px; fill: rgb(136, 34, 85); fill-opacity: 0.5; stroke: rgb(136, 34, 85); stroke-opacity: 1;"/><path class="point" transform="translate(460.91,371.63)" d="M0,2.55l2.55,2.55l2.55,-2.55l-2.55,-2.55l2.55,-2.55l-2.55,-2.55l-2.55,2.55l-2.55,-2.55l-2.55,2.55l2.55,2.55l-2.55,2.55l2.55,2.55Z" style="opacity: 1; stroke-width: 1.5px; fill: rgb(136, 34, 85); fill-opacity: 0.5; stroke: rgb(136, 34, 85); stroke-opacity: 1;"/><path class="point" transform="translate(488.09,285.53)" d="M0,2.55l2.55,2.55l2.55,-2.55l-2.55,-2.55l2.55,-2.55l-2.55,-2.55l-2.55,2.55l-2.55,-2.55l-2.55,2.55l2.55,2.55l-2.55,2.55l2.55,2.55Z" style="opacity: 1; stroke-width: 1.5px; fill: rgb(136, 34, 85); fill-opacity: 0.5; stroke: rgb(136, 34, 85); stroke-opacity: 1;"/><path class="point" transform="translate(515.28,323.41)" d="M0,2.55l2.55,2.55l2.55,-2.55l-2.55,-2.55l2.55,-2.55l-2.55,-2.55l-2.55,2.55l-2.55,-2.55l-2.55,2.55l2.55,2.55l-2.55,2.55l2.55,2.55Z" style="opacity: 1; stroke-width: 1.5px; fill: rgb(136, 34, 85); fill-opacity: 0.5; stroke: rgb(136, 34, 85); stroke-opacity: 1;"/><path class="point" transform="translate(542.47,232.14)" d="M0,2.55l2.55,2.55l2.55,-2.55l-2.55,-2.55l2.55,-2.55l-2.55,-2.55l-2.55,2.55l-2.55,-2.55l-2.55,2.55l2.55,2.55l-2.55,2.55l2.55,2.55Z" style="opacity: 1; stroke-width: 1.5px; fill: rgb(136, 34, 85); fill-opacity: 0.5; stroke: rgb(136, 34, 85); stroke-opacity: 1;"/><path class="point" transform="translate(596.85,345.8)" d="M0,2.55l2.55,2.55l2.55,-2.55l-2.55,-2.55l2.55,-2.55l-2.55,-2.55l-2.55,2.55l-2.55,-2.55l-2.55,2.55l2.55,2.55l-2.55,2.55l2.55,2.55Z" style="opacity: 1; stroke-width: 1.5px; fill: rgb(136, 34, 85); fill-opacity: 0.5; stroke: rgb(136, 34, 85); stroke-opacity: 1;"/><path class="point" transform="translate(624.04,352.69)" d="M0,2.55l2.55,2.55l2.55,-2.55l-2.55,-2.55l2.55,-2.55l-2.55,-2.55l-2.55,2.55l-2.55,-2.55l-2.55,2.55l2.55,2.55l-2.55,2.55l2.55,2.55Z" style="opacity: 1; stroke-width: 1.5px; fill: rgb(136, 34, 85); fill-opacity: 0.5; stroke: rgb(136, 34, 85); stroke-opacity: 1;"/><path class="point" transform="translate(759.98,270.03)" d="M0,2.55l2.55,2.55l2.55,-2.55l-2.55,-2.55l2.55,-2.55l-2.55,-2.55l-2.55,2.55l-2.55,-2.55l-2.55,2.55l2.55,2.55l-2.55,2.55l2.55,2.55Z" style="opacity: 1; stroke-width: 1.5px; fill: rgb(136, 34, 85); fill-opacity: 0.5; stroke: rgb(136, 34, 85); stroke-opacity: 1;"/><path class="point" transform="translate(841.55,419.85)" d="M0,2.55l2.55,2.55l2.55,-2.55l-2.55,-2.55l2.55,-2.55l-2.55,-2.55l-2.55,2.55l-2.55,-2.55l-2.55,2.55l2.55,2.55l-2.55,2.55l2.55,2.55Z" style="opacity: 1; stroke-width: 1.5px; fill: rgb(136, 34, 85); fill-opacity: 0.5; stroke: rgb(136, 34, 85); stroke-opacity: 1;"/></g><g class="text"/></g><g class="trace scatter trace2d0110" style="stroke-miterlimit: 2; opacity: 1;"><g class="fills"/><g class="errorbars"/><g class="lines"/><g class="points"><path class="point" transform="translate(53.08,311.36)" d="M4.5,0A4.5,4.5 0 1,1 0,-4.5A4.5,4.5 0 0,1 4.5,0Z" style="opacity: 1; stroke-width: 1.5px; fill: rgb(230, 118, 7); fill-opacity: 0.5; stroke: rgb(230, 118, 7); stroke-opacity: 1;"/><path class="point" transform="translate(80.26,285.53)" d="M4.5,0A4.5,4.5 0 1,1 0,-4.5A4.5,4.5 0 0,1 4.5,0Z" style="opacity: 1; stroke-width: 1.5px; fill: rgb(230, 118, 7); fill-opacity: 0.5; stroke: rgb(230, 118, 7); stroke-opacity: 1;"/><path class="point" transform="translate(107.45,328.58)" d="M4.5,0A4.5,4.5 0 1,1 0,-4.5A4.5,4.5 0 0,1 4.5,0Z" style="opacity: 1; stroke-width: 1.5px; fill: rgb(230, 118, 7); fill-opacity: 0.5; stroke: rgb(230, 118, 7); stroke-opacity: 1;"/><path class="point" transform="translate(134.64,271.75)" d="M4.5,0A4.5,4.5 0 1,1 0,-4.5A4.5,4.5 0 0,1 4.5,0Z" style="opacity: 1; stroke-width: 1.5px; fill: rgb(230, 118, 7); fill-opacity: 0.5; stroke: rgb(230, 118, 7); stroke-opacity: 1;"/><path class="point" transform="translate(161.83,294.14)" d="M4.5,0A4.5,4.5 0 1,1 0,-4.5A4.5,4.5 0 0,1 4.5,0Z" style="opacity: 1; stroke-width: 1.5px; fill: rgb(230, 118, 7); fill-opacity: 0.5; stroke: rgb(230, 118, 7); stroke-opacity: 1;"/><path class="point" transform="translate(189.02,354.41)" d="M4.5,0A4.5,4.5 0 1,1 0,-4.5A4.5,4.5 0 0,1 4.5,0Z" style="opacity: 1; stroke-width: 1.5px; fill: rgb(230, 118, 7); fill-opacity: 0.5; stroke: rgb(230, 118, 7); stroke-opacity: 1;"/><path class="point" transform="translate(243.4,366.47)" d="M4.5,0A4.5,4.5 0 1,1 0,-4.5A4.5,4.5 0 0,1 4.5,0Z" style="opacity: 1; stroke-width: 1.5px; fill: rgb(230, 118, 7); fill-opacity: 0.5; stroke: rgb(230, 118, 7); stroke-opacity: 1;"/><path class="point" transform="translate(270.58,349.25)" d="M4.5,0A4.5,4.5 0 1,1 0,-4.5A4.5,4.5 0 0,1 4.5,0Z" style="opacity: 1; stroke-width: 1.5px; fill: rgb(230, 118, 7); fill-opacity: 0.5; stroke: rgb(230, 118, 7); stroke-opacity: 1;"/><path class="point" transform="translate(297.77,333.75)" d="M4.5,0A4.5,4.5 0 1,1 0,-4.5A4.5,4.5 0 0,1 4.5,0Z" style="opacity: 1; stroke-width: 1.5px; fill: rgb(230, 118, 7); fill-opacity: 0.5; stroke: rgb(230, 118, 7); stroke-opacity: 1;"/><path class="point" transform="translate(324.96,321.69)" d="M4.5,0A4.5,4.5 0 1,1 0,-4.5A4.5,4.5 0 0,1 4.5,0Z" style="opacity: 1; stroke-width: 1.5px; fill: rgb(230, 118, 7); fill-opacity: 0.5; stroke: rgb(230, 118, 7); stroke-opacity: 1;"/><path class="point" transform="translate(352.15,190.81)" d="M4.5,0A4.5,4.5 0 1,1 0,-4.5A4.5,4.5 0 0,1 4.5,0Z" style="opacity: 1; stroke-width: 1.5px; fill: rgb(230, 118, 7); fill-opacity: 0.5; stroke: rgb(230, 118, 7); stroke-opacity: 1;"/><path class="point" transform="translate(379.34,316.52)" d="M4.5,0A4.5,4.5 0 1,1 0,-4.5A4.5,4.5 0 0,1 4.5,0Z" style="opacity: 1; stroke-width: 1.5px; fill: rgb(230, 118, 7); fill-opacity: 0.5; stroke: rgb(230, 118, 7); stroke-opacity: 1;"/><path class="point" transform="translate(406.53,371.63)" d="M4.5,0A4.5,4.5 0 1,1 0,-4.5A4.5,4.5 0 0,1 4.5,0Z" style="opacity: 1; stroke-width: 1.5px; fill: rgb(230, 118, 7); fill-opacity: 0.5; stroke: rgb(230, 118, 7); stroke-opacity: 1;"/><path class="point" transform="translate(433.72,152.92)" d="M4.5,0A4.5,4.5 0 1,1 0,-4.5A4.5,4.5 0 0,1 4.5,0Z" style="opacity: 1; stroke-width: 1.5px; fill: rgb(230, 118, 7); fill-opacity: 0.5; stroke: rgb(230, 118, 7); stroke-opacity: 1;"/><path class="point" transform="translate(460.91,381.97)" d="M4.5,0A4.5,4.5 0 1,1 0,-4.5A4.5,4.5 0 0,1 4.5,0Z" style="opacity: 1; stroke-width: 1.5px; fill: rgb(230, 118, 7); fill-opacity: 0.5; stroke: rgb(230, 118, 7); stroke-opacity: 1;"/><path class="point" transform="translate(488.09,311.36)" d="M4.5,0A4.5,4.5 0 1,1 0,-4.5A4.5,4.5 0 0,1 4.5,0Z" style="opacity: 1; stroke-width: 1.5px; fill: rgb(230, 118, 7); fill-opacity: 0.5; stroke: rgb(230, 118, 7); stroke-opacity: 1;"/><path class="point" transform="translate(515.28,337.19)" d="M4.5,0A4.5,4.5 0 1,1 0,-4.5A4.5,4.5 0 0,1 4.5,0Z" style="opacity: 1; stroke-width: 1.5px; fill: rgb(230, 118, 7); fill-opacity: 0.5; stroke: rgb(230, 118, 7); stroke-opacity: 1;"/><path class="point" transform="translate(542.47,287.25)" d="M4.5,0A4.5,4.5 0 1,1 0,-4.5A4.5,4.5 0 0,1 4.5,0Z" style="opacity: 1; stroke-width: 1.5px; fill: rgb(230, 118, 7); fill-opacity: 0.5; stroke: rgb(230, 118, 7); stroke-opacity: 1;"/><path class="point" transform="translate(596.85,354.41)" d="M4.5,0A4.5,4.5 0 1,1 0,-4.5A4.5,4.5 0 0,1 4.5,0Z" style="opacity: 1; stroke-width: 1.5px; fill: rgb(230, 118, 7); fill-opacity: 0.5; stroke: rgb(230, 118, 7); stroke-opacity: 1;"/><path class="point" transform="translate(624.04,366.47)" d="M4.5,0A4.5,4.5 0 1,1 0,-4.5A4.5,4.5 0 0,1 4.5,0Z" style="opacity: 1; stroke-width: 1.5px; fill: rgb(230, 118, 7); fill-opacity: 0.5; stroke: rgb(230, 118, 7); stroke-opacity: 1;"/><path class="point" transform="translate(759.98,299.3)" d="M4.5,0A4.5,4.5 0 1,1 0,-4.5A4.5,4.5 0 0,1 4.5,0Z" style="opacity: 1; stroke-width: 1.5px; fill: rgb(230, 118, 7); fill-opacity: 0.5; stroke: rgb(230, 118, 7); stroke-opacity: 1;"/><path class="point" transform="translate(841.55,437.08)" d="M4.5,0A4.5,4.5 0 1,1 0,-4.5A4.5,4.5 0 0,1 4.5,0Z" style="opacity: 1; stroke-width: 1.5px; fill: rgb(230, 118, 7); fill-opacity: 0.5; stroke: rgb(230, 118, 7); stroke-opacity: 1;"/></g><g class="text"/></g><g class="trace scatter trace330521" style="stroke-miterlimit: 2; opacity: 1;"><g class="fills"/><g class="errorbars"/><g class="lines"/><g class="points"><path class="point" transform="translate(569.66,404.35)" d="M5.85,0L0,5.85L-5.85,0L0,-5.85Z" style="opacity: 1; stroke-width: 1.5px; fill: rgb(136, 204, 238); fill-opacity: 0.5; stroke: rgb(136, 204, 238); stroke-opacity: 1;"/><path class="point" transform="translate(596.85,337.19)" d="M5.85,0L0,5.85L-5.85,0L0,-5.85Z" style="opacity: 1; stroke-width: 1.5px; fill: rgb(136, 204, 238); fill-opacity: 0.5; stroke: rgb(136, 204, 238); stroke-opacity: 1;"/><path class="point" transform="translate(624.04,380.24)" d="M5.85,0L0,5.85L-5.85,0L0,-5.85Z" style="opacity: 1; stroke-width: 1.5px; fill: rgb(136, 204, 238); fill-opacity: 0.5; stroke: rgb(136, 204, 238); stroke-opacity: 1;"/><path class="point" transform="translate(678.42,426.74)" d="M5.85,0L0,5.85L-5.85,0L0,-5.85Z" style="opacity: 1; stroke-width: 1.5px; fill: rgb(136, 204, 238); fill-opacity: 0.5; stroke: rgb(136, 204, 238); stroke-opacity: 1;"/><path class="point" transform="translate(705.6,378.52)" d="M5.85,0L0,5.85L-5.85,0L0,-5.85Z" style="opacity: 1; stroke-width: 1.5px; fill: rgb(136, 204, 238); fill-opacity: 0.5; stroke: rgb(136, 204, 238); stroke-opacity: 1;"/><path class="point" transform="translate(895.93,354.41)" d="M5.85,0L0,5.85L-5.85,0L0,-5.85Z" style="opacity: 1; stroke-width: 1.5px; fill: rgb(136, 204, 238); fill-opacity: 0.5; stroke: rgb(136, 204, 238); stroke-opacity: 1;"/></g><g class="text"/></g><g class="trace scatter tracea83b27" style="stroke-miterlimit: 2; opacity: 1;"><g class="fills"/><g class="errorbars"/><g class="lines"/><g class="points"><path class="point" transform="translate(569.66,402.63)" d="M0,2.55l2.55,2.55l2.55,-2.55l-2.55,-2.55l2.55,-2.55l-2.55,-2.55l-2.55,2.55l-2.55,-2.55l-2.55,2.55l2.55,2.55l-2.55,2.55l2.55,2.55Z" style="opacity: 1; stroke-width: 1.5px; fill: rgb(204, 102, 119); fill-opacity: 0.5; stroke: rgb(204, 102, 119); stroke-opacity: 1;"/><path class="point" transform="translate(678.42,416.41)" d="M0,2.55l2.55,2.55l2.55,-2.55l-2.55,-2.55l2.55,-2.55l-2.55,-2.55l-2.55,2.55l-2.55,-2.55l-2.55,2.55l2.55,2.55l-2.55,2.55l2.55,2.55Z" style="opacity: 1; stroke-width: 1.5px; fill: rgb(204, 102, 119); fill-opacity: 0.5; stroke: rgb(204, 102, 119); stroke-opacity: 1;"/><path class="point" transform="translate(705.6,419.85)" d="M0,2.55l2.55,2.55l2.55,-2.55l-2.55,-2.55l2.55,-2.55l-2.55,-2.55l-2.55,2.55l-2.55,-2.55l-2.55,2.55l2.55,2.55l-2.55,2.55l2.55,2.55Z" style="opacity: 1; stroke-width: 1.5px; fill: rgb(204, 102, 119); fill-opacity: 0.5; stroke: rgb(204, 102, 119); stroke-opacity: 1;"/><path class="point" transform="translate(895.93,338.91)" d="M0,2.55l2.55,2.55l2.55,-2.55l-2.55,-2.55l2.55,-2.55l-2.55,-2.55l-2.55,2.55l-2.55,-2.55l-2.55,2.55l2.55,2.55l-2.55,2.55l2.55,2.55Z" style="opacity: 1; stroke-width: 1.5px; fill: rgb(204, 102, 119); fill-opacity: 0.5; stroke: rgb(204, 102, 119); stroke-opacity: 1;"/></g><g class="text"/></g><g class="trace scatter trace4e1300" style="stroke-miterlimit: 2; opacity: 1;"><g class="fills"/><g class="errorbars"/><g class="lines"/><g class="points"><path class="point" transform="translate(569.66,423.3)" d="M4.5,0A4.5,4.5 0 1,1 0,-4.5A4.5,4.5 0 0,1 4.5,0Z" style="opacity: 1; stroke-width: 1.5px; fill: rgb(235, 171, 108); fill-opacity: 0.5; stroke: rgb(235, 171, 108); stroke-opacity: 1;"/><path class="point" transform="translate(678.42,387.13)" d="M4.5,0A4.5,4.5 0 1,1 0,-4.5A4.5,4.5 0 0,1 4.5,0Z" style="opacity: 1; stroke-width: 1.5px; fill: rgb(235, 171, 108); fill-opacity: 0.5; stroke: rgb(235, 171, 108); stroke-opacity: 1;"/><path class="point" transform="translate(705.6,390.58)" d="M4.5,0A4.5,4.5 0 1,1 0,-4.5A4.5,4.5 0 0,1 4.5,0Z" style="opacity: 1; stroke-width: 1.5px; fill: rgb(235, 171, 108); fill-opacity: 0.5; stroke: rgb(235, 171, 108); stroke-opacity: 1;"/><path class="point" transform="translate(895.93,352.69)" d="M4.5,0A4.5,4.5 0 1,1 0,-4.5A4.5,4.5 0 0,1 4.5,0Z" style="opacity: 1; stroke-width: 1.5px; fill: rgb(235, 171, 108); fill-opacity: 0.5; stroke: rgb(235, 171, 108); stroke-opacity: 1;"/></g><g class="text"/></g></g></g><g class="overplot"/><path class="xlines-above crisp" d="M47,497H1000M47,29H1000" style="fill: none; stroke-width: 2px; stroke: rgb(0, 0, 0); stroke-opacity: 1;"/><path class="ylines-above crisp" d="M48,30V496M999,30V496" style="fill: none; stroke-width: 2px; stroke: rgb(0, 0, 0); stroke-opacity: 1;"/><g class="overlines-above"/><g class="xaxislayer-above"><path class="xtick ticks crisp" d="M0,498v5" transform="translate(102.08,0)" style="stroke: rgb(51, 51, 51); stroke-opacity: 1; stroke-width: 2px;"/><path class="xtick ticks crisp" d="M0,498v5" transform="translate(129.26,0)" style="stroke: rgb(51, 51, 51); stroke-opacity: 1; stroke-width: 2px;"/><path class="xtick ticks crisp" d="M0,498v5" transform="translate(156.45,0)" style="stroke: rgb(51, 51, 51); stroke-opacity: 1; stroke-width: 2px;"/><path class="xtick ticks crisp" d="M0,498v5" transform="translate(183.64,0)" style="stroke: rgb(51, 51, 51); stroke-opacity: 1; stroke-width: 2px;"/><path class="xtick ticks crisp" d="M0,498v5" transform="translate(210.83,0)" style="stroke: rgb(51, 51, 51); stroke-opacity: 1; stroke-width: 2px;"/><path class="xtick ticks crisp" d="M0,498v5" transform="translate(238.02,0)" style="stroke: rgb(51, 51, 51); stroke-opacity: 1; stroke-width: 2px;"/><path class="xtick ticks crisp" d="M0,498v5" transform="translate(265.21000000000004,0)" style="stroke: rgb(51, 51, 51); stroke-opacity: 1; stroke-width: 2px;"/><path class="xtick ticks crisp" d="M0,498v5" transform="translate(292.4,0)" style="stroke: rgb(51, 51, 51); stroke-opacity: 1; stroke-width: 2px;"/><path class="xtick ticks crisp" d="M0,498v5" transform="translate(319.58,0)" style="stroke: rgb(51, 51, 51); stroke-opacity: 1; stroke-width: 2px;"/><path class="xtick ticks crisp" d="M0,498v5" transform="translate(346.77,0)" style="stroke: rgb(51, 51, 51); stroke-opacity: 1; stroke-width: 2px;"/><path class="xtick ticks crisp" d="M0,498v5" transform="translate(373.96,0)" style="stroke: rgb(51, 51, 51); stroke-opacity: 1; stroke-width: 2px;"/><path class="xtick ticks crisp" d="M0,498v5" transform="translate(401.15,0)" style="stroke: rgb(51, 51, 51); stroke-opacity: 1; stroke-width: 2px;"/><path class="xtick ticks crisp" d="M0,498v5" transform="translate(428.34,0)" style="stroke: rgb(51, 51, 51); stroke-opacity: 1; stroke-width: 2px;"/><path class="xtick ticks crisp" d="M0,498v5" transform="translate(455.53,0)" style="stroke: rgb(51, 51, 51); stroke-opacity: 1; stroke-width: 2px;"/><path class="xtick ticks crisp" d="M0,498v5" transform="translate(482.72,0)" style="stroke: rgb(51, 51, 51); stroke-opacity: 1; stroke-width: 2px;"/><path class="xtick ticks crisp" d="M0,498v5" transform="translate(509.91,0)" style="stroke: rgb(51, 51, 51); stroke-opacity: 1; stroke-width: 2px;"/><path class="xtick ticks crisp" d="M0,498v5" transform="translate(537.0899999999999,0)" style="stroke: rgb(51, 51, 51); stroke-opacity: 1; stroke-width: 2px;"/><path class="xtick ticks crisp" d="M0,498v5" transform="translate(564.28,0)" style="stroke: rgb(51, 51, 51); stroke-opacity: 1; stroke-width: 2px;"/><path class="xtick ticks crisp" d="M0,498v5" transform="translate(591.47,0)" style="stroke: rgb(51, 51, 51); stroke-opacity: 1; stroke-width: 2px;"/><path class="xtick ticks crisp" d="M0,498v5" transform="translate(618.66,0)" style="stroke: rgb(51, 51, 51); stroke-opacity: 1; stroke-width: 2px;"/><path class="xtick ticks crisp" d="M0,498v5" transform="translate(645.85,0)" style="stroke: rgb(51, 51, 51); stroke-opacity: 1; stroke-width: 2px;"/><path class="xtick ticks crisp" d="M0,498v5" transform="translate(673.04,0)" style="stroke: rgb(51, 51, 51); stroke-opacity: 1; stroke-width: 2px;"/><path class="xtick ticks crisp" d="M0,498v5" transform="translate(700.23,0)" style="stroke: rgb(51, 51, 51); stroke-opacity: 1; stroke-width: 2px;"/><path class="xtick ticks crisp" d="M0,498v5" transform="translate(727.42,0)" style="stroke: rgb(51, 51, 51); stroke-opacity: 1; stroke-width: 2px;"/><path class="xtick ticks crisp" d="M0,498v5" transform="translate(754.6,0)" style="stroke: rgb(51, 51, 51); stroke-opacity: 1; stroke-width: 2px;"/><path class="xtick ticks crisp" d="M0,498v5" transform="translate(781.79,0)" style="stroke: rgb(51, 51, 51); stroke-opacity: 1; stroke-width: 2px;"/><path class="xtick ticks crisp" d="M0,498v5" transform="translate(808.98,0)" style="stroke: rgb(51, 51, 51); stroke-opacity: 1; stroke-width: 2px;"/><path class="xtick ticks crisp" d="M0,498v5" transform="translate(836.17,0)" style="stroke: rgb(51, 51, 51); stroke-opacity: 1; stroke-width: 2px;"/><path class="xtick ticks crisp" d="M0,498v5" transform="translate(863.36,0)" style="stroke: rgb(51, 51, 51); stroke-opacity: 1; stroke-width: 2px;"/><path class="xtick ticks crisp" d="M0,498v5" transform="translate(890.55,0)" style="stroke: rgb(51, 51, 51); stroke-opacity: 1; stroke-width: 2px;"/><path class="xtick ticks crisp" d="M0,498v5" transform="translate(917.74,0)" style="stroke: rgb(51, 51, 51); stroke-opacity: 1; stroke-width: 2px;"/><path class="xtick ticks crisp" d="M0,498v5" transform="translate(944.93,0)" style="stroke: rgb(51, 51, 51); stroke-opacity: 1; stroke-width: 2px;"/><g class="xtick"><text text-anchor="end" x="0" y="517.4" transform="translate(102.08,0) rotate(-45,0,511.4)" style="font-family: 'Open Sans', verdana, arial, sans-serif; font-size: 12px; fill: rgb(51, 51, 51); fill-opacity: 1; white-space: pre;">Austria</text></g><g class="xtick"><text text-anchor="end" x="0" y="517.4" transform="translate(129.26,0) rotate(-45,0,511.4)" style="font-family: 'Open Sans', verdana, arial, sans-serif; font-size: 12px; fill: rgb(51, 51, 51); fill-opacity: 1; white-space: pre;">Belgium</text></g><g class="xtick"><text text-anchor="end" x="0" y="517.4" transform="translate(156.45,0) rotate(-45,0,511.4)" style="font-family: 'Open Sans', verdana, arial, sans-serif; font-size: 12px; fill: rgb(51, 51, 51); fill-opacity: 1; white-space: pre;">Denmark</text></g><g class="xtick"><text text-anchor="end" x="0" y="517.4" transform="translate(183.64,0) rotate(-45,0,511.4)" style="font-family: 'Open Sans', verdana, arial, sans-serif; font-size: 12px; fill: rgb(51, 51, 51); fill-opacity: 1; white-space: pre;">Finland</text></g><g class="xtick"><text text-anchor="end" x="0" y="517.4" transform="translate(210.83,0) rotate(-45,0,511.4)" style="font-family: 'Open Sans', verdana, arial, sans-serif; font-size: 12px; fill: rgb(51, 51, 51); fill-opacity: 1; white-space: pre;">France</text></g><g class="xtick"><text text-anchor="end" x="0" y="517.4" transform="translate(238.02,0) rotate(-45,0,511.4)" style="font-family: 'Open Sans', verdana, arial, sans-serif; font-size: 12px; fill: rgb(51, 51, 51); fill-opacity: 1; white-space: pre;">Germany</text></g><g class="xtick"><text text-anchor="end" x="0" y="517.4" transform="translate(265.21000000000004,0) rotate(-45,0,511.4)" style="font-family: 'Open Sans', verdana, arial, sans-serif; font-size: 12px; fill: rgb(51, 51, 51); fill-opacity: 1; white-space: pre;">Iceland</text></g><g class="xtick"><text text-anchor="end" x="0" y="517.4" transform="translate(292.4,0) rotate(-45,0,511.4)" style="font-family: 'Open Sans', verdana, arial, sans-serif; font-size: 12px; fill: rgb(51, 51, 51); fill-opacity: 1; white-space: pre;">Ireland</text></g><g class="xtick"><text text-anchor="end" x="0" y="517.4" transform="translate(319.58,0) rotate(-45,0,511.4)" style="font-family: 'Open Sans', verdana, arial, sans-serif; font-size: 12px; fill: rgb(51, 51, 51); fill-opacity: 1; white-space: pre;">Luxembourg</text></g><g class="xtick"><text text-anchor="end" x="0" y="517.4" transform="translate(346.77,0) rotate(-45,0,511.4)" style="font-family: 'Open Sans', verdana, arial, sans-serif; font-size: 12px; fill: rgb(51, 51, 51); fill-opacity: 1; white-space: pre;">Netherlands</text></g><g class="xtick"><text text-anchor="end" x="0" y="517.4" transform="translate(373.96,0) rotate(-45,0,511.4)" style="font-family: 'Open Sans', verdana, arial, sans-serif; font-size: 12px; fill: rgb(51, 51, 51); fill-opacity: 1; white-space: pre;">Norway</text></g><g class="xtick"><text text-anchor="end" x="0" y="517.4" transform="translate(401.15,0) rotate(-45,0,511.4)" style="font-family: 'Open Sans', verdana, arial, sans-serif; font-size: 12px; fill: rgb(51, 51, 51); fill-opacity: 1; white-space: pre;">Sweden</text></g><g class="xtick"><text text-anchor="end" x="0" y="517.4" transform="translate(428.34,0) rotate(-45,0,511.4)" style="font-family: 'Open Sans', verdana, arial, sans-serif; font-size: 12px; fill: rgb(51, 51, 51); fill-opacity: 1; white-space: pre;">Switzerland</text></g><g class="xtick"><text text-anchor="end" x="0" y="517.4" transform="translate(455.53,0) rotate(-45,0,511.4)" style="font-family: 'Open Sans', verdana, arial, sans-serif; font-size: 12px; fill: rgb(51, 51, 51); fill-opacity: 1; white-space: pre;">UK</text></g><g class="xtick"><text text-anchor="end" x="0" y="517.4" transform="translate(482.72,0) rotate(-45,0,511.4)" style="font-family: 'Open Sans', verdana, arial, sans-serif; font-size: 12px; fill: rgb(51, 51, 51); fill-opacity: 1; white-space: pre;">Greece</text></g><g class="xtick"><text text-anchor="end" x="0" y="517.4" transform="translate(509.91,0) rotate(-45,0,511.4)" style="font-family: 'Open Sans', verdana, arial, sans-serif; font-size: 12px; fill: rgb(51, 51, 51); fill-opacity: 1; white-space: pre;">Malta</text></g><g class="xtick"><text text-anchor="end" x="0" y="517.4" transform="translate(537.0899999999999,0) rotate(-45,0,511.4)" style="font-family: 'Open Sans', verdana, arial, sans-serif; font-size: 12px; fill: rgb(51, 51, 51); fill-opacity: 1; white-space: pre;">Italy</text></g><g class="xtick"><text text-anchor="end" x="0" y="517.4" transform="translate(564.28,0) rotate(-45,0,511.4)" style="font-family: 'Open Sans', verdana, arial, sans-serif; font-size: 12px; fill: rgb(51, 51, 51); fill-opacity: 1; white-space: pre;">Portugal</text></g><g class="xtick"><text text-anchor="end" x="0" y="517.4" transform="translate(591.47,0) rotate(-45,0,511.4)" style="font-family: 'Open Sans', verdana, arial, sans-serif; font-size: 12px; fill: rgb(51, 51, 51); fill-opacity: 1; white-space: pre;">Spain</text></g><g class="xtick"><text text-anchor="end" x="0" y="517.4" transform="translate(618.66,0) rotate(-45,0,511.4)" style="font-family: 'Open Sans', verdana, arial, sans-serif; font-size: 12px; fill: rgb(51, 51, 51); fill-opacity: 1; white-space: pre;">Croatia</text></g><g class="xtick"><text text-anchor="end" x="0" y="517.4" transform="translate(645.85,0) rotate(-45,0,511.4)" style="font-family: 'Open Sans', verdana, arial, sans-serif; font-size: 12px; fill: rgb(51, 51, 51); fill-opacity: 1; white-space: pre;">Czechia</text></g><g class="xtick"><text text-anchor="end" x="0" y="517.4" transform="translate(673.04,0) rotate(-45,0,511.4)" style="font-family: 'Open Sans', verdana, arial, sans-serif; font-size: 12px; fill: rgb(51, 51, 51); fill-opacity: 1; white-space: pre;">Estonia</text></g><g class="xtick"><text text-anchor="end" x="0" y="517.4" transform="translate(700.23,0) rotate(-45,0,511.4)" style="font-family: 'Open Sans', verdana, arial, sans-serif; font-size: 12px; fill: rgb(51, 51, 51); fill-opacity: 1; white-space: pre;">Hungary</text></g><g class="xtick"><text text-anchor="end" x="0" y="517.4" transform="translate(727.42,0) rotate(-45,0,511.4)" style="font-family: 'Open Sans', verdana, arial, sans-serif; font-size: 12px; fill: rgb(51, 51, 51); fill-opacity: 1; white-space: pre;">Latvia</text></g><g class="xtick"><text text-anchor="end" x="0" y="517.4" transform="translate(754.6,0) rotate(-45,0,511.4)" style="font-family: 'Open Sans', verdana, arial, sans-serif; font-size: 12px; fill: rgb(51, 51, 51); fill-opacity: 1; white-space: pre;">Lithuania</text></g><g class="xtick"><text text-anchor="end" x="0" y="517.4" transform="translate(781.79,0) rotate(-45,0,511.4)" style="font-family: 'Open Sans', verdana, arial, sans-serif; font-size: 12px; fill: rgb(51, 51, 51); fill-opacity: 1; white-space: pre;">Montenegro</text></g><g class="xtick"><text text-anchor="end" x="0" y="517.4" transform="translate(808.98,0) rotate(-45,0,511.4)" style="font-family: 'Open Sans', verdana, arial, sans-serif; font-size: 12px; fill: rgb(51, 51, 51); fill-opacity: 1; white-space: pre;">N. Macedonia</text></g><g class="xtick"><text text-anchor="end" x="0" y="517.4" transform="translate(836.17,0) rotate(-45,0,511.4)" style="font-family: 'Open Sans', verdana, arial, sans-serif; font-size: 12px; fill: rgb(51, 51, 51); fill-opacity: 1; white-space: pre;">Poland</text></g><g class="xtick"><text text-anchor="end" x="0" y="517.4" transform="translate(863.36,0) rotate(-45,0,511.4)" style="font-family: 'Open Sans', verdana, arial, sans-serif; font-size: 12px; fill: rgb(51, 51, 51); fill-opacity: 1; white-space: pre;">Romania</text></g><g class="xtick"><text text-anchor="end" x="0" y="517.4" transform="translate(890.55,0) rotate(-45,0,511.4)" style="font-family: 'Open Sans', verdana, arial, sans-serif; font-size: 12px; fill: rgb(51, 51, 51); fill-opacity: 1; white-space: pre;">Serbia</text></g><g class="xtick"><text text-anchor="end" x="0" y="517.4" transform="translate(917.74,0) rotate(-45,0,511.4)" style="font-family: 'Open Sans', verdana, arial, sans-serif; font-size: 12px; fill: rgb(51, 51, 51); fill-opacity: 1; white-space: pre;">Slovakia</text></g><g class="xtick"><text text-anchor="end" x="0" y="517.4" transform="translate(944.93,0) rotate(-45,0,511.4)" style="font-family: 'Open Sans', verdana, arial, sans-serif; font-size: 12px; fill: rgb(51, 51, 51); fill-opacity: 1; white-space: pre;">Slovenia</text></g></g><g class="yaxislayer-above"><path class="ytick ticks crisp" d="M47,0h-5" transform="translate(0,429.19)" style="stroke: rgb(51, 51, 51); stroke-opacity: 1; stroke-width: 2px;"/><path class="ytick ticks crisp" d="M47,0h-5" transform="translate(0,343.08)" style="stroke: rgb(51, 51, 51); stroke-opacity: 1; stroke-width: 2px;"/><path class="ytick ticks crisp" d="M47,0h-5" transform="translate(0,256.97)" style="stroke: rgb(51, 51, 51); stroke-opacity: 1; stroke-width: 2px;"/><path class="ytick ticks crisp" d="M47,0h-5" transform="translate(0,170.86)" style="stroke: rgb(51, 51, 51); stroke-opacity: 1; stroke-width: 2px;"/><path class="ytick ticks crisp" d="M47,0h-5" transform="translate(0,84.75999999999999)" style="stroke: rgb(51, 51, 51); stroke-opacity: 1; stroke-width: 2px;"/><g class="ytick"><text text-anchor="end" x="39.6" y="4.199999999999999" transform="translate(0,429.19)" style="font-family: 'Open Sans', verdana, arial, sans-serif; font-size: 12px; fill: rgb(51, 51, 51); fill-opacity: 1; white-space: pre;">0</text></g><g class="ytick"><text text-anchor="end" x="39.6" y="4.199999999999999" transform="translate(0,343.08)" style="font-family: 'Open Sans', verdana, arial, sans-serif; font-size: 12px; fill: rgb(51, 51, 51); fill-opacity: 1; white-space: pre;">5</text></g><g class="ytick"><text text-anchor="end" x="39.6" y="4.199999999999999" transform="translate(0,256.97)" style="font-family: 'Open Sans', verdana, arial, sans-serif; font-size: 12px; fill: rgb(51, 51, 51); fill-opacity: 1; white-space: pre;">10</text></g><g class="ytick"><text text-anchor="end" x="39.6" y="4.199999999999999" transform="translate(0,170.86)" style="font-family: 'Open Sans', verdana, arial, sans-serif; font-size: 12px; fill: rgb(51, 51, 51); fill-opacity: 1; white-space: pre;">15</text></g><g class="ytick"><text text-anchor="end" x="39.6" y="4.199999999999999" transform="translate(0,84.75999999999999)" style="font-family: 'Open Sans', verdana, arial, sans-serif; font-size: 12px; fill: rgb(51, 51, 51); fill-opacity: 1; white-space: pre;">20</text></g></g><g class="overaxes-above"/></g></g><g class="polarlayer"/><g class="ternarylayer"/><g class="geolayer"/><g class="funnelarealayer"/><g class="pielayer"/><g class="treemaplayer"/><g class="sunburstlayer"/><g class="glimages"/><defs id="topdefs-101b22"><g class="clips"/><clipPath id="legend101b22"><rect width="162" height="83" x="2" y="2"/></clipPath></defs><g class="layer-above"><g class="imagelayer"/><g class="shapelayer"><path data-index="0" fill-rule="evenodd" d="M49,429.19L998,429.19" clip-path="url('#clip101b22y')" style="opacity: 0.3; stroke: rgb(0, 0, 0); stroke-opacity: 1; fill: rgb(0, 0, 0); fill-opacity: 1; stroke-width: 1px;"/><path data-index="1" fill-rule="evenodd" d="M469.12,496L469.12,30" clip-path="url('#clip101b22x')" style="opacity: 0.3; stroke: rgb(0, 0, 0); stroke-opacity: 1; fill: rgb(0, 0, 0); fill-opacity: 1; stroke-dasharray: 9px, 9px; stroke-width: 1px;"/><path data-index="2" fill-rule="evenodd" d="M605.07,496L605.07,30" clip-path="url('#clip101b22x')" style="opacity: 0.3; stroke: rgb(0, 0, 0); stroke-opacity: 1; fill: rgb(0, 0, 0); fill-opacity: 1; stroke-dasharray: 9px, 9px; stroke-width: 1px;"/></g></g><g class="infolayer"><g class="legend" pointer-events="all" transform="translate(63.235,43.98000000000001)"><rect class="bg" shape-rendering="crispEdges" width="164" height="85" x="1" y="1" style="stroke: rgb(0, 0, 0); stroke-opacity: 1; fill: rgb(255, 255, 255); fill-opacity: 1; stroke-width: 2px;"/><g class="scrollbox" transform="" clip-path="url('#legend101b22')"><text class="legendtitletext" text-anchor="start" x="4" y="17.6" style="font-family: 'Open Sans', verdana, arial, sans-serif; font-size: 12px; fill: rgb(51, 51, 51); fill-opacity: 1; white-space: pre;"><tspan style="font-weight:bold"> Immigrant women vs. </tspan></text><g class="groups"><g class="traces" transform="translate(2,32.1)" style="opacity: 1;"><text class="legendtext" text-anchor="start" x="40" y="4.680000000000001" style="font-family: 'Open Sans', verdana, arial, sans-serif; font-size: 12px; fill: rgb(51, 51, 51); fill-opacity: 1; white-space: pre;">Native women</text><g class="layers" style="opacity: 1;"><g class="legendfill"/><g class="legendlines"/><g class="legendsymbols"><g class="legendpoints"><path class="scatterpts" transform="translate(20,0)" d="M4.5,0A4.5,4.5 0 1,1 0,-4.5A4.5,4.5 0 0,1 4.5,0Z" style="opacity: 1; stroke-width: 1.5px; fill: rgb(230, 118, 7); fill-opacity: 0.5; stroke: rgb(230, 118, 7); stroke-opacity: 1;"/></g></g></g><rect class="legendtoggle" x="0" y="-9.5" width="134.25" height="19" style="fill: rgb(0, 0, 0); fill-opacity: 0;"/></g><g class="traces" transform="translate(2,51.1)" style="opacity: 1;"><text class="legendtext" text-anchor="start" x="40" y="4.680000000000001" style="font-family: 'Open Sans', verdana, arial, sans-serif; font-size: 12px; fill: rgb(51, 51, 51); fill-opacity: 1; white-space: pre;">Native men</text><g class="layers" style="opacity: 1;"><g class="legendfill"/><g class="legendlines"/><g class="legendsymbols"><g class="legendpoints"><path class="scatterpts" transform="translate(20,0)" d="M0,2.55l2.55,2.55l2.55,-2.55l-2.55,-2.55l2.55,-2.55l-2.55,-2.55l-2.55,2.55l-2.55,-2.55l-2.55,2.55l2.55,2.55l-2.55,2.55l2.55,2.55Z" style="opacity: 1; stroke-width: 1.5px; fill: rgb(136, 34, 85); fill-opacity: 0.5; stroke: rgb(136, 34, 85); stroke-opacity: 1;"/></g></g></g><rect class="legendtoggle" x="0" y="-9.5" width="134.25" height="19" style="fill: rgb(0, 0, 0); fill-opacity: 0;"/></g><g class="traces" transform="translate(2,70.1)" style="opacity: 1;"><text class="legendtext" text-anchor="start" x="40" y="4.680000000000001" style="font-family: 'Open Sans', verdana, arial, sans-serif; font-size: 12px; fill: rgb(51, 51, 51); fill-opacity: 1; white-space: pre;">Immigrant men</text><g class="layers" style="opacity: 1;"><g class="legendfill"/><g class="legendlines"/><g class="legendsymbols"><g class="legendpoints"><path class="scatterpts" transform="translate(20,0)" d="M5.85,0L0,5.85L-5.85,0L0,-5.85Z" style="opacity: 1; stroke-width: 1.5px; fill: rgb(0, 119, 187); fill-opacity: 0.5; stroke: rgb(0, 119, 187); stroke-opacity: 1;"/></g></g></g><rect class="legendtoggle" x="0" y="-9.5" width="134.25" height="19" style="fill: rgb(0, 0, 0); fill-opacity: 0;"/></g></g></g><rect class="scrollbar" rx="20" ry="3" width="0" height="0" x="0" y="0" style="fill: rgb(128, 139, 164); fill-opacity: 1;"/></g><g class="g-gtitle"/><g class="g-xtitle" transform="translate(0,-2.9435546874999545)"><text class="xtitle" x="523.5" y="599.9435546875" text-anchor="middle" style="font-family: 'Open Sans', verdana, arial, sans-serif; font-size: 14px; fill: rgb(51, 51, 51); opacity: 1; font-weight: normal; white-space: pre;">Country</text></g><g class="g-ytitle" transform="translate(14.4716796875,0)"><text class="ytitle" transform="rotate(-90,-0.47187499999999716,263)" x="-0.47187499999999716" y="263" text-anchor="middle" style="font-family: 'Open Sans', verdana, arial, sans-serif; font-size: 14px; fill: rgb(51, 51, 51); opacity: 1; font-weight: normal; white-space: pre;">Gap inunemployment rates (pp)</text></g></g></svg>