<svg class="main-svg" xmlns="http://www.w3.org/2000/svg" xmlns:xlink="http://www.w3.org/1999/xlink" width="1000" height="600" style="" viewBox="0 0 1000 600"><rect x="0" y="0" width="1000" height="600" style="fill: rgb(255, 255, 255); fill-opacity: 0;"/><defs id="defs-b1db4d"><g class="clips"><clipPath id="clipb1db4dxyplot" class="plotclip"><rect width="950" height="469"/></clipPath><clipPath class="axesclip" id="clipb1db4dx"><rect x="48" y="0" width="950" height="600"/></clipPath><clipPath class="axesclip" id="clipb1db4dy"><rect x="0" y="30" width="1000" height="469"/></clipPath><clipPath class="axesclip" id="clipb1db4dxy"><rect x="48" y="30" width="950" height="469"/></clipPath></g><g class="gradients"/></defs><g class="bglayer"><rect class="bg" x="48" y="30" width="950" height="469" style="fill: rgb(237, 237, 237); fill-opacity: 1; stroke-width: 0;"/></g><g class="layer-below"><g class="imagelayer"/><g class="shapelayer"/></g><g class="cartesianlayer"><g class="subplot xy"><g class="layer-subplot"><g class="shapelayer"/><g class="imagelayer"/></g><g class="gridlayer"><g class="x"><path class="xgrid crisp" transform="translate(101.13,0)" d="M0,30v469" style="stroke: rgb(255, 255, 255); stroke-opacity: 1; stroke-width: 1px;"/><path class="xgrid crisp" transform="translate(128.34,0)" d="M0,30v469" style="stroke: rgb(255, 255, 255); stroke-opacity: 1; stroke-width: 1px;"/><path class="xgrid crisp" transform="translate(155.56,0)" d="M0,30v469" style="stroke: rgb(255, 255, 255); stroke-opacity: 1; stroke-width: 1px;"/><path class="xgrid crisp" transform="translate(182.78,0)" d="M0,30v469" style="stroke: rgb(255, 255, 255); stroke-opacity: 1; stroke-width: 1px;"/><path class="xgrid crisp" transform="translate(210,0)" d="M0,30v469" style="stroke: rgb(255, 255, 255); stroke-opacity: 1; stroke-width: 1px;"/><path class="xgrid crisp" transform="translate(237.21,0)" d="M0,30v469" style="stroke: rgb(255, 255, 255); stroke-opacity: 1; stroke-width: 1px;"/><path class="xgrid crisp" transform="translate(264.43,0)" d="M0,30v469" style="stroke: rgb(255, 255, 255); stroke-opacity: 1; stroke-width: 1px;"/><path class="xgrid crisp" transform="translate(291.65,0)" d="M0,30v469" style="stroke: rgb(255, 255, 255); stroke-opacity: 1; stroke-width: 1px;"/><path class="xgrid crisp" transform="translate(318.87,0)" d="M0,30v469" style="stroke: rgb(255, 255, 255); stroke-opacity: 1; stroke-width: 1px;"/><path class="xgrid crisp" transform="translate(346.08,0)" d="M0,30v469" style="stroke: rgb(255, 255, 255); stroke-opacity: 1; stroke-width: 1px;"/><path class="xgrid crisp" transform="translate(373.3,0)" d="M0,30v469" style="stroke: rgb(255, 255, 255); stroke-opacity: 1; stroke-width: 1px;"/><path class="xgrid crisp" transform="translate(400.52,0)" d="M0,30v469" style="stroke: rgb(255, 255, 255); stroke-opacity: 1; stroke-width: 1px;"/><path class="xgrid crisp" transform="translate(427.74,0)" d="M0,30v469" style="stroke: rgb(255, 255, 255); stroke-opacity: 1; stroke-width: 1px;"/><path class="xgrid crisp" transform="translate(454.96,0)" d="M0,30v469" style="stroke: rgb(255, 255, 255); stroke-opacity: 1; stroke-width: 1px;"/><path class="xgrid crisp" transform="translate(482.17,0)" d="M0,30v469" style="stroke: rgb(255, 255, 255); stroke-opacity: 1; stroke-width: 1px;"/><path class="xgrid crisp" transform="translate(509.39,0)" d="M0,30v469" style="stroke: rgb(255, 255, 255); stroke-opacity: 1; stroke-width: 1px;"/><path class="xgrid crisp" transform="translate(536.61,0)" d="M0,30v469" style="stroke: rgb(255, 255, 255); stroke-opacity: 1; stroke-width: 1px;"/><path class="xgrid crisp" transform="translate(563.83,0)" d="M0,30v469" style="stroke: rgb(255, 255, 255); stroke-opacity: 1; stroke-width: 1px;"/><path class="xgrid crisp" transform="translate(591.04,0)" d="M0,30v469" style="stroke: rgb(255, 255, 255); stroke-opacity: 1; stroke-width: 1px;"/><path class="xgrid crisp" transform="translate(618.26,0)" d="M0,30v469" style="stroke: rgb(255, 255, 255); stroke-opacity: 1; stroke-width: 1px;"/><path class="xgrid crisp" transform="translate(645.48,0)" d="M0,30v469" style="stroke: rgb(255, 255, 255); stroke-opacity: 1; stroke-width: 1px;"/><path class="xgrid crisp" transform="translate(672.7,0)" d="M0,30v469" style="stroke: rgb(255, 255, 255); stroke-opacity: 1; stroke-width: 1px;"/><path class="xgrid crisp" transform="translate(699.92,0)" d="M0,30v469" style="stroke: rgb(255, 255, 255); stroke-opacity: 1; stroke-width: 1px;"/><path class="xgrid crisp" transform="translate(727.13,0)" d="M0,30v469" style="stroke: rgb(255, 255, 255); stroke-opacity: 1; stroke-width: 1px;"/><path class="xgrid crisp" transform="translate(754.35,0)" d="M0,30v469" style="stroke: rgb(255, 255, 255); stroke-opacity: 1; stroke-width: 1px;"/><path class="xgrid crisp" transform="translate(781.57,0)" d="M0,30v469" style="stroke: rgb(255, 255, 255); stroke-opacity: 1; stroke-width: 1px;"/><path class="xgrid crisp" transform="translate(808.79,0)" d="M0,30v469" style="stroke: rgb(255, 255, 255); stroke-opacity: 1; stroke-width: 1px;"/><path class="xgrid crisp" transform="translate(836,0)" d="M0,30v469" style="stroke: rgb(255, 255, 255); stroke-opacity: 1; stroke-width: 1px;"/><path class="xgrid crisp" transform="translate(863.22,0)" d="M0,30v469" style="stroke: rgb(255, 255, 255); stroke-opacity: 1; stroke-width: 1px;"/><path class="xgrid crisp" transform="translate(890.44,0)" d="M0,30v469" style="stroke: rgb(255, 255, 255); stroke-opacity: 1; stroke-width: 1px;"/><path class="xgrid crisp" transform="translate(917.66,0)" d="M0,30v469" style="stroke: rgb(255, 255, 255); stroke-opacity: 1; stroke-width: 1px;"/><path class="xgrid crisp" transform="translate(944.88,0)" d="M0,30v469" style="stroke: rgb(255, 255, 255); stroke-opacity: 1; stroke-width: 1px;"/></g><g class="y"><path class="ygrid crisp" transform="translate(0,345.11)" d="M48,0h950" style="stroke: rgb(255, 255, 255); stroke-opacity: 1; stroke-width: 1px;"/><path class="ygrid crisp" transform="translate(0,258.43)" d="M48,0h950" style="stroke: rgb(255, 255, 255); stroke-opacity: 1; stroke-width: 1px;"/><path class="ygrid crisp" transform="translate(0,171.76)" d="M48,0h950" style="stroke: rgb(255, 255, 255); stroke-opacity: 1; stroke-width: 1px;"/><path class="ygrid crisp" transform="translate(0,85.08)" d="M48,0h950" style="stroke: rgb(255, 255, 255); stroke-opacity: 1; stroke-width: 1px;"/></g></g><g class="zerolinelayer"><path class="yzl zl crisp" transform="translate(0,431.79)" d="M48,0h950" style="stroke: rgb(255, 255, 255); stroke-opacity: 1; stroke-width: 1px;"/></g><path class="xlines-below"/><path class="ylines-below"/><g class="overlines-below"/><g class="xaxislayer-below"/><g class="yaxislayer-below"/><g class="overaxes-below"/><g class="plot" transform="translate(48,30)" clip-path="url('#clipb1db4dxyplot')"><g class="scatterlayer mlayer"><g class="trace scatter tracefd3514" style="stroke-miterlimit: 2; opacity: 1;"><g class="fills"/><g class="errorbars"/><g class="lines"/><g class="points"><path class="point" transform="translate(53.13,398.32)" d="M5.85,0L0,5.85L-5.85,0L0,-5.85Z" style="opacity: 1; stroke-width: 1.5px; fill: rgb(0, 119, 187); fill-opacity: 0.5; stroke: rgb(0, 119, 187); stroke-opacity: 1;"/><path class="point" transform="translate(80.34,400.05)" d="M5.85,0L0,5.85L-5.85,0L0,-5.85Z" style="opacity: 1; stroke-width: 1.5px; fill: rgb(0, 119, 187); fill-opacity: 0.5; stroke: rgb(0, 119, 187); stroke-opacity: 1;"/><path class="point" transform="translate(107.56,382.72)" d="M5.85,0L0,5.85L-5.85,0L0,-5.85Z" style="opacity: 1; stroke-width: 1.5px; fill: rgb(0, 119, 187); fill-opacity: 0.5; stroke: rgb(0, 119, 187); stroke-opacity: 1;"/><path class="point" transform="translate(134.78,360.18)" d="M5.85,0L0,5.85L-5.85,0L0,-5.85Z" style="opacity: 1; stroke-width: 1.5px; fill: rgb(0, 119, 187); fill-opacity: 0.5; stroke: rgb(0, 119, 187); stroke-opacity: 1;"/><path class="point" transform="translate(162,375.78)" d="M5.85,0L0,5.85L-5.85,0L0,-5.85Z" style="opacity: 1; stroke-width: 1.5px; fill: rgb(0, 119, 187); fill-opacity: 0.5; stroke: rgb(0, 119, 187); stroke-opacity: 1;"/><path class="point" transform="translate(189.21,422.59)" d="M5.85,0L0,5.85L-5.85,0L0,-5.85Z" style="opacity: 1; stroke-width: 1.5px; fill: rgb(0, 119, 187); fill-opacity: 0.5; stroke: rgb(0, 119, 187); stroke-opacity: 1;"/><path class="point" transform="translate(243.65,391.39)" d="M5.85,0L0,5.85L-5.85,0L0,-5.85Z" style="opacity: 1; stroke-width: 1.5px; fill: rgb(0, 119, 187); fill-opacity: 0.5; stroke: rgb(0, 119, 187); stroke-opacity: 1;"/><path class="point" transform="translate(270.87,403.52)" d="M5.85,0L0,5.85L-5.85,0L0,-5.85Z" style="opacity: 1; stroke-width: 1.5px; fill: rgb(0, 119, 187); fill-opacity: 0.5; stroke: rgb(0, 119, 187); stroke-opacity: 1;"/><path class="point" transform="translate(298.08,382.72)" d="M5.85,0L0,5.85L-5.85,0L0,-5.85Z" style="opacity: 1; stroke-width: 1.5px; fill: rgb(0, 119, 187); fill-opacity: 0.5; stroke: rgb(0, 119, 187); stroke-opacity: 1;"/><path class="point" transform="translate(325.3,412.19)" d="M5.85,0L0,5.85L-5.85,0L0,-5.85Z" style="opacity: 1; stroke-width: 1.5px; fill: rgb(0, 119, 187); fill-opacity: 0.5; stroke: rgb(0, 119, 187); stroke-opacity: 1;"/><path class="point" transform="translate(352.52,367.12)" d="M5.85,0L0,5.85L-5.85,0L0,-5.85Z" style="opacity: 1; stroke-width: 1.5px; fill: rgb(0, 119, 187); fill-opacity: 0.5; stroke: rgb(0, 119, 187); stroke-opacity: 1;"/><path class="point" transform="translate(379.74,374.05)" d="M5.85,0L0,5.85L-5.85,0L0,-5.85Z" style="opacity: 1; stroke-width: 1.5px; fill: rgb(0, 119, 187); fill-opacity: 0.5; stroke: rgb(0, 119, 187); stroke-opacity: 1;"/><path class="point" transform="translate(406.96,380.98)" d="M5.85,0L0,5.85L-5.85,0L0,-5.85Z" style="opacity: 1; stroke-width: 1.5px; fill: rgb(0, 119, 187); fill-opacity: 0.5; stroke: rgb(0, 119, 187); stroke-opacity: 1;"/><path class="point" transform="translate(434.17,209.36)" d="M5.85,0L0,5.85L-5.85,0L0,-5.85Z" style="opacity: 1; stroke-width: 1.5px; fill: rgb(0, 119, 187); fill-opacity: 0.5; stroke: rgb(0, 119, 187); stroke-opacity: 1;"/><path class="point" transform="translate(461.39,387.92)" d="M5.85,0L0,5.85L-5.85,0L0,-5.85Z" style="opacity: 1; stroke-width: 1.5px; fill: rgb(0, 119, 187); fill-opacity: 0.5; stroke: rgb(0, 119, 187); stroke-opacity: 1;"/><path class="point" transform="translate(488.61,322.04)" d="M5.85,0L0,5.85L-5.85,0L0,-5.85Z" style="opacity: 1; stroke-width: 1.5px; fill: rgb(0, 119, 187); fill-opacity: 0.5; stroke: rgb(0, 119, 187); stroke-opacity: 1;"/><path class="point" transform="translate(515.83,327.24)" d="M5.85,0L0,5.85L-5.85,0L0,-5.85Z" style="opacity: 1; stroke-width: 1.5px; fill: rgb(0, 119, 187); fill-opacity: 0.5; stroke: rgb(0, 119, 187); stroke-opacity: 1;"/><path class="point" transform="translate(543.04,322.04)" d="M5.85,0L0,5.85L-5.85,0L0,-5.85Z" style="opacity: 1; stroke-width: 1.5px; fill: rgb(0, 119, 187); fill-opacity: 0.5; stroke: rgb(0, 119, 187); stroke-opacity: 1;"/><path class="point" transform="translate(760.79,198.96)" d="M5.85,0L0,5.85L-5.85,0L0,-5.85Z" style="opacity: 1; stroke-width: 1.5px; fill: rgb(0, 119, 187); fill-opacity: 0.5; stroke: rgb(0, 119, 187); stroke-opacity: 1;"/><path class="point" transform="translate(842.44,365.38)" d="M5.85,0L0,5.85L-5.85,0L0,-5.85Z" style="opacity: 1; stroke-width: 1.5px; fill: rgb(0, 119, 187); fill-opacity: 0.5; stroke: rgb(0, 119, 187); stroke-opacity: 1;"/></g><g class="text"/></g><g class="trace scatter tracecceab5" style="stroke-miterlimit: 2; opacity: 1;"><g class="fills"/><g class="errorbars"/><g class="lines"/><g class="points"><path class="point" transform="translate(53.13,320.31)" d="M0,2.55l2.55,2.55l2.55,-2.55l-2.55,-2.55l2.55,-2.55l-2.55,-2.55l-2.55,2.55l-2.55,-2.55l-2.55,2.55l2.55,2.55l-2.55,2.55l2.55,2.55Z" style="opacity: 1; stroke-width: 1.5px; fill: rgb(0, 119, 187); fill-opacity: 0.5; stroke: rgb(0, 119, 187); stroke-opacity: 1;"/><path class="point" transform="translate(80.34,302.98)" d="M0,2.55l2.55,2.55l2.55,-2.55l-2.55,-2.55l2.55,-2.55l-2.55,-2.55l-2.55,2.55l-2.55,-2.55l-2.55,2.55l2.55,2.55l-2.55,2.55l2.55,2.55Z" style="opacity: 1; stroke-width: 1.5px; fill: rgb(0, 119, 187); fill-opacity: 0.5; stroke: rgb(0, 119, 187); stroke-opacity: 1;"/><path class="point" transform="translate(107.56,325.51)" d="M0,2.55l2.55,2.55l2.55,-2.55l-2.55,-2.55l2.55,-2.55l-2.55,-2.55l-2.55,2.55l-2.55,-2.55l-2.55,2.55l2.55,2.55l-2.55,2.55l2.55,2.55Z" style="opacity: 1; stroke-width: 1.5px; fill: rgb(0, 119, 187); fill-opacity: 0.5; stroke: rgb(0, 119, 187); stroke-opacity: 1;"/><path class="point" transform="translate(134.78,296.04)" d="M0,2.55l2.55,2.55l2.55,-2.55l-2.55,-2.55l2.55,-2.55l-2.55,-2.55l-2.55,2.55l-2.55,-2.55l-2.55,2.55l2.55,2.55l-2.55,2.55l2.55,2.55Z" style="opacity: 1; stroke-width: 1.5px; fill: rgb(0, 119, 187); fill-opacity: 0.5; stroke: rgb(0, 119, 187); stroke-opacity: 1;"/><path class="point" transform="translate(162,299.51)" d="M0,2.55l2.55,2.55l2.55,-2.55l-2.55,-2.55l2.55,-2.55l-2.55,-2.55l-2.55,2.55l-2.55,-2.55l-2.55,2.55l2.55,2.55l-2.55,2.55l2.55,2.55Z" style="opacity: 1; stroke-width: 1.5px; fill: rgb(0, 119, 187); fill-opacity: 0.5; stroke: rgb(0, 119, 187); stroke-opacity: 1;"/><path class="point" transform="translate(189.21,367.12)" d="M0,2.55l2.55,2.55l2.55,-2.55l-2.55,-2.55l2.55,-2.55l-2.55,-2.55l-2.55,2.55l-2.55,-2.55l-2.55,2.55l2.55,2.55l-2.55,2.55l2.55,2.55Z" style="opacity: 1; stroke-width: 1.5px; fill: rgb(0, 119, 187); fill-opacity: 0.5; stroke: rgb(0, 119, 187); stroke-opacity: 1;"/><path class="point" transform="translate(243.65,386.19)" d="M0,2.55l2.55,2.55l2.55,-2.55l-2.55,-2.55l2.55,-2.55l-2.55,-2.55l-2.55,2.55l-2.55,-2.55l-2.55,2.55l2.55,2.55l-2.55,2.55l2.55,2.55Z" style="opacity: 1; stroke-width: 1.5px; fill: rgb(0, 119, 187); fill-opacity: 0.5; stroke: rgb(0, 119, 187); stroke-opacity: 1;"/><path class="point" transform="translate(270.87,360.18)" d="M0,2.55l2.55,2.55l2.55,-2.55l-2.55,-2.55l2.55,-2.55l-2.55,-2.55l-2.55,2.55l-2.55,-2.55l-2.55,2.55l2.55,2.55l-2.55,2.55l2.55,2.55Z" style="opacity: 1; stroke-width: 1.5px; fill: rgb(0, 119, 187); fill-opacity: 0.5; stroke: rgb(0, 119, 187); stroke-opacity: 1;"/><path class="point" transform="translate(298.08,341.11)" d="M0,2.55l2.55,2.55l2.55,-2.55l-2.55,-2.55l2.55,-2.55l-2.55,-2.55l-2.55,2.55l-2.55,-2.55l-2.55,2.55l2.55,2.55l-2.55,2.55l2.55,2.55Z" style="opacity: 1; stroke-width: 1.5px; fill: rgb(0, 119, 187); fill-opacity: 0.5; stroke: rgb(0, 119, 187); stroke-opacity: 1;"/><path class="point" transform="translate(325.3,332.45)" d="M0,2.55l2.55,2.55l2.55,-2.55l-2.55,-2.55l2.55,-2.55l-2.55,-2.55l-2.55,2.55l-2.55,-2.55l-2.55,2.55l2.55,2.55l-2.55,2.55l2.55,2.55Z" style="opacity: 1; stroke-width: 1.5px; fill: rgb(0, 119, 187); fill-opacity: 0.5; stroke: rgb(0, 119, 187); stroke-opacity: 1;"/><path class="point" transform="translate(352.52,192.03)" d="M0,2.55l2.55,2.55l2.55,-2.55l-2.55,-2.55l2.55,-2.55l-2.55,-2.55l-2.55,2.55l-2.55,-2.55l-2.55,2.55l2.55,2.55l-2.55,2.55l2.55,2.55Z" style="opacity: 1; stroke-width: 1.5px; fill: rgb(0, 119, 187); fill-opacity: 0.5; stroke: rgb(0, 119, 187); stroke-opacity: 1;"/><path class="point" transform="translate(379.74,315.11)" d="M0,2.55l2.55,2.55l2.55,-2.55l-2.55,-2.55l2.55,-2.55l-2.55,-2.55l-2.55,2.55l-2.55,-2.55l-2.55,2.55l2.55,2.55l-2.55,2.55l2.55,2.55Z" style="opacity: 1; stroke-width: 1.5px; fill: rgb(0, 119, 187); fill-opacity: 0.5; stroke: rgb(0, 119, 187); stroke-opacity: 1;"/><path class="point" transform="translate(406.96,387.92)" d="M0,2.55l2.55,2.55l2.55,-2.55l-2.55,-2.55l2.55,-2.55l-2.55,-2.55l-2.55,2.55l-2.55,-2.55l-2.55,2.55l2.55,2.55l-2.55,2.55l2.55,2.55Z" style="opacity: 1; stroke-width: 1.5px; fill: rgb(0, 119, 187); fill-opacity: 0.5; stroke: rgb(0, 119, 187); stroke-opacity: 1;"/><path class="point" transform="translate(434.17,29.08)" d="M0,2.55l2.55,2.55l2.55,-2.55l-2.55,-2.55l2.55,-2.55l-2.55,-2.55l-2.55,2.55l-2.55,-2.55l-2.55,2.55l2.55,2.55l-2.55,2.55l2.55,2.55Z" style="opacity: 1; stroke-width: 1.5px; fill: rgb(0, 119, 187); fill-opacity: 0.5; stroke: rgb(0, 119, 187); stroke-opacity: 1;"/><path class="point" transform="translate(461.39,374.05)" d="M0,2.55l2.55,2.55l2.55,-2.55l-2.55,-2.55l2.55,-2.55l-2.55,-2.55l-2.55,2.55l-2.55,-2.55l-2.55,2.55l2.55,2.55l-2.55,2.55l2.55,2.55Z" style="opacity: 1; stroke-width: 1.5px; fill: rgb(0, 119, 187); fill-opacity: 0.5; stroke: rgb(0, 119, 187); stroke-opacity: 1;"/><path class="point" transform="translate(488.61,287.37)" d="M0,2.55l2.55,2.55l2.55,-2.55l-2.55,-2.55l2.55,-2.55l-2.55,-2.55l-2.55,2.55l-2.55,-2.55l-2.55,2.55l2.55,2.55l-2.55,2.55l2.55,2.55Z" style="opacity: 1; stroke-width: 1.5px; fill: rgb(0, 119, 187); fill-opacity: 0.5; stroke: rgb(0, 119, 187); stroke-opacity: 1;"/><path class="point" transform="translate(515.83,325.51)" d="M0,2.55l2.55,2.55l2.55,-2.55l-2.55,-2.55l2.55,-2.55l-2.55,-2.55l-2.55,2.55l-2.55,-2.55l-2.55,2.55l2.55,2.55l-2.55,2.55l2.55,2.55Z" style="opacity: 1; stroke-width: 1.5px; fill: rgb(0, 119, 187); fill-opacity: 0.5; stroke: rgb(0, 119, 187); stroke-opacity: 1;"/><path class="point" transform="translate(543.04,233.63)" d="M0,2.55l2.55,2.55l2.55,-2.55l-2.55,-2.55l2.55,-2.55l-2.55,-2.55l-2.55,2.55l-2.55,-2.55l-2.55,2.55l2.55,2.55l-2.55,2.55l2.55,2.55Z" style="opacity: 1; stroke-width: 1.5px; fill: rgb(0, 119, 187); fill-opacity: 0.5; stroke: rgb(0, 119, 187); stroke-opacity: 1;"/><path class="point" transform="translate(597.48,348.05)" d="M0,2.55l2.55,2.55l2.55,-2.55l-2.55,-2.55l2.55,-2.55l-2.55,-2.55l-2.55,2.55l-2.55,-2.55l-2.55,2.55l2.55,2.55l-2.55,2.55l2.55,2.55Z" style="opacity: 1; stroke-width: 1.5px; fill: rgb(0, 119, 187); fill-opacity: 0.5; stroke: rgb(0, 119, 187); stroke-opacity: 1;"/><path class="point" transform="translate(624.7,354.98)" d="M0,2.55l2.55,2.55l2.55,-2.55l-2.55,-2.55l2.55,-2.55l-2.55,-2.55l-2.55,2.55l-2.55,-2.55l-2.55,2.55l2.55,2.55l-2.55,2.55l2.55,2.55Z" style="opacity: 1; stroke-width: 1.5px; fill: rgb(0, 119, 187); fill-opacity: 0.5; stroke: rgb(0, 119, 187); stroke-opacity: 1;"/><path class="point" transform="translate(760.79,271.77)" d="M0,2.55l2.55,2.55l2.55,-2.55l-2.55,-2.55l2.55,-2.55l-2.55,-2.55l-2.55,2.55l-2.55,-2.55l-2.55,2.55l2.55,2.55l-2.55,2.55l2.55,2.55Z" style="opacity: 1; stroke-width: 1.5px; fill: rgb(0, 119, 187); fill-opacity: 0.5; stroke: rgb(0, 119, 187); stroke-opacity: 1;"/><path class="point" transform="translate(842.44,422.59)" d="M0,2.55l2.55,2.55l2.55,-2.55l-2.55,-2.55l2.55,-2.55l-2.55,-2.55l-2.55,2.55l-2.55,-2.55l-2.55,2.55l2.55,2.55l-2.55,2.55l2.55,2.55Z" style="opacity: 1; stroke-width: 1.5px; fill: rgb(0, 119, 187); fill-opacity: 0.5; stroke: rgb(0, 119, 187); stroke-opacity: 1;"/></g><g class="text"/></g><g class="trace scatter trace9bbd75" style="stroke-miterlimit: 2; opacity: 1;"><g class="fills"/><g class="errorbars"/><g class="lines"/><g class="points"><path class="point" transform="translate(53.13,313.38)" d="M4.5,0A4.5,4.5 0 1,1 0,-4.5A4.5,4.5 0 0,1 4.5,0Z" style="opacity: 1; stroke-width: 1.5px; fill: rgb(0, 119, 187); fill-opacity: 0.5; stroke: rgb(0, 119, 187); stroke-opacity: 1;"/><path class="point" transform="translate(80.34,287.37)" d="M4.5,0A4.5,4.5 0 1,1 0,-4.5A4.5,4.5 0 0,1 4.5,0Z" style="opacity: 1; stroke-width: 1.5px; fill: rgb(0, 119, 187); fill-opacity: 0.5; stroke: rgb(0, 119, 187); stroke-opacity: 1;"/><path class="point" transform="translate(107.56,330.71)" d="M4.5,0A4.5,4.5 0 1,1 0,-4.5A4.5,4.5 0 0,1 4.5,0Z" style="opacity: 1; stroke-width: 1.5px; fill: rgb(0, 119, 187); fill-opacity: 0.5; stroke: rgb(0, 119, 187); stroke-opacity: 1;"/><path class="point" transform="translate(134.78,273.5)" d="M4.5,0A4.5,4.5 0 1,1 0,-4.5A4.5,4.5 0 0,1 4.5,0Z" style="opacity: 1; stroke-width: 1.5px; fill: rgb(0, 119, 187); fill-opacity: 0.5; stroke: rgb(0, 119, 187); stroke-opacity: 1;"/><path class="point" transform="translate(162,294.31)" d="M4.5,0A4.5,4.5 0 1,1 0,-4.5A4.5,4.5 0 0,1 4.5,0Z" style="opacity: 1; stroke-width: 1.5px; fill: rgb(0, 119, 187); fill-opacity: 0.5; stroke: rgb(0, 119, 187); stroke-opacity: 1;"/><path class="point" transform="translate(189.21,356.71)" d="M4.5,0A4.5,4.5 0 1,1 0,-4.5A4.5,4.5 0 0,1 4.5,0Z" style="opacity: 1; stroke-width: 1.5px; fill: rgb(0, 119, 187); fill-opacity: 0.5; stroke: rgb(0, 119, 187); stroke-opacity: 1;"/><path class="point" transform="translate(243.65,368.85)" d="M4.5,0A4.5,4.5 0 1,1 0,-4.5A4.5,4.5 0 0,1 4.5,0Z" style="opacity: 1; stroke-width: 1.5px; fill: rgb(0, 119, 187); fill-opacity: 0.5; stroke: rgb(0, 119, 187); stroke-opacity: 1;"/><path class="point" transform="translate(270.87,351.51)" d="M4.5,0A4.5,4.5 0 1,1 0,-4.5A4.5,4.5 0 0,1 4.5,0Z" style="opacity: 1; stroke-width: 1.5px; fill: rgb(0, 119, 187); fill-opacity: 0.5; stroke: rgb(0, 119, 187); stroke-opacity: 1;"/><path class="point" transform="translate(298.08,335.91)" d="M4.5,0A4.5,4.5 0 1,1 0,-4.5A4.5,4.5 0 0,1 4.5,0Z" style="opacity: 1; stroke-width: 1.5px; fill: rgb(0, 119, 187); fill-opacity: 0.5; stroke: rgb(0, 119, 187); stroke-opacity: 1;"/><path class="point" transform="translate(325.3,323.78)" d="M4.5,0A4.5,4.5 0 1,1 0,-4.5A4.5,4.5 0 0,1 4.5,0Z" style="opacity: 1; stroke-width: 1.5px; fill: rgb(0, 119, 187); fill-opacity: 0.5; stroke: rgb(0, 119, 187); stroke-opacity: 1;"/><path class="point" transform="translate(352.52,192.03)" d="M4.5,0A4.5,4.5 0 1,1 0,-4.5A4.5,4.5 0 0,1 4.5,0Z" style="opacity: 1; stroke-width: 1.5px; fill: rgb(0, 119, 187); fill-opacity: 0.5; stroke: rgb(0, 119, 187); stroke-opacity: 1;"/><path class="point" transform="translate(379.74,318.58)" d="M4.5,0A4.5,4.5 0 1,1 0,-4.5A4.5,4.5 0 0,1 4.5,0Z" style="opacity: 1; stroke-width: 1.5px; fill: rgb(0, 119, 187); fill-opacity: 0.5; stroke: rgb(0, 119, 187); stroke-opacity: 1;"/><path class="point" transform="translate(406.96,374.05)" d="M4.5,0A4.5,4.5 0 1,1 0,-4.5A4.5,4.5 0 0,1 4.5,0Z" style="opacity: 1; stroke-width: 1.5px; fill: rgb(0, 119, 187); fill-opacity: 0.5; stroke: rgb(0, 119, 187); stroke-opacity: 1;"/><path class="point" transform="translate(434.17,153.89)" d="M4.5,0A4.5,4.5 0 1,1 0,-4.5A4.5,4.5 0 0,1 4.5,0Z" style="opacity: 1; stroke-width: 1.5px; fill: rgb(0, 119, 187); fill-opacity: 0.5; stroke: rgb(0, 119, 187); stroke-opacity: 1;"/><path class="point" transform="translate(461.39,384.45)" d="M4.5,0A4.5,4.5 0 1,1 0,-4.5A4.5,4.5 0 0,1 4.5,0Z" style="opacity: 1; stroke-width: 1.5px; fill: rgb(0, 119, 187); fill-opacity: 0.5; stroke: rgb(0, 119, 187); stroke-opacity: 1;"/><path class="point" transform="translate(488.61,313.38)" d="M4.5,0A4.5,4.5 0 1,1 0,-4.5A4.5,4.5 0 0,1 4.5,0Z" style="opacity: 1; stroke-width: 1.5px; fill: rgb(0, 119, 187); fill-opacity: 0.5; stroke: rgb(0, 119, 187); stroke-opacity: 1;"/><path class="point" transform="translate(515.83,339.38)" d="M4.5,0A4.5,4.5 0 1,1 0,-4.5A4.5,4.5 0 0,1 4.5,0Z" style="opacity: 1; stroke-width: 1.5px; fill: rgb(0, 119, 187); fill-opacity: 0.5; stroke: rgb(0, 119, 187); stroke-opacity: 1;"/><path class="point" transform="translate(543.04,289.11)" d="M4.5,0A4.5,4.5 0 1,1 0,-4.5A4.5,4.5 0 0,1 4.5,0Z" style="opacity: 1; stroke-width: 1.5px; fill: rgb(0, 119, 187); fill-opacity: 0.5; stroke: rgb(0, 119, 187); stroke-opacity: 1;"/><path class="point" transform="translate(597.48,356.71)" d="M4.5,0A4.5,4.5 0 1,1 0,-4.5A4.5,4.5 0 0,1 4.5,0Z" style="opacity: 1; stroke-width: 1.5px; fill: rgb(0, 119, 187); fill-opacity: 0.5; stroke: rgb(0, 119, 187); stroke-opacity: 1;"/><path class="point" transform="translate(624.7,368.85)" d="M4.5,0A4.5,4.5 0 1,1 0,-4.5A4.5,4.5 0 0,1 4.5,0Z" style="opacity: 1; stroke-width: 1.5px; fill: rgb(0, 119, 187); fill-opacity: 0.5; stroke: rgb(0, 119, 187); stroke-opacity: 1;"/><path class="point" transform="translate(760.79,301.24)" d="M4.5,0A4.5,4.5 0 1,1 0,-4.5A4.5,4.5 0 0,1 4.5,0Z" style="opacity: 1; stroke-width: 1.5px; fill: rgb(0, 119, 187); fill-opacity: 0.5; stroke: rgb(0, 119, 187); stroke-opacity: 1;"/><path class="point" transform="translate(842.44,439.93)" d="M4.5,0A4.5,4.5 0 1,1 0,-4.5A4.5,4.5 0 0,1 4.5,0Z" style="opacity: 1; stroke-width: 1.5px; fill: rgb(0, 119, 187); fill-opacity: 0.5; stroke: rgb(0, 119, 187); stroke-opacity: 1;"/></g><g class="text"/></g><g class="trace scatter trace0552d5" style="stroke-miterlimit: 2; opacity: 1;"><g class="fills"/><g class="errorbars"/><g class="lines"/><g class="points"><path class="point" transform="translate(570.26,406.99)" d="M5.85,0L0,5.85L-5.85,0L0,-5.85Z" style="opacity: 1; stroke-width: 1.5px; fill: rgb(136, 204, 238); fill-opacity: 0.5; stroke: rgb(136, 204, 238); stroke-opacity: 1;"/><path class="point" transform="translate(597.48,339.38)" d="M5.85,0L0,5.85L-5.85,0L0,-5.85Z" style="opacity: 1; stroke-width: 1.5px; fill: rgb(136, 204, 238); fill-opacity: 0.5; stroke: rgb(136, 204, 238); stroke-opacity: 1;"/><path class="point" transform="translate(624.7,382.72)" d="M5.85,0L0,5.85L-5.85,0L0,-5.85Z" style="opacity: 1; stroke-width: 1.5px; fill: rgb(136, 204, 238); fill-opacity: 0.5; stroke: rgb(136, 204, 238); stroke-opacity: 1;"/><path class="point" transform="translate(679.13,429.52)" d="M5.85,0L0,5.85L-5.85,0L0,-5.85Z" style="opacity: 1; stroke-width: 1.5px; fill: rgb(136, 204, 238); fill-opacity: 0.5; stroke: rgb(136, 204, 238); stroke-opacity: 1;"/><path class="point" transform="translate(706.35,380.98)" d="M5.85,0L0,5.85L-5.85,0L0,-5.85Z" style="opacity: 1; stroke-width: 1.5px; fill: rgb(136, 204, 238); fill-opacity: 0.5; stroke: rgb(136, 204, 238); stroke-opacity: 1;"/><path class="point" transform="translate(896.88,356.71)" d="M5.85,0L0,5.85L-5.85,0L0,-5.85Z" style="opacity: 1; stroke-width: 1.5px; fill: rgb(136, 204, 238); fill-opacity: 0.5; stroke: rgb(136, 204, 238); stroke-opacity: 1;"/></g><g class="text"/></g><g class="trace scatter trace541ae9" style="stroke-miterlimit: 2; opacity: 1;"><g class="fills"/><g class="errorbars"/><g class="lines"/><g class="points"><path class="point" transform="translate(570.26,405.25)" d="M0,2.55l2.55,2.55l2.55,-2.55l-2.55,-2.55l2.55,-2.55l-2.55,-2.55l-2.55,2.55l-2.55,-2.55l-2.55,2.55l2.55,2.55l-2.55,2.55l2.55,2.55Z" style="opacity: 1; stroke-width: 1.5px; fill: rgb(136, 204, 238); fill-opacity: 0.5; stroke: rgb(136, 204, 238); stroke-opacity: 1;"/><path class="point" transform="translate(679.13,419.12)" d="M0,2.55l2.55,2.55l2.55,-2.55l-2.55,-2.55l2.55,-2.55l-2.55,-2.55l-2.55,2.55l-2.55,-2.55l-2.55,2.55l2.55,2.55l-2.55,2.55l2.55,2.55Z" style="opacity: 1; stroke-width: 1.5px; fill: rgb(136, 204, 238); fill-opacity: 0.5; stroke: rgb(136, 204, 238); stroke-opacity: 1;"/><path class="point" transform="translate(706.35,422.59)" d="M0,2.55l2.55,2.55l2.55,-2.55l-2.55,-2.55l2.55,-2.55l-2.55,-2.55l-2.55,2.55l-2.55,-2.55l-2.55,2.55l2.55,2.55l-2.55,2.55l2.55,2.55Z" style="opacity: 1; stroke-width: 1.5px; fill: rgb(136, 204, 238); fill-opacity: 0.5; stroke: rgb(136, 204, 238); stroke-opacity: 1;"/><path class="point" transform="translate(896.88,341.11)" d="M0,2.55l2.55,2.55l2.55,-2.55l-2.55,-2.55l2.55,-2.55l-2.55,-2.55l-2.55,2.55l-2.55,-2.55l-2.55,2.55l2.55,2.55l-2.55,2.55l2.55,2.55Z" style="opacity: 1; stroke-width: 1.5px; fill: rgb(136, 204, 238); fill-opacity: 0.5; stroke: rgb(136, 204, 238); stroke-opacity: 1;"/></g><g class="text"/></g><g class="trace scatter traced127f0" style="stroke-miterlimit: 2; opacity: 1;"><g class="fills"/><g class="errorbars"/><g class="lines"/><g class="points"><path class="point" transform="translate(570.26,426.06)" d="M4.5,0A4.5,4.5 0 1,1 0,-4.5A4.5,4.5 0 0,1 4.5,0Z" style="opacity: 1; stroke-width: 1.5px; fill: rgb(136, 204, 238); fill-opacity: 0.5; stroke: rgb(136, 204, 238); stroke-opacity: 1;"/><path class="point" transform="translate(679.13,389.65)" d="M4.5,0A4.5,4.5 0 1,1 0,-4.5A4.5,4.5 0 0,1 4.5,0Z" style="opacity: 1; stroke-width: 1.5px; fill: rgb(136, 204, 238); fill-opacity: 0.5; stroke: rgb(136, 204, 238); stroke-opacity: 1;"/><path class="point" transform="translate(706.35,393.12)" d="M4.5,0A4.5,4.5 0 1,1 0,-4.5A4.5,4.5 0 0,1 4.5,0Z" style="opacity: 1; stroke-width: 1.5px; fill: rgb(136, 204, 238); fill-opacity: 0.5; stroke: rgb(136, 204, 238); stroke-opacity: 1;"/><path class="point" transform="translate(896.88,354.98)" d="M4.5,0A4.5,4.5 0 1,1 0,-4.5A4.5,4.5 0 0,1 4.5,0Z" style="opacity: 1; stroke-width: 1.5px; fill: rgb(136, 204, 238); fill-opacity: 0.5; stroke: rgb(136, 204, 238); stroke-opacity: 1;"/></g><g class="text"/></g></g></g><g class="overplot"/><path class="xlines-above crisp" d="M46,500H1000M46,29H1000" style="fill: none; stroke-width: 2px; stroke: rgb(0, 0, 0); stroke-opacity: 1;"/><path class="ylines-above crisp" d="M47,30V499M999,30V499" style="fill: none; stroke-width: 2px; stroke: rgb(0, 0, 0); stroke-opacity: 1;"/><g class="overlines-above"/><g class="xaxislayer-above"><path class="xtick ticks crisp" d="M0,501v5" transform="translate(101.13,0)" style="stroke: rgb(51, 51, 51); stroke-opacity: 1; stroke-width: 2px;"/><path class="xtick ticks crisp" d="M0,501v5" transform="translate(128.34,0)" style="stroke: rgb(51, 51, 51); stroke-opacity: 1; stroke-width: 2px;"/><path class="xtick ticks crisp" d="M0,501v5" transform="translate(155.56,0)" style="stroke: rgb(51, 51, 51); stroke-opacity: 1; stroke-width: 2px;"/><path class="xtick ticks crisp" d="M0,501v5" transform="translate(182.78,0)" style="stroke: rgb(51, 51, 51); stroke-opacity: 1; stroke-width: 2px;"/><path class="xtick ticks crisp" d="M0,501v5" transform="translate(210,0)" style="stroke: rgb(51, 51, 51); stroke-opacity: 1; stroke-width: 2px;"/><path class="xtick ticks crisp" d="M0,501v5" transform="translate(237.21,0)" style="stroke: rgb(51, 51, 51); stroke-opacity: 1; stroke-width: 2px;"/><path class="xtick ticks crisp" d="M0,501v5" transform="translate(264.43,0)" style="stroke: rgb(51, 51, 51); stroke-opacity: 1; stroke-width: 2px;"/><path class="xtick ticks crisp" d="M0,501v5" transform="translate(291.65,0)" style="stroke: rgb(51, 51, 51); stroke-opacity: 1; stroke-width: 2px;"/><path class="xtick ticks crisp" d="M0,501v5" transform="translate(318.87,0)" style="stroke: rgb(51, 51, 51); stroke-opacity: 1; stroke-width: 2px;"/><path class="xtick ticks crisp" d="M0,501v5" transform="translate(346.08,0)" style="stroke: rgb(51, 51, 51); stroke-opacity: 1; stroke-width: 2px;"/><path class="xtick ticks crisp" d="M0,501v5" transform="translate(373.3,0)" style="stroke: rgb(51, 51, 51); stroke-opacity: 1; stroke-width: 2px;"/><path class="xtick ticks crisp" d="M0,501v5" transform="translate(400.52,0)" style="stroke: rgb(51, 51, 51); stroke-opacity: 1; stroke-width: 2px;"/><path class="xtick ticks crisp" d="M0,501v5" transform="translate(427.74,0)" style="stroke: rgb(51, 51, 51); stroke-opacity: 1; stroke-width: 2px;"/><path class="xtick ticks crisp" d="M0,501v5" transform="translate(454.96,0)" style="stroke: rgb(51, 51, 51); stroke-opacity: 1; stroke-width: 2px;"/><path class="xtick ticks crisp" d="M0,501v5" transform="translate(482.17,0)" style="stroke: rgb(51, 51, 51); stroke-opacity: 1; stroke-width: 2px;"/><path class="xtick ticks crisp" d="M0,501v5" transform="translate(509.39,0)" style="stroke: rgb(51, 51, 51); stroke-opacity: 1; stroke-width: 2px;"/><path class="xtick ticks crisp" d="M0,501v5" transform="translate(536.61,0)" style="stroke: rgb(51, 51, 51); stroke-opacity: 1; stroke-width: 2px;"/><path class="xtick ticks crisp" d="M0,501v5" transform="translate(563.83,0)" style="stroke: rgb(51, 51, 51); stroke-opacity: 1; stroke-width: 2px;"/><path class="xtick ticks crisp" d="M0,501v5" transform="translate(591.04,0)" style="stroke: rgb(51, 51, 51); stroke-opacity: 1; stroke-width: 2px;"/><path class="xtick ticks crisp" d="M0,501v5" transform="translate(618.26,0)" style="stroke: rgb(51, 51, 51); stroke-opacity: 1; stroke-width: 2px;"/><path class="xtick ticks crisp" d="M0,501v5" transform="translate(645.48,0)" style="stroke: rgb(51, 51, 51); stroke-opacity: 1; stroke-width: 2px;"/><path class="xtick ticks crisp" d="M0,501v5" transform="translate(672.7,0)" style="stroke: rgb(51, 51, 51); stroke-opacity: 1; stroke-width: 2px;"/><path class="xtick ticks crisp" d="M0,501v5" transform="translate(699.92,0)" style="stroke: rgb(51, 51, 51); stroke-opacity: 1; stroke-width: 2px;"/><path class="xtick ticks crisp" d="M0,501v5" transform="translate(727.13,0)" style="stroke: rgb(51, 51, 51); stroke-opacity: 1; stroke-width: 2px;"/><path class="xtick ticks crisp" d="M0,501v5" transform="translate(754.35,0)" style="stroke: rgb(51, 51, 51); stroke-opacity: 1; stroke-width: 2px;"/><path class="xtick ticks crisp" d="M0,501v5" transform="translate(781.57,0)" style="stroke: rgb(51, 51, 51); stroke-opacity: 1; stroke-width: 2px;"/><path class="xtick ticks crisp" d="M0,501v5" transform="translate(808.79,0)" style="stroke: rgb(51, 51, 51); stroke-opacity: 1; stroke-width: 2px;"/><path class="xtick ticks crisp" d="M0,501v5" transform="translate(836,0)" style="stroke: rgb(51, 51, 51); stroke-opacity: 1; stroke-width: 2px;"/><path class="xtick ticks crisp" d="M0,501v5" transform="translate(863.22,0)" style="stroke: rgb(51, 51, 51); stroke-opacity: 1; stroke-width: 2px;"/><path class="xtick ticks crisp" d="M0,501v5" transform="translate(890.44,0)" style="stroke: rgb(51, 51, 51); stroke-opacity: 1; stroke-width: 2px;"/><path class="xtick ticks crisp" d="M0,501v5" transform="translate(917.66,0)" style="stroke: rgb(51, 51, 51); stroke-opacity: 1; stroke-width: 2px;"/><path class="xtick ticks crisp" d="M0,501v5" transform="translate(944.88,0)" style="stroke: rgb(51, 51, 51); stroke-opacity: 1; stroke-width: 2px;"/><g class="xtick"><text text-anchor="end" x="0" y="520.4" transform="translate(101.13,0) rotate(-45,0,514.4)" style="font-family: 'Open Sans', verdana, arial, sans-serif; font-size: 12px; fill: rgb(51, 51, 51); fill-opacity: 1; white-space: pre;">Austria</text></g><g class="xtick"><text text-anchor="end" x="0" y="520.4" transform="translate(128.34,0) rotate(-45,0,514.4)" style="font-family: 'Open Sans', verdana, arial, sans-serif; font-size: 12px; fill: rgb(51, 51, 51); fill-opacity: 1; white-space: pre;">Belgium</text></g><g class="xtick"><text text-anchor="end" x="0" y="520.4" transform="translate(155.56,0) rotate(-45,0,514.4)" style="font-family: 'Open Sans', verdana, arial, sans-serif; font-size: 12px; fill: rgb(51, 51, 51); fill-opacity: 1; white-space: pre;">Denmark</text></g><g class="xtick"><text text-anchor="end" x="0" y="520.4" transform="translate(182.78,0) rotate(-45,0,514.4)" style="font-family: 'Open Sans', verdana, arial, sans-serif; font-size: 12px; fill: rgb(51, 51, 51); fill-opacity: 1; white-space: pre;">Finland</text></g><g class="xtick"><text text-anchor="end" x="0" y="520.4" transform="translate(210,0) rotate(-45,0,514.4)" style="font-family: 'Open Sans', verdana, arial, sans-serif; font-size: 12px; fill: rgb(51, 51, 51); fill-opacity: 1; white-space: pre;">France</text></g><g class="xtick"><text text-anchor="end" x="0" y="520.4" transform="translate(237.21,0) rotate(-45,0,514.4)" style="font-family: 'Open Sans', verdana, arial, sans-serif; font-size: 12px; fill: rgb(51, 51, 51); fill-opacity: 1; white-space: pre;">Germany</text></g><g class="xtick"><text text-anchor="end" x="0" y="520.4" transform="translate(264.43,0) rotate(-45,0,514.4)" style="font-family: 'Open Sans', verdana, arial, sans-serif; font-size: 12px; fill: rgb(51, 51, 51); fill-opacity: 1; white-space: pre;">Iceland</text></g><g class="xtick"><text text-anchor="end" x="0" y="520.4" transform="translate(291.65,0) rotate(-45,0,514.4)" style="font-family: 'Open Sans', verdana, arial, sans-serif; font-size: 12px; fill: rgb(51, 51, 51); fill-opacity: 1; white-space: pre;">Ireland</text></g><g class="xtick"><text text-anchor="end" x="0" y="520.4" transform="translate(318.87,0) rotate(-45,0,514.4)" style="font-family: 'Open Sans', verdana, arial, sans-serif; font-size: 12px; fill: rgb(51, 51, 51); fill-opacity: 1; white-space: pre;">Luxembourg</text></g><g class="xtick"><text text-anchor="end" x="0" y="520.4" transform="translate(346.08,0) rotate(-45,0,514.4)" style="font-family: 'Open Sans', verdana, arial, sans-serif; font-size: 12px; fill: rgb(51, 51, 51); fill-opacity: 1; white-space: pre;">Netherlands</text></g><g class="xtick"><text text-anchor="end" x="0" y="520.4" transform="translate(373.3,0) rotate(-45,0,514.4)" style="font-family: 'Open Sans', verdana, arial, sans-serif; font-size: 12px; fill: rgb(51, 51, 51); fill-opacity: 1; white-space: pre;">Norway</text></g><g class="xtick"><text text-anchor="end" x="0" y="520.4" transform="translate(400.52,0) rotate(-45,0,514.4)" style="font-family: 'Open Sans', verdana, arial, sans-serif; font-size: 12px; fill: rgb(51, 51, 51); fill-opacity: 1; white-space: pre;">Sweden</text></g><g class="xtick"><text text-anchor="end" x="0" y="520.4" transform="translate(427.74,0) rotate(-45,0,514.4)" style="font-family: 'Open Sans', verdana, arial, sans-serif; font-size: 12px; fill: rgb(51, 51, 51); fill-opacity: 1; white-space: pre;">Switzerland</text></g><g class="xtick"><text text-anchor="end" x="0" y="520.4" transform="translate(454.96,0) rotate(-45,0,514.4)" style="font-family: 'Open Sans', verdana, arial, sans-serif; font-size: 12px; fill: rgb(51, 51, 51); fill-opacity: 1; white-space: pre;">UK</text></g><g class="xtick"><text text-anchor="end" x="0" y="520.4" transform="translate(482.17,0) rotate(-45,0,514.4)" style="font-family: 'Open Sans', verdana, arial, sans-serif; font-size: 12px; fill: rgb(51, 51, 51); fill-opacity: 1; white-space: pre;">Greece</text></g><g class="xtick"><text text-anchor="end" x="0" y="520.4" transform="translate(509.39,0) rotate(-45,0,514.4)" style="font-family: 'Open Sans', verdana, arial, sans-serif; font-size: 12px; fill: rgb(51, 51, 51); fill-opacity: 1; white-space: pre;">Malta</text></g><g class="xtick"><text text-anchor="end" x="0" y="520.4" transform="translate(536.61,0) rotate(-45,0,514.4)" style="font-family: 'Open Sans', verdana, arial, sans-serif; font-size: 12px; fill: rgb(51, 51, 51); fill-opacity: 1; white-space: pre;">Italy</text></g><g class="xtick"><text text-anchor="end" x="0" y="520.4" transform="translate(563.83,0) rotate(-45,0,514.4)" style="font-family: 'Open Sans', verdana, arial, sans-serif; font-size: 12px; fill: rgb(51, 51, 51); fill-opacity: 1; white-space: pre;">Portugal</text></g><g class="xtick"><text text-anchor="end" x="0" y="520.4" transform="translate(591.04,0) rotate(-45,0,514.4)" style="font-family: 'Open Sans', verdana, arial, sans-serif; font-size: 12px; fill: rgb(51, 51, 51); fill-opacity: 1; white-space: pre;">Spain</text></g><g class="xtick"><text text-anchor="end" x="0" y="520.4" transform="translate(618.26,0) rotate(-45,0,514.4)" style="font-family: 'Open Sans', verdana, arial, sans-serif; font-size: 12px; fill: rgb(51, 51, 51); fill-opacity: 1; white-space: pre;">Croatia</text></g><g class="xtick"><text text-anchor="end" x="0" y="520.4" transform="translate(645.48,0) rotate(-45,0,514.4)" style="font-family: 'Open Sans', verdana, arial, sans-serif; font-size: 12px; fill: rgb(51, 51, 51); fill-opacity: 1; white-space: pre;">Czechia</text></g><g class="xtick"><text text-anchor="end" x="0" y="520.4" transform="translate(672.7,0) rotate(-45,0,514.4)" style="font-family: 'Open Sans', verdana, arial, sans-serif; font-size: 12px; fill: rgb(51, 51, 51); fill-opacity: 1; white-space: pre;">Estonia</text></g><g class="xtick"><text text-anchor="end" x="0" y="520.4" transform="translate(699.92,0) rotate(-45,0,514.4)" style="font-family: 'Open Sans', verdana, arial, sans-serif; font-size: 12px; fill: rgb(51, 51, 51); fill-opacity: 1; white-space: pre;">Hungary</text></g><g class="xtick"><text text-anchor="end" x="0" y="520.4" transform="translate(727.13,0) rotate(-45,0,514.4)" style="font-family: 'Open Sans', verdana, arial, sans-serif; font-size: 12px; fill: rgb(51, 51, 51); fill-opacity: 1; white-space: pre;">Latvia</text></g><g class="xtick"><text text-anchor="end" x="0" y="520.4" transform="translate(754.35,0) rotate(-45,0,514.4)" style="font-family: 'Open Sans', verdana, arial, sans-serif; font-size: 12px; fill: rgb(51, 51, 51); fill-opacity: 1; white-space: pre;">Lithuania</text></g><g class="xtick"><text text-anchor="end" x="0" y="520.4" transform="translate(781.57,0) rotate(-45,0,514.4)" style="font-family: 'Open Sans', verdana, arial, sans-serif; font-size: 12px; fill: rgb(51, 51, 51); fill-opacity: 1; white-space: pre;">Montenegro</text></g><g class="xtick"><text text-anchor="end" x="0" y="520.4" transform="translate(808.79,0) rotate(-45,0,514.4)" style="font-family: 'Open Sans', verdana, arial, sans-serif; font-size: 12px; fill: rgb(51, 51, 51); fill-opacity: 1; white-space: pre;">N. Macedonia</text></g><g class="xtick"><text text-anchor="end" x="0" y="520.4" transform="translate(836,0) rotate(-45,0,514.4)" style="font-family: 'Open Sans', verdana, arial, sans-serif; font-size: 12px; fill: rgb(51, 51, 51); fill-opacity: 1; white-space: pre;">Poland</text></g><g class="xtick"><text text-anchor="end" x="0" y="520.4" transform="translate(863.22,0) rotate(-45,0,514.4)" style="font-family: 'Open Sans', verdana, arial, sans-serif; font-size: 12px; fill: rgb(51, 51, 51); fill-opacity: 1; white-space: pre;">Romania</text></g><g class="xtick"><text text-anchor="end" x="0" y="520.4" transform="translate(890.44,0) rotate(-45,0,514.4)" style="font-family: 'Open Sans', verdana, arial, sans-serif; font-size: 12px; fill: rgb(51, 51, 51); fill-opacity: 1; white-space: pre;">Serbia</text></g><g class="xtick"><text text-anchor="end" x="0" y="520.4" transform="translate(917.66,0) rotate(-45,0,514.4)" style="font-family: 'Open Sans', verdana, arial, sans-serif; font-size: 12px; fill: rgb(51, 51, 51); fill-opacity: 1; white-space: pre;">Slovakia</text></g><g class="xtick"><text text-anchor="end" x="0" y="520.4" transform="translate(944.88,0) rotate(-45,0,514.4)" style="font-family: 'Open Sans', verdana, arial, sans-serif; font-size: 12px; fill: rgb(51, 51, 51); fill-opacity: 1; white-space: pre;">Slovenia</text></g></g><g class="yaxislayer-above"><path class="ytick ticks crisp" d="M46,0h-5" transform="translate(0,431.79)" style="stroke: rgb(51, 51, 51); stroke-opacity: 1; stroke-width: 2px;"/><path class="ytick ticks crisp" d="M46,0h-5" transform="translate(0,345.11)" style="stroke: rgb(51, 51, 51); stroke-opacity: 1; stroke-width: 2px;"/><path class="ytick ticks crisp" d="M46,0h-5" transform="translate(0,258.43)" style="stroke: rgb(51, 51, 51); stroke-opacity: 1; stroke-width: 2px;"/><path class="ytick ticks crisp" d="M46,0h-5" transform="translate(0,171.76)" style="stroke: rgb(51, 51, 51); stroke-opacity: 1; stroke-width: 2px;"/><path class="ytick ticks crisp" d="M46,0h-5" transform="translate(0,85.08)" style="stroke: rgb(51, 51, 51); stroke-opacity: 1; stroke-width: 2px;"/><g class="ytick"><text text-anchor="end" x="38.6" y="4.199999999999999" transform="translate(0,431.79)" style="font-family: 'Open Sans', verdana, arial, sans-serif; font-size: 12px; fill: rgb(51, 51, 51); fill-opacity: 1; white-space: pre;">0</text></g><g class="ytick"><text text-anchor="end" x="38.6" y="4.199999999999999" transform="translate(0,345.11)" style="font-family: 'Open Sans', verdana, arial, sans-serif; font-size: 12px; fill: rgb(51, 51, 51); fill-opacity: 1; white-space: pre;">5</text></g><g class="ytick"><text text-anchor="end" x="38.6" y="4.199999999999999" transform="translate(0,258.43)" style="font-family: 'Open Sans', verdana, arial, sans-serif; font-size: 12px; fill: rgb(51, 51, 51); fill-opacity: 1; white-space: pre;">10</text></g><g class="ytick"><text text-anchor="end" x="38.6" y="4.199999999999999" transform="translate(0,171.76)" style="font-family: 'Open Sans', verdana, arial, sans-serif; font-size: 12px; fill: rgb(51, 51, 51); fill-opacity: 1; white-space: pre;">15</text></g><g class="ytick"><text text-anchor="end" x="38.6" y="4.199999999999999" transform="translate(0,85.08)" style="font-family: 'Open Sans', verdana, arial, sans-serif; font-size: 12px; fill: rgb(51, 51, 51); fill-opacity: 1; white-space: pre;">20</text></g></g><g class="overaxes-above"/></g></g><g class="polarlayer"/><g class="ternarylayer"/><g class="geolayer"/><g class="funnelarealayer"/><g class="pielayer"/><g class="treemaplayer"/><g class="sunburstlayer"/><g class="glimages"/><defs id="topdefs-b1db4d"><g class="clips"/><clipPath id="legendb1db4d"><rect width="141" height="83" x="2" y="2"/></clipPath></defs><g class="layer-above"><g class="imagelayer"/><g class="shapelayer"><path data-index="0" fill-rule="evenodd" d="M48,431.79L998,431.79" clip-path="url('#clipb1db4dy')" style="opacity: 0.3; stroke: rgb(0, 0, 0); stroke-opacity: 1; fill: rgb(0, 0, 0); fill-opacity: 1; stroke-width: 1px;"/><path data-index="1" fill-rule="evenodd" d="M468.56,499L468.56,30" clip-path="url('#clipb1db4dx')" style="opacity: 0.3; stroke: rgb(0, 0, 0); stroke-opacity: 1; fill: rgb(0, 0, 0); fill-opacity: 1; stroke-dasharray: 9px, 9px; stroke-width: 1px;"/><path data-index="2" fill-rule="evenodd" d="M604.65,499L604.65,30" clip-path="url('#clipb1db4dx')" style="opacity: 0.3; stroke: rgb(0, 0, 0); stroke-opacity: 1; fill: rgb(0, 0, 0); fill-opacity: 1; stroke-dasharray: 9px, 9px; stroke-width: 1px;"/></g></g><g class="infolayer"><g class="legend" pointer-events="all" transform="translate(62.25,44.070000000000014)"><rect class="bg" shape-rendering="crispEdges" width="143" height="85" x="1" y="1" style="stroke: rgb(0, 0, 0); stroke-opacity: 1; fill: rgb(255, 255, 255); fill-opacity: 1; stroke-width: 2px;"/><g class="scrollbox" transform="" clip-path="url('#legendb1db4d')"><text class="legendtitletext" text-anchor="start" x="4" y="17.6" style="font-family: 'Open Sans', verdana, arial, sans-serif; font-size: 12px; fill: rgb(51, 51, 51); fill-opacity: 1; white-space: pre;"><tspan style="font-weight:bold"> Immigrant women vs. </tspan></text><g class="groups"><g class="traces" transform="translate(2,32.1)" style="opacity: 1;"><text class="legendtext" text-anchor="start" x="40" y="4.680000000000001" style="font-family: 'Open Sans', verdana, arial, sans-serif; font-size: 12px; fill: rgb(51, 51, 51); fill-opacity: 1; white-space: pre;">Native women</text><g class="layers" style="opacity: 1;"><g class="legendfill"/><g class="legendlines"/><g class="legendsymbols"><g class="legendpoints"><path class="scatterpts" transform="translate(20,0)" d="M4.5,0A4.5,4.5 0 1,1 0,-4.5A4.5,4.5 0 0,1 4.5,0Z" style="opacity: 1; stroke-width: 1.5px; fill: rgb(0, 119, 187); fill-opacity: 0.5; stroke: rgb(0, 119, 187); stroke-opacity: 1;"/></g></g></g><rect class="legendtoggle" x="0" y="-9.5" width="126.84375" height="19" style="fill: rgb(0, 0, 0); fill-opacity: 0;"/></g><g class="traces" transform="translate(2,51.1)" style="opacity: 1;"><text class="legendtext" text-anchor="start" x="40" y="4.680000000000001" style="font-family: 'Open Sans', verdana, arial, sans-serif; font-size: 12px; fill: rgb(51, 51, 51); fill-opacity: 1; white-space: pre;">Native men</text><g class="layers" style="opacity: 1;"><g class="legendfill"/><g class="legendlines"/><g class="legendsymbols"><g class="legendpoints"><path class="scatterpts" transform="translate(20,0)" d="M0,2.55l2.55,2.55l2.55,-2.55l-2.55,-2.55l2.55,-2.55l-2.55,-2.55l-2.55,2.55l-2.55,-2.55l-2.55,2.55l2.55,2.55l-2.55,2.55l2.55,2.55Z" style="opacity: 1; stroke-width: 1.5px; fill: rgb(0, 119, 187); fill-opacity: 0.5; stroke: rgb(0, 119, 187); stroke-opacity: 1;"/></g></g></g><rect class="legendtoggle" x="0" y="-9.5" width="126.84375" height="19" style="fill: rgb(0, 0, 0); fill-opacity: 0;"/></g><g class="traces" transform="translate(2,70.1)" style="opacity: 1;"><text class="legendtext" text-anchor="start" x="40" y="4.680000000000001" style="font-family: 'Open Sans', verdana, arial, sans-serif; font-size: 12px; fill: rgb(51, 51, 51); fill-opacity: 1; white-space: pre;">Immigrant men</text><g class="layers" style="opacity: 1;"><g class="legendfill"/><g class="legendlines"/><g class="legendsymbols"><g class="legendpoints"><path class="scatterpts" transform="translate(20,0)" d="M5.85,0L0,5.85L-5.85,0L0,-5.85Z" style="opacity: 1; stroke-width: 1.5px; fill: rgb(0, 119, 187); fill-opacity: 0.5; stroke: rgb(0, 119, 187); stroke-opacity: 1;"/></g></g></g><rect class="legendtoggle" x="0" y="-9.5" width="126.84375" height="19" style="fill: rgb(0, 0, 0); fill-opacity: 0;"/></g></g></g><rect class="scrollbar" rx="20" ry="3" width="0" height="0" x="0" y="0" style="fill: rgb(128, 139, 164); fill-opacity: 1;"/></g><g class="g-gtitle"/><g class="g-xtitle" transform="translate(0,-4.3693359374999545)"><text class="xtitle" x="523" y="600.3693359375" text-anchor="middle" style="font-family: 'Open Sans', verdana, arial, sans-serif; font-size: 14px; fill: rgb(51, 51, 51); opacity: 1; font-weight: normal; white-space: pre;">Country</text></g><g class="g-ytitle" transform="translate(14.9248046875,0)"><text class="ytitle" transform="rotate(-90,0.07500000000000284,264.5)" x="0.07500000000000284" y="264.5" text-anchor="middle" style="font-family: 'Open Sans', verdana, arial, sans-serif; font-size: 14px; fill: rgb(51, 51, 51); opacity: 1; font-weight: normal; white-space: pre;">Gap inunemployment rates (pp)</text></g></g></svg>