<svg class="main-svg" xmlns="http://www.w3.org/2000/svg" xmlns:xlink="http://www.w3.org/1999/xlink" width="1000" height="600" style="" viewBox="0 0 1000 600"><rect x="0" y="0" width="1000" height="600" style="fill: rgb(255, 255, 255); fill-opacity: 0;"/><defs id="defs-3097b1"><g class="clips"><clipPath id="clip3097b1xyplot" class="plotclip"><rect width="950" height="468"/></clipPath><clipPath class="axesclip" id="clip3097b1x"><rect x="48" y="0" width="950" height="600"/></clipPath><clipPath class="axesclip" id="clip3097b1y"><rect x="0" y="30" width="1000" height="468"/></clipPath><clipPath class="axesclip" id="clip3097b1xy"><rect x="48" y="30" width="950" height="468"/></clipPath></g><g class="gradients"/></defs><g class="bglayer"><rect class="bg" x="48" y="30" width="950" height="468" style="fill: rgb(237, 237, 237); fill-opacity: 1; stroke-width: 0;"/></g><g class="layer-below"><g class="imagelayer"/><g class="shapelayer"/></g><g class="cartesianlayer"><g class="subplot xy"><g class="layer-subplot"><g class="shapelayer"/><g class="imagelayer"/></g><g class="gridlayer"><g class="x"><path class="xgrid crisp" transform="translate(101.13,0)" d="M0,30v468" style="stroke: rgb(255, 255, 255); stroke-opacity: 1; stroke-width: 1px;"/><path class="xgrid crisp" transform="translate(128.34,0)" d="M0,30v468" style="stroke: rgb(255, 255, 255); stroke-opacity: 1; stroke-width: 1px;"/><path class="xgrid crisp" transform="translate(155.56,0)" d="M0,30v468" style="stroke: rgb(255, 255, 255); stroke-opacity: 1; stroke-width: 1px;"/><path class="xgrid crisp" transform="translate(182.78,0)" d="M0,30v468" style="stroke: rgb(255, 255, 255); stroke-opacity: 1; stroke-width: 1px;"/><path class="xgrid crisp" transform="translate(210,0)" d="M0,30v468" style="stroke: rgb(255, 255, 255); stroke-opacity: 1; stroke-width: 1px;"/><path class="xgrid crisp" transform="translate(237.21,0)" d="M0,30v468" style="stroke: rgb(255, 255, 255); stroke-opacity: 1; stroke-width: 1px;"/><path class="xgrid crisp" transform="translate(264.43,0)" d="M0,30v468" style="stroke: rgb(255, 255, 255); stroke-opacity: 1; stroke-width: 1px;"/><path class="xgrid crisp" transform="translate(291.65,0)" d="M0,30v468" style="stroke: rgb(255, 255, 255); stroke-opacity: 1; stroke-width: 1px;"/><path class="xgrid crisp" transform="translate(318.87,0)" d="M0,30v468" style="stroke: rgb(255, 255, 255); stroke-opacity: 1; stroke-width: 1px;"/><path class="xgrid crisp" transform="translate(346.08,0)" d="M0,30v468" style="stroke: rgb(255, 255, 255); stroke-opacity: 1; stroke-width: 1px;"/><path class="xgrid crisp" transform="translate(373.3,0)" d="M0,30v468" style="stroke: rgb(255, 255, 255); stroke-opacity: 1; stroke-width: 1px;"/><path class="xgrid crisp" transform="translate(400.52,0)" d="M0,30v468" style="stroke: rgb(255, 255, 255); stroke-opacity: 1; stroke-width: 1px;"/><path class="xgrid crisp" transform="translate(427.74,0)" d="M0,30v468" style="stroke: rgb(255, 255, 255); stroke-opacity: 1; stroke-width: 1px;"/><path class="xgrid crisp" transform="translate(454.96,0)" d="M0,30v468" style="stroke: rgb(255, 255, 255); stroke-opacity: 1; stroke-width: 1px;"/><path class="xgrid crisp" transform="translate(482.17,0)" d="M0,30v468" style="stroke: rgb(255, 255, 255); stroke-opacity: 1; stroke-width: 1px;"/><path class="xgrid crisp" transform="translate(509.39,0)" d="M0,30v468" style="stroke: rgb(255, 255, 255); stroke-opacity: 1; stroke-width: 1px;"/><path class="xgrid crisp" transform="translate(536.61,0)" d="M0,30v468" style="stroke: rgb(255, 255, 255); stroke-opacity: 1; stroke-width: 1px;"/><path class="xgrid crisp" transform="translate(563.83,0)" d="M0,30v468" style="stroke: rgb(255, 255, 255); stroke-opacity: 1; stroke-width: 1px;"/><path class="xgrid crisp" transform="translate(591.04,0)" d="M0,30v468" style="stroke: rgb(255, 255, 255); stroke-opacity: 1; stroke-width: 1px;"/><path class="xgrid crisp" transform="translate(618.26,0)" d="M0,30v468" style="stroke: rgb(255, 255, 255); stroke-opacity: 1; stroke-width: 1px;"/><path class="xgrid crisp" transform="translate(645.48,0)" d="M0,30v468" style="stroke: rgb(255, 255, 255); stroke-opacity: 1; stroke-width: 1px;"/><path class="xgrid crisp" transform="translate(672.7,0)" d="M0,30v468" style="stroke: rgb(255, 255, 255); stroke-opacity: 1; stroke-width: 1px;"/><path class="xgrid crisp" transform="translate(699.92,0)" d="M0,30v468" style="stroke: rgb(255, 255, 255); stroke-opacity: 1; stroke-width: 1px;"/><path class="xgrid crisp" transform="translate(727.13,0)" d="M0,30v468" style="stroke: rgb(255, 255, 255); stroke-opacity: 1; stroke-width: 1px;"/><path class="xgrid crisp" transform="translate(754.35,0)" d="M0,30v468" style="stroke: rgb(255, 255, 255); stroke-opacity: 1; stroke-width: 1px;"/><path class="xgrid crisp" transform="translate(781.57,0)" d="M0,30v468" style="stroke: rgb(255, 255, 255); stroke-opacity: 1; stroke-width: 1px;"/><path class="xgrid crisp" transform="translate(808.79,0)" d="M0,30v468" style="stroke: rgb(255, 255, 255); stroke-opacity: 1; stroke-width: 1px;"/><path class="xgrid crisp" transform="translate(836,0)" d="M0,30v468" style="stroke: rgb(255, 255, 255); stroke-opacity: 1; stroke-width: 1px;"/><path class="xgrid crisp" transform="translate(863.22,0)" d="M0,30v468" style="stroke: rgb(255, 255, 255); stroke-opacity: 1; stroke-width: 1px;"/><path class="xgrid crisp" transform="translate(890.44,0)" d="M0,30v468" style="stroke: rgb(255, 255, 255); stroke-opacity: 1; stroke-width: 1px;"/><path class="xgrid crisp" transform="translate(917.66,0)" d="M0,30v468" style="stroke: rgb(255, 255, 255); stroke-opacity: 1; stroke-width: 1px;"/><path class="xgrid crisp" transform="translate(944.88,0)" d="M0,30v468" style="stroke: rgb(255, 255, 255); stroke-opacity: 1; stroke-width: 1px;"/></g><g class="y"><path class="ygrid crisp" transform="translate(0,344.43)" d="M48,0h950" style="stroke: rgb(255, 255, 255); stroke-opacity: 1; stroke-width: 1px;"/><path class="ygrid crisp" transform="translate(0,257.95)" d="M48,0h950" style="stroke: rgb(255, 255, 255); stroke-opacity: 1; stroke-width: 1px;"/><path class="ygrid crisp" transform="translate(0,171.46)" d="M48,0h950" style="stroke: rgb(255, 255, 255); stroke-opacity: 1; stroke-width: 1px;"/><path class="ygrid crisp" transform="translate(0,84.97)" d="M48,0h950" style="stroke: rgb(255, 255, 255); stroke-opacity: 1; stroke-width: 1px;"/></g></g><g class="zerolinelayer"><path class="yzl zl crisp" transform="translate(0,430.92)" d="M48,0h950" style="stroke: rgb(255, 255, 255); stroke-opacity: 1; stroke-width: 1px;"/></g><path class="xlines-below"/><path class="ylines-below"/><g class="overlines-below"/><g class="xaxislayer-below"/><g class="yaxislayer-below"/><g class="overaxes-below"/><g class="plot" transform="translate(48,30)" clip-path="url('#clip3097b1xyplot')"><g class="scatterlayer mlayer"><g class="trace scatter traceb7dba8" style="stroke-miterlimit: 2; opacity: 1;"><g class="fills"/><g class="errorbars"/><g class="lines"/><g class="points"><path class="point" transform="translate(53.13,397.46)" d="M5.85,0L0,5.85L-5.85,0L0,-5.85Z" style="opacity: 1; stroke-width: 1.5px; fill: rgb(0, 119, 187); fill-opacity: 0.5; stroke: rgb(0, 119, 187); stroke-opacity: 1;"/><path class="point" transform="translate(80.34,399.19)" d="M5.85,0L0,5.85L-5.85,0L0,-5.85Z" style="opacity: 1; stroke-width: 1.5px; fill: rgb(0, 119, 187); fill-opacity: 0.5; stroke: rgb(0, 119, 187); stroke-opacity: 1;"/><path class="point" transform="translate(107.56,381.89)" d="M5.85,0L0,5.85L-5.85,0L0,-5.85Z" style="opacity: 1; stroke-width: 1.5px; fill: rgb(0, 119, 187); fill-opacity: 0.5; stroke: rgb(0, 119, 187); stroke-opacity: 1;"/><path class="point" transform="translate(134.78,359.41)" d="M5.85,0L0,5.85L-5.85,0L0,-5.85Z" style="opacity: 1; stroke-width: 1.5px; fill: rgb(0, 119, 187); fill-opacity: 0.5; stroke: rgb(0, 119, 187); stroke-opacity: 1;"/><path class="point" transform="translate(162,374.97)" d="M5.85,0L0,5.85L-5.85,0L0,-5.85Z" style="opacity: 1; stroke-width: 1.5px; fill: rgb(0, 119, 187); fill-opacity: 0.5; stroke: rgb(0, 119, 187); stroke-opacity: 1;"/><path class="point" transform="translate(189.21,421.68)" d="M5.85,0L0,5.85L-5.85,0L0,-5.85Z" style="opacity: 1; stroke-width: 1.5px; fill: rgb(0, 119, 187); fill-opacity: 0.5; stroke: rgb(0, 119, 187); stroke-opacity: 1;"/><path class="point" transform="translate(243.65,390.54)" d="M5.85,0L0,5.85L-5.85,0L0,-5.85Z" style="opacity: 1; stroke-width: 1.5px; fill: rgb(0, 119, 187); fill-opacity: 0.5; stroke: rgb(0, 119, 187); stroke-opacity: 1;"/><path class="point" transform="translate(270.87,402.65)" d="M5.85,0L0,5.85L-5.85,0L0,-5.85Z" style="opacity: 1; stroke-width: 1.5px; fill: rgb(0, 119, 187); fill-opacity: 0.5; stroke: rgb(0, 119, 187); stroke-opacity: 1;"/><path class="point" transform="translate(298.08,381.89)" d="M5.85,0L0,5.85L-5.85,0L0,-5.85Z" style="opacity: 1; stroke-width: 1.5px; fill: rgb(0, 119, 187); fill-opacity: 0.5; stroke: rgb(0, 119, 187); stroke-opacity: 1;"/><path class="point" transform="translate(325.3,411.3)" d="M5.85,0L0,5.85L-5.85,0L0,-5.85Z" style="opacity: 1; stroke-width: 1.5px; fill: rgb(0, 119, 187); fill-opacity: 0.5; stroke: rgb(0, 119, 187); stroke-opacity: 1;"/><path class="point" transform="translate(352.52,366.33)" d="M5.85,0L0,5.85L-5.85,0L0,-5.85Z" style="opacity: 1; stroke-width: 1.5px; fill: rgb(0, 119, 187); fill-opacity: 0.5; stroke: rgb(0, 119, 187); stroke-opacity: 1;"/><path class="point" transform="translate(379.74,373.24)" d="M5.85,0L0,5.85L-5.85,0L0,-5.85Z" style="opacity: 1; stroke-width: 1.5px; fill: rgb(0, 119, 187); fill-opacity: 0.5; stroke: rgb(0, 119, 187); stroke-opacity: 1;"/><path class="point" transform="translate(406.96,380.16)" d="M5.85,0L0,5.85L-5.85,0L0,-5.85Z" style="opacity: 1; stroke-width: 1.5px; fill: rgb(0, 119, 187); fill-opacity: 0.5; stroke: rgb(0, 119, 187); stroke-opacity: 1;"/><path class="point" transform="translate(434.17,208.92)" d="M5.85,0L0,5.85L-5.85,0L0,-5.85Z" style="opacity: 1; stroke-width: 1.5px; fill: rgb(0, 119, 187); fill-opacity: 0.5; stroke: rgb(0, 119, 187); stroke-opacity: 1;"/><path class="point" transform="translate(461.39,387.08)" d="M5.85,0L0,5.85L-5.85,0L0,-5.85Z" style="opacity: 1; stroke-width: 1.5px; fill: rgb(0, 119, 187); fill-opacity: 0.5; stroke: rgb(0, 119, 187); stroke-opacity: 1;"/><path class="point" transform="translate(488.61,321.35)" d="M5.85,0L0,5.85L-5.85,0L0,-5.85Z" style="opacity: 1; stroke-width: 1.5px; fill: rgb(0, 119, 187); fill-opacity: 0.5; stroke: rgb(0, 119, 187); stroke-opacity: 1;"/><path class="point" transform="translate(515.83,326.54)" d="M5.85,0L0,5.85L-5.85,0L0,-5.85Z" style="opacity: 1; stroke-width: 1.5px; fill: rgb(0, 119, 187); fill-opacity: 0.5; stroke: rgb(0, 119, 187); stroke-opacity: 1;"/><path class="point" transform="translate(543.04,321.35)" d="M5.85,0L0,5.85L-5.85,0L0,-5.85Z" style="opacity: 1; stroke-width: 1.5px; fill: rgb(0, 119, 187); fill-opacity: 0.5; stroke: rgb(0, 119, 187); stroke-opacity: 1;"/><path class="point" transform="translate(760.79,198.54)" d="M5.85,0L0,5.85L-5.85,0L0,-5.85Z" style="opacity: 1; stroke-width: 1.5px; fill: rgb(0, 119, 187); fill-opacity: 0.5; stroke: rgb(0, 119, 187); stroke-opacity: 1;"/><path class="point" transform="translate(842.44,364.6)" d="M5.85,0L0,5.85L-5.85,0L0,-5.85Z" style="opacity: 1; stroke-width: 1.5px; fill: rgb(0, 119, 187); fill-opacity: 0.5; stroke: rgb(0, 119, 187); stroke-opacity: 1;"/></g><g class="text"/></g><g class="trace scatter tracefc25fe" style="stroke-miterlimit: 2; opacity: 1;"><g class="fills"/><g class="errorbars"/><g class="lines"/><g class="points"><path class="point" transform="translate(53.13,319.62)" d="M0,2.55l2.55,2.55l2.55,-2.55l-2.55,-2.55l2.55,-2.55l-2.55,-2.55l-2.55,2.55l-2.55,-2.55l-2.55,2.55l2.55,2.55l-2.55,2.55l2.55,2.55Z" style="opacity: 1; stroke-width: 1.5px; fill: rgb(0, 119, 187); fill-opacity: 0.5; stroke: rgb(0, 119, 187); stroke-opacity: 1;"/><path class="point" transform="translate(80.34,302.33)" d="M0,2.55l2.55,2.55l2.55,-2.55l-2.55,-2.55l2.55,-2.55l-2.55,-2.55l-2.55,2.55l-2.55,-2.55l-2.55,2.55l2.55,2.55l-2.55,2.55l2.55,2.55Z" style="opacity: 1; stroke-width: 1.5px; fill: rgb(0, 119, 187); fill-opacity: 0.5; stroke: rgb(0, 119, 187); stroke-opacity: 1;"/><path class="point" transform="translate(107.56,324.81)" d="M0,2.55l2.55,2.55l2.55,-2.55l-2.55,-2.55l2.55,-2.55l-2.55,-2.55l-2.55,2.55l-2.55,-2.55l-2.55,2.55l2.55,2.55l-2.55,2.55l2.55,2.55Z" style="opacity: 1; stroke-width: 1.5px; fill: rgb(0, 119, 187); fill-opacity: 0.5; stroke: rgb(0, 119, 187); stroke-opacity: 1;"/><path class="point" transform="translate(134.78,295.41)" d="M0,2.55l2.55,2.55l2.55,-2.55l-2.55,-2.55l2.55,-2.55l-2.55,-2.55l-2.55,2.55l-2.55,-2.55l-2.55,2.55l2.55,2.55l-2.55,2.55l2.55,2.55Z" style="opacity: 1; stroke-width: 1.5px; fill: rgb(0, 119, 187); fill-opacity: 0.5; stroke: rgb(0, 119, 187); stroke-opacity: 1;"/><path class="point" transform="translate(162,298.87)" d="M0,2.55l2.55,2.55l2.55,-2.55l-2.55,-2.55l2.55,-2.55l-2.55,-2.55l-2.55,2.55l-2.55,-2.55l-2.55,2.55l2.55,2.55l-2.55,2.55l2.55,2.55Z" style="opacity: 1; stroke-width: 1.5px; fill: rgb(0, 119, 187); fill-opacity: 0.5; stroke: rgb(0, 119, 187); stroke-opacity: 1;"/><path class="point" transform="translate(189.21,366.33)" d="M0,2.55l2.55,2.55l2.55,-2.55l-2.55,-2.55l2.55,-2.55l-2.55,-2.55l-2.55,2.55l-2.55,-2.55l-2.55,2.55l2.55,2.55l-2.55,2.55l2.55,2.55Z" style="opacity: 1; stroke-width: 1.5px; fill: rgb(0, 119, 187); fill-opacity: 0.5; stroke: rgb(0, 119, 187); stroke-opacity: 1;"/><path class="point" transform="translate(243.65,385.35)" d="M0,2.55l2.55,2.55l2.55,-2.55l-2.55,-2.55l2.55,-2.55l-2.55,-2.55l-2.55,2.55l-2.55,-2.55l-2.55,2.55l2.55,2.55l-2.55,2.55l2.55,2.55Z" style="opacity: 1; stroke-width: 1.5px; fill: rgb(0, 119, 187); fill-opacity: 0.5; stroke: rgb(0, 119, 187); stroke-opacity: 1;"/><path class="point" transform="translate(270.87,359.41)" d="M0,2.55l2.55,2.55l2.55,-2.55l-2.55,-2.55l2.55,-2.55l-2.55,-2.55l-2.55,2.55l-2.55,-2.55l-2.55,2.55l2.55,2.55l-2.55,2.55l2.55,2.55Z" style="opacity: 1; stroke-width: 1.5px; fill: rgb(0, 119, 187); fill-opacity: 0.5; stroke: rgb(0, 119, 187); stroke-opacity: 1;"/><path class="point" transform="translate(298.08,340.38)" d="M0,2.55l2.55,2.55l2.55,-2.55l-2.55,-2.55l2.55,-2.55l-2.55,-2.55l-2.55,2.55l-2.55,-2.55l-2.55,2.55l2.55,2.55l-2.55,2.55l2.55,2.55Z" style="opacity: 1; stroke-width: 1.5px; fill: rgb(0, 119, 187); fill-opacity: 0.5; stroke: rgb(0, 119, 187); stroke-opacity: 1;"/><path class="point" transform="translate(325.3,331.73)" d="M0,2.55l2.55,2.55l2.55,-2.55l-2.55,-2.55l2.55,-2.55l-2.55,-2.55l-2.55,2.55l-2.55,-2.55l-2.55,2.55l2.55,2.55l-2.55,2.55l2.55,2.55Z" style="opacity: 1; stroke-width: 1.5px; fill: rgb(0, 119, 187); fill-opacity: 0.5; stroke: rgb(0, 119, 187); stroke-opacity: 1;"/><path class="point" transform="translate(352.52,191.62)" d="M0,2.55l2.55,2.55l2.55,-2.55l-2.55,-2.55l2.55,-2.55l-2.55,-2.55l-2.55,2.55l-2.55,-2.55l-2.55,2.55l2.55,2.55l-2.55,2.55l2.55,2.55Z" style="opacity: 1; stroke-width: 1.5px; fill: rgb(0, 119, 187); fill-opacity: 0.5; stroke: rgb(0, 119, 187); stroke-opacity: 1;"/><path class="point" transform="translate(379.74,314.43)" d="M0,2.55l2.55,2.55l2.55,-2.55l-2.55,-2.55l2.55,-2.55l-2.55,-2.55l-2.55,2.55l-2.55,-2.55l-2.55,2.55l2.55,2.55l-2.55,2.55l2.55,2.55Z" style="opacity: 1; stroke-width: 1.5px; fill: rgb(0, 119, 187); fill-opacity: 0.5; stroke: rgb(0, 119, 187); stroke-opacity: 1;"/><path class="point" transform="translate(406.96,387.08)" d="M0,2.55l2.55,2.55l2.55,-2.55l-2.55,-2.55l2.55,-2.55l-2.55,-2.55l-2.55,2.55l-2.55,-2.55l-2.55,2.55l2.55,2.55l-2.55,2.55l2.55,2.55Z" style="opacity: 1; stroke-width: 1.5px; fill: rgb(0, 119, 187); fill-opacity: 0.5; stroke: rgb(0, 119, 187); stroke-opacity: 1;"/><path class="point" transform="translate(434.17,29.03)" d="M0,2.55l2.55,2.55l2.55,-2.55l-2.55,-2.55l2.55,-2.55l-2.55,-2.55l-2.55,2.55l-2.55,-2.55l-2.55,2.55l2.55,2.55l-2.55,2.55l2.55,2.55Z" style="opacity: 1; stroke-width: 1.5px; fill: rgb(0, 119, 187); fill-opacity: 0.5; stroke: rgb(0, 119, 187); stroke-opacity: 1;"/><path class="point" transform="translate(461.39,373.24)" d="M0,2.55l2.55,2.55l2.55,-2.55l-2.55,-2.55l2.55,-2.55l-2.55,-2.55l-2.55,2.55l-2.55,-2.55l-2.55,2.55l2.55,2.55l-2.55,2.55l2.55,2.55Z" style="opacity: 1; stroke-width: 1.5px; fill: rgb(0, 119, 187); fill-opacity: 0.5; stroke: rgb(0, 119, 187); stroke-opacity: 1;"/><path class="point" transform="translate(488.61,286.76)" d="M0,2.55l2.55,2.55l2.55,-2.55l-2.55,-2.55l2.55,-2.55l-2.55,-2.55l-2.55,2.55l-2.55,-2.55l-2.55,2.55l2.55,2.55l-2.55,2.55l2.55,2.55Z" style="opacity: 1; stroke-width: 1.5px; fill: rgb(0, 119, 187); fill-opacity: 0.5; stroke: rgb(0, 119, 187); stroke-opacity: 1;"/><path class="point" transform="translate(515.83,324.81)" d="M0,2.55l2.55,2.55l2.55,-2.55l-2.55,-2.55l2.55,-2.55l-2.55,-2.55l-2.55,2.55l-2.55,-2.55l-2.55,2.55l2.55,2.55l-2.55,2.55l2.55,2.55Z" style="opacity: 1; stroke-width: 1.5px; fill: rgb(0, 119, 187); fill-opacity: 0.5; stroke: rgb(0, 119, 187); stroke-opacity: 1;"/><path class="point" transform="translate(543.04,233.14)" d="M0,2.55l2.55,2.55l2.55,-2.55l-2.55,-2.55l2.55,-2.55l-2.55,-2.55l-2.55,2.55l-2.55,-2.55l-2.55,2.55l2.55,2.55l-2.55,2.55l2.55,2.55Z" style="opacity: 1; stroke-width: 1.5px; fill: rgb(0, 119, 187); fill-opacity: 0.5; stroke: rgb(0, 119, 187); stroke-opacity: 1;"/><path class="point" transform="translate(597.48,347.3)" d="M0,2.55l2.55,2.55l2.55,-2.55l-2.55,-2.55l2.55,-2.55l-2.55,-2.55l-2.55,2.55l-2.55,-2.55l-2.55,2.55l2.55,2.55l-2.55,2.55l2.55,2.55Z" style="opacity: 1; stroke-width: 1.5px; fill: rgb(0, 119, 187); fill-opacity: 0.5; stroke: rgb(0, 119, 187); stroke-opacity: 1;"/><path class="point" transform="translate(624.7,354.22)" d="M0,2.55l2.55,2.55l2.55,-2.55l-2.55,-2.55l2.55,-2.55l-2.55,-2.55l-2.55,2.55l-2.55,-2.55l-2.55,2.55l2.55,2.55l-2.55,2.55l2.55,2.55Z" style="opacity: 1; stroke-width: 1.5px; fill: rgb(0, 119, 187); fill-opacity: 0.5; stroke: rgb(0, 119, 187); stroke-opacity: 1;"/><path class="point" transform="translate(760.79,271.19)" d="M0,2.55l2.55,2.55l2.55,-2.55l-2.55,-2.55l2.55,-2.55l-2.55,-2.55l-2.55,2.55l-2.55,-2.55l-2.55,2.55l2.55,2.55l-2.55,2.55l2.55,2.55Z" style="opacity: 1; stroke-width: 1.5px; fill: rgb(0, 119, 187); fill-opacity: 0.5; stroke: rgb(0, 119, 187); stroke-opacity: 1;"/><path class="point" transform="translate(842.44,421.68)" d="M0,2.55l2.55,2.55l2.55,-2.55l-2.55,-2.55l2.55,-2.55l-2.55,-2.55l-2.55,2.55l-2.55,-2.55l-2.55,2.55l2.55,2.55l-2.55,2.55l2.55,2.55Z" style="opacity: 1; stroke-width: 1.5px; fill: rgb(0, 119, 187); fill-opacity: 0.5; stroke: rgb(0, 119, 187); stroke-opacity: 1;"/></g><g class="text"/></g><g class="trace scatter trace05bb9b" style="stroke-miterlimit: 2; opacity: 1;"><g class="fills"/><g class="errorbars"/><g class="lines"/><g class="points"><path class="point" transform="translate(53.13,312.7)" d="M4.5,0A4.5,4.5 0 1,1 0,-4.5A4.5,4.5 0 0,1 4.5,0Z" style="opacity: 1; stroke-width: 1.5px; fill: rgb(0, 119, 187); fill-opacity: 0.5; stroke: rgb(0, 119, 187); stroke-opacity: 1;"/><path class="point" transform="translate(80.34,286.76)" d="M4.5,0A4.5,4.5 0 1,1 0,-4.5A4.5,4.5 0 0,1 4.5,0Z" style="opacity: 1; stroke-width: 1.5px; fill: rgb(0, 119, 187); fill-opacity: 0.5; stroke: rgb(0, 119, 187); stroke-opacity: 1;"/><path class="point" transform="translate(107.56,330)" d="M4.5,0A4.5,4.5 0 1,1 0,-4.5A4.5,4.5 0 0,1 4.5,0Z" style="opacity: 1; stroke-width: 1.5px; fill: rgb(0, 119, 187); fill-opacity: 0.5; stroke: rgb(0, 119, 187); stroke-opacity: 1;"/><path class="point" transform="translate(134.78,272.92)" d="M4.5,0A4.5,4.5 0 1,1 0,-4.5A4.5,4.5 0 0,1 4.5,0Z" style="opacity: 1; stroke-width: 1.5px; fill: rgb(0, 119, 187); fill-opacity: 0.5; stroke: rgb(0, 119, 187); stroke-opacity: 1;"/><path class="point" transform="translate(162,293.68)" d="M4.5,0A4.5,4.5 0 1,1 0,-4.5A4.5,4.5 0 0,1 4.5,0Z" style="opacity: 1; stroke-width: 1.5px; fill: rgb(0, 119, 187); fill-opacity: 0.5; stroke: rgb(0, 119, 187); stroke-opacity: 1;"/><path class="point" transform="translate(189.21,355.95)" d="M4.5,0A4.5,4.5 0 1,1 0,-4.5A4.5,4.5 0 0,1 4.5,0Z" style="opacity: 1; stroke-width: 1.5px; fill: rgb(0, 119, 187); fill-opacity: 0.5; stroke: rgb(0, 119, 187); stroke-opacity: 1;"/><path class="point" transform="translate(243.65,368.06)" d="M4.5,0A4.5,4.5 0 1,1 0,-4.5A4.5,4.5 0 0,1 4.5,0Z" style="opacity: 1; stroke-width: 1.5px; fill: rgb(0, 119, 187); fill-opacity: 0.5; stroke: rgb(0, 119, 187); stroke-opacity: 1;"/><path class="point" transform="translate(270.87,350.76)" d="M4.5,0A4.5,4.5 0 1,1 0,-4.5A4.5,4.5 0 0,1 4.5,0Z" style="opacity: 1; stroke-width: 1.5px; fill: rgb(0, 119, 187); fill-opacity: 0.5; stroke: rgb(0, 119, 187); stroke-opacity: 1;"/><path class="point" transform="translate(298.08,335.19)" d="M4.5,0A4.5,4.5 0 1,1 0,-4.5A4.5,4.5 0 0,1 4.5,0Z" style="opacity: 1; stroke-width: 1.5px; fill: rgb(0, 119, 187); fill-opacity: 0.5; stroke: rgb(0, 119, 187); stroke-opacity: 1;"/><path class="point" transform="translate(325.3,323.08)" d="M4.5,0A4.5,4.5 0 1,1 0,-4.5A4.5,4.5 0 0,1 4.5,0Z" style="opacity: 1; stroke-width: 1.5px; fill: rgb(0, 119, 187); fill-opacity: 0.5; stroke: rgb(0, 119, 187); stroke-opacity: 1;"/><path class="point" transform="translate(352.52,191.62)" d="M4.5,0A4.5,4.5 0 1,1 0,-4.5A4.5,4.5 0 0,1 4.5,0Z" style="opacity: 1; stroke-width: 1.5px; fill: rgb(0, 119, 187); fill-opacity: 0.5; stroke: rgb(0, 119, 187); stroke-opacity: 1;"/><path class="point" transform="translate(379.74,317.89)" d="M4.5,0A4.5,4.5 0 1,1 0,-4.5A4.5,4.5 0 0,1 4.5,0Z" style="opacity: 1; stroke-width: 1.5px; fill: rgb(0, 119, 187); fill-opacity: 0.5; stroke: rgb(0, 119, 187); stroke-opacity: 1;"/><path class="point" transform="translate(406.96,373.24)" d="M4.5,0A4.5,4.5 0 1,1 0,-4.5A4.5,4.5 0 0,1 4.5,0Z" style="opacity: 1; stroke-width: 1.5px; fill: rgb(0, 119, 187); fill-opacity: 0.5; stroke: rgb(0, 119, 187); stroke-opacity: 1;"/><path class="point" transform="translate(434.17,153.57)" d="M4.5,0A4.5,4.5 0 1,1 0,-4.5A4.5,4.5 0 0,1 4.5,0Z" style="opacity: 1; stroke-width: 1.5px; fill: rgb(0, 119, 187); fill-opacity: 0.5; stroke: rgb(0, 119, 187); stroke-opacity: 1;"/><path class="point" transform="translate(461.39,383.62)" d="M4.5,0A4.5,4.5 0 1,1 0,-4.5A4.5,4.5 0 0,1 4.5,0Z" style="opacity: 1; stroke-width: 1.5px; fill: rgb(0, 119, 187); fill-opacity: 0.5; stroke: rgb(0, 119, 187); stroke-opacity: 1;"/><path class="point" transform="translate(488.61,312.7)" d="M4.5,0A4.5,4.5 0 1,1 0,-4.5A4.5,4.5 0 0,1 4.5,0Z" style="opacity: 1; stroke-width: 1.5px; fill: rgb(0, 119, 187); fill-opacity: 0.5; stroke: rgb(0, 119, 187); stroke-opacity: 1;"/><path class="point" transform="translate(515.83,338.65)" d="M4.5,0A4.5,4.5 0 1,1 0,-4.5A4.5,4.5 0 0,1 4.5,0Z" style="opacity: 1; stroke-width: 1.5px; fill: rgb(0, 119, 187); fill-opacity: 0.5; stroke: rgb(0, 119, 187); stroke-opacity: 1;"/><path class="point" transform="translate(543.04,288.49)" d="M4.5,0A4.5,4.5 0 1,1 0,-4.5A4.5,4.5 0 0,1 4.5,0Z" style="opacity: 1; stroke-width: 1.5px; fill: rgb(0, 119, 187); fill-opacity: 0.5; stroke: rgb(0, 119, 187); stroke-opacity: 1;"/><path class="point" transform="translate(597.48,355.95)" d="M4.5,0A4.5,4.5 0 1,1 0,-4.5A4.5,4.5 0 0,1 4.5,0Z" style="opacity: 1; stroke-width: 1.5px; fill: rgb(0, 119, 187); fill-opacity: 0.5; stroke: rgb(0, 119, 187); stroke-opacity: 1;"/><path class="point" transform="translate(624.7,368.06)" d="M4.5,0A4.5,4.5 0 1,1 0,-4.5A4.5,4.5 0 0,1 4.5,0Z" style="opacity: 1; stroke-width: 1.5px; fill: rgb(0, 119, 187); fill-opacity: 0.5; stroke: rgb(0, 119, 187); stroke-opacity: 1;"/><path class="point" transform="translate(760.79,300.6)" d="M4.5,0A4.5,4.5 0 1,1 0,-4.5A4.5,4.5 0 0,1 4.5,0Z" style="opacity: 1; stroke-width: 1.5px; fill: rgb(0, 119, 187); fill-opacity: 0.5; stroke: rgb(0, 119, 187); stroke-opacity: 1;"/><path class="point" transform="translate(842.44,438.98)" d="M4.5,0A4.5,4.5 0 1,1 0,-4.5A4.5,4.5 0 0,1 4.5,0Z" style="opacity: 1; stroke-width: 1.5px; fill: rgb(0, 119, 187); fill-opacity: 0.5; stroke: rgb(0, 119, 187); stroke-opacity: 1;"/></g><g class="text"/></g><g class="trace scatter tracea0cbd4" style="stroke-miterlimit: 2; opacity: 1;"><g class="fills"/><g class="errorbars"/><g class="lines"/><g class="points"><path class="point" transform="translate(570.26,406.11)" d="M5.85,0L0,5.85L-5.85,0L0,-5.85Z" style="opacity: 1; stroke-width: 1.5px; fill: rgb(136, 204, 238); fill-opacity: 0.5; stroke: rgb(136, 204, 238); stroke-opacity: 1;"/><path class="point" transform="translate(597.48,338.65)" d="M5.85,0L0,5.85L-5.85,0L0,-5.85Z" style="opacity: 1; stroke-width: 1.5px; fill: rgb(136, 204, 238); fill-opacity: 0.5; stroke: rgb(136, 204, 238); stroke-opacity: 1;"/><path class="point" transform="translate(624.7,381.89)" d="M5.85,0L0,5.85L-5.85,0L0,-5.85Z" style="opacity: 1; stroke-width: 1.5px; fill: rgb(136, 204, 238); fill-opacity: 0.5; stroke: rgb(136, 204, 238); stroke-opacity: 1;"/><path class="point" transform="translate(679.13,428.6)" d="M5.85,0L0,5.85L-5.85,0L0,-5.85Z" style="opacity: 1; stroke-width: 1.5px; fill: rgb(136, 204, 238); fill-opacity: 0.5; stroke: rgb(136, 204, 238); stroke-opacity: 1;"/><path class="point" transform="translate(706.35,380.16)" d="M5.85,0L0,5.85L-5.85,0L0,-5.85Z" style="opacity: 1; stroke-width: 1.5px; fill: rgb(136, 204, 238); fill-opacity: 0.5; stroke: rgb(136, 204, 238); stroke-opacity: 1;"/><path class="point" transform="translate(896.88,355.95)" d="M5.85,0L0,5.85L-5.85,0L0,-5.85Z" style="opacity: 1; stroke-width: 1.5px; fill: rgb(136, 204, 238); fill-opacity: 0.5; stroke: rgb(136, 204, 238); stroke-opacity: 1;"/></g><g class="text"/></g><g class="trace scatter trace8dee33" style="stroke-miterlimit: 2; opacity: 1;"><g class="fills"/><g class="errorbars"/><g class="lines"/><g class="points"><path class="point" transform="translate(570.26,404.38)" d="M0,2.55l2.55,2.55l2.55,-2.55l-2.55,-2.55l2.55,-2.55l-2.55,-2.55l-2.55,2.55l-2.55,-2.55l-2.55,2.55l2.55,2.55l-2.55,2.55l2.55,2.55Z" style="opacity: 1; stroke-width: 1.5px; fill: rgb(136, 204, 238); fill-opacity: 0.5; stroke: rgb(136, 204, 238); stroke-opacity: 1;"/><path class="point" transform="translate(679.13,418.22)" d="M0,2.55l2.55,2.55l2.55,-2.55l-2.55,-2.55l2.55,-2.55l-2.55,-2.55l-2.55,2.55l-2.55,-2.55l-2.55,2.55l2.55,2.55l-2.55,2.55l2.55,2.55Z" style="opacity: 1; stroke-width: 1.5px; fill: rgb(136, 204, 238); fill-opacity: 0.5; stroke: rgb(136, 204, 238); stroke-opacity: 1;"/><path class="point" transform="translate(706.35,421.68)" d="M0,2.55l2.55,2.55l2.55,-2.55l-2.55,-2.55l2.55,-2.55l-2.55,-2.55l-2.55,2.55l-2.55,-2.55l-2.55,2.55l2.55,2.55l-2.55,2.55l2.55,2.55Z" style="opacity: 1; stroke-width: 1.5px; fill: rgb(136, 204, 238); fill-opacity: 0.5; stroke: rgb(136, 204, 238); stroke-opacity: 1;"/><path class="point" transform="translate(896.88,340.38)" d="M0,2.55l2.55,2.55l2.55,-2.55l-2.55,-2.55l2.55,-2.55l-2.55,-2.55l-2.55,2.55l-2.55,-2.55l-2.55,2.55l2.55,2.55l-2.55,2.55l2.55,2.55Z" style="opacity: 1; stroke-width: 1.5px; fill: rgb(136, 204, 238); fill-opacity: 0.5; stroke: rgb(136, 204, 238); stroke-opacity: 1;"/></g><g class="text"/></g><g class="trace scatter tracee87d97" style="stroke-miterlimit: 2; opacity: 1;"><g class="fills"/><g class="errorbars"/><g class="lines"/><g class="points"><path class="point" transform="translate(570.26,425.14)" d="M4.5,0A4.5,4.5 0 1,1 0,-4.5A4.5,4.5 0 0,1 4.5,0Z" style="opacity: 1; stroke-width: 1.5px; fill: rgb(136, 204, 238); fill-opacity: 0.5; stroke: rgb(136, 204, 238); stroke-opacity: 1;"/><path class="point" transform="translate(679.13,388.81)" d="M4.5,0A4.5,4.5 0 1,1 0,-4.5A4.5,4.5 0 0,1 4.5,0Z" style="opacity: 1; stroke-width: 1.5px; fill: rgb(136, 204, 238); fill-opacity: 0.5; stroke: rgb(136, 204, 238); stroke-opacity: 1;"/><path class="point" transform="translate(706.35,392.27)" d="M4.5,0A4.5,4.5 0 1,1 0,-4.5A4.5,4.5 0 0,1 4.5,0Z" style="opacity: 1; stroke-width: 1.5px; fill: rgb(136, 204, 238); fill-opacity: 0.5; stroke: rgb(136, 204, 238); stroke-opacity: 1;"/><path class="point" transform="translate(896.88,354.22)" d="M4.5,0A4.5,4.5 0 1,1 0,-4.5A4.5,4.5 0 0,1 4.5,0Z" style="opacity: 1; stroke-width: 1.5px; fill: rgb(136, 204, 238); fill-opacity: 0.5; stroke: rgb(136, 204, 238); stroke-opacity: 1;"/></g><g class="text"/></g></g></g><g class="overplot"/><path class="xlines-above crisp" d="M46,499H1000M46,29H1000" style="fill: none; stroke-width: 2px; stroke: rgb(0, 0, 0); stroke-opacity: 1;"/><path class="ylines-above crisp" d="M47,30V498M999,30V498" style="fill: none; stroke-width: 2px; stroke: rgb(0, 0, 0); stroke-opacity: 1;"/><g class="overlines-above"/><g class="xaxislayer-above"><path class="xtick ticks crisp" d="M0,500v5" transform="translate(101.13,0)" style="stroke: rgb(51, 51, 51); stroke-opacity: 1; stroke-width: 2px;"/><path class="xtick ticks crisp" d="M0,500v5" transform="translate(128.34,0)" style="stroke: rgb(51, 51, 51); stroke-opacity: 1; stroke-width: 2px;"/><path class="xtick ticks crisp" d="M0,500v5" transform="translate(155.56,0)" style="stroke: rgb(51, 51, 51); stroke-opacity: 1; stroke-width: 2px;"/><path class="xtick ticks crisp" d="M0,500v5" transform="translate(182.78,0)" style="stroke: rgb(51, 51, 51); stroke-opacity: 1; stroke-width: 2px;"/><path class="xtick ticks crisp" d="M0,500v5" transform="translate(210,0)" style="stroke: rgb(51, 51, 51); stroke-opacity: 1; stroke-width: 2px;"/><path class="xtick ticks crisp" d="M0,500v5" transform="translate(237.21,0)" style="stroke: rgb(51, 51, 51); stroke-opacity: 1; stroke-width: 2px;"/><path class="xtick ticks crisp" d="M0,500v5" transform="translate(264.43,0)" style="stroke: rgb(51, 51, 51); stroke-opacity: 1; stroke-width: 2px;"/><path class="xtick ticks crisp" d="M0,500v5" transform="translate(291.65,0)" style="stroke: rgb(51, 51, 51); stroke-opacity: 1; stroke-width: 2px;"/><path class="xtick ticks crisp" d="M0,500v5" transform="translate(318.87,0)" style="stroke: rgb(51, 51, 51); stroke-opacity: 1; stroke-width: 2px;"/><path class="xtick ticks crisp" d="M0,500v5" transform="translate(346.08,0)" style="stroke: rgb(51, 51, 51); stroke-opacity: 1; stroke-width: 2px;"/><path class="xtick ticks crisp" d="M0,500v5" transform="translate(373.3,0)" style="stroke: rgb(51, 51, 51); stroke-opacity: 1; stroke-width: 2px;"/><path class="xtick ticks crisp" d="M0,500v5" transform="translate(400.52,0)" style="stroke: rgb(51, 51, 51); stroke-opacity: 1; stroke-width: 2px;"/><path class="xtick ticks crisp" d="M0,500v5" transform="translate(427.74,0)" style="stroke: rgb(51, 51, 51); stroke-opacity: 1; stroke-width: 2px;"/><path class="xtick ticks crisp" d="M0,500v5" transform="translate(454.96,0)" style="stroke: rgb(51, 51, 51); stroke-opacity: 1; stroke-width: 2px;"/><path class="xtick ticks crisp" d="M0,500v5" transform="translate(482.17,0)" style="stroke: rgb(51, 51, 51); stroke-opacity: 1; stroke-width: 2px;"/><path class="xtick ticks crisp" d="M0,500v5" transform="translate(509.39,0)" style="stroke: rgb(51, 51, 51); stroke-opacity: 1; stroke-width: 2px;"/><path class="xtick ticks crisp" d="M0,500v5" transform="translate(536.61,0)" style="stroke: rgb(51, 51, 51); stroke-opacity: 1; stroke-width: 2px;"/><path class="xtick ticks crisp" d="M0,500v5" transform="translate(563.83,0)" style="stroke: rgb(51, 51, 51); stroke-opacity: 1; stroke-width: 2px;"/><path class="xtick ticks crisp" d="M0,500v5" transform="translate(591.04,0)" style="stroke: rgb(51, 51, 51); stroke-opacity: 1; stroke-width: 2px;"/><path class="xtick ticks crisp" d="M0,500v5" transform="translate(618.26,0)" style="stroke: rgb(51, 51, 51); stroke-opacity: 1; stroke-width: 2px;"/><path class="xtick ticks crisp" d="M0,500v5" transform="translate(645.48,0)" style="stroke: rgb(51, 51, 51); stroke-opacity: 1; stroke-width: 2px;"/><path class="xtick ticks crisp" d="M0,500v5" transform="translate(672.7,0)" style="stroke: rgb(51, 51, 51); stroke-opacity: 1; stroke-width: 2px;"/><path class="xtick ticks crisp" d="M0,500v5" transform="translate(699.92,0)" style="stroke: rgb(51, 51, 51); stroke-opacity: 1; stroke-width: 2px;"/><path class="xtick ticks crisp" d="M0,500v5" transform="translate(727.13,0)" style="stroke: rgb(51, 51, 51); stroke-opacity: 1; stroke-width: 2px;"/><path class="xtick ticks crisp" d="M0,500v5" transform="translate(754.35,0)" style="stroke: rgb(51, 51, 51); stroke-opacity: 1; stroke-width: 2px;"/><path class="xtick ticks crisp" d="M0,500v5" transform="translate(781.57,0)" style="stroke: rgb(51, 51, 51); stroke-opacity: 1; stroke-width: 2px;"/><path class="xtick ticks crisp" d="M0,500v5" transform="translate(808.79,0)" style="stroke: rgb(51, 51, 51); stroke-opacity: 1; stroke-width: 2px;"/><path class="xtick ticks crisp" d="M0,500v5" transform="translate(836,0)" style="stroke: rgb(51, 51, 51); stroke-opacity: 1; stroke-width: 2px;"/><path class="xtick ticks crisp" d="M0,500v5" transform="translate(863.22,0)" style="stroke: rgb(51, 51, 51); stroke-opacity: 1; stroke-width: 2px;"/><path class="xtick ticks crisp" d="M0,500v5" transform="translate(890.44,0)" style="stroke: rgb(51, 51, 51); stroke-opacity: 1; stroke-width: 2px;"/><path class="xtick ticks crisp" d="M0,500v5" transform="translate(917.66,0)" style="stroke: rgb(51, 51, 51); stroke-opacity: 1; stroke-width: 2px;"/><path class="xtick ticks crisp" d="M0,500v5" transform="translate(944.88,0)" style="stroke: rgb(51, 51, 51); stroke-opacity: 1; stroke-width: 2px;"/><g class="xtick"><text text-anchor="end" x="0" y="519.4" transform="translate(101.13,0) rotate(-45,0,513.4)" style="font-family: 'Open Sans', verdana, arial, sans-serif; font-size: 12px; fill: rgb(51, 51, 51); fill-opacity: 1; white-space: pre;">Austria</text></g><g class="xtick"><text text-anchor="end" x="0" y="519.4" transform="translate(128.34,0) rotate(-45,0,513.4)" style="font-family: 'Open Sans', verdana, arial, sans-serif; font-size: 12px; fill: rgb(51, 51, 51); fill-opacity: 1; white-space: pre;">Belgium</text></g><g class="xtick"><text text-anchor="end" x="0" y="519.4" transform="translate(155.56,0) rotate(-45,0,513.4)" style="font-family: 'Open Sans', verdana, arial, sans-serif; font-size: 12px; fill: rgb(51, 51, 51); fill-opacity: 1; white-space: pre;">Denmark</text></g><g class="xtick"><text text-anchor="end" x="0" y="519.4" transform="translate(182.78,0) rotate(-45,0,513.4)" style="font-family: 'Open Sans', verdana, arial, sans-serif; font-size: 12px; fill: rgb(51, 51, 51); fill-opacity: 1; white-space: pre;">Finland</text></g><g class="xtick"><text text-anchor="end" x="0" y="519.4" transform="translate(210,0) rotate(-45,0,513.4)" style="font-family: 'Open Sans', verdana, arial, sans-serif; font-size: 12px; fill: rgb(51, 51, 51); fill-opacity: 1; white-space: pre;">France</text></g><g class="xtick"><text text-anchor="end" x="0" y="519.4" transform="translate(237.21,0) rotate(-45,0,513.4)" style="font-family: 'Open Sans', verdana, arial, sans-serif; font-size: 12px; fill: rgb(51, 51, 51); fill-opacity: 1; white-space: pre;">Germany</text></g><g class="xtick"><text text-anchor="end" x="0" y="519.4" transform="translate(264.43,0) rotate(-45,0,513.4)" style="font-family: 'Open Sans', verdana, arial, sans-serif; font-size: 12px; fill: rgb(51, 51, 51); fill-opacity: 1; white-space: pre;">Iceland</text></g><g class="xtick"><text text-anchor="end" x="0" y="519.4" transform="translate(291.65,0) rotate(-45,0,513.4)" style="font-family: 'Open Sans', verdana, arial, sans-serif; font-size: 12px; fill: rgb(51, 51, 51); fill-opacity: 1; white-space: pre;">Ireland</text></g><g class="xtick"><text text-anchor="end" x="0" y="519.4" transform="translate(318.87,0) rotate(-45,0,513.4)" style="font-family: 'Open Sans', verdana, arial, sans-serif; font-size: 12px; fill: rgb(51, 51, 51); fill-opacity: 1; white-space: pre;">Luxembourg</text></g><g class="xtick"><text text-anchor="end" x="0" y="519.4" transform="translate(346.08,0) rotate(-45,0,513.4)" style="font-family: 'Open Sans', verdana, arial, sans-serif; font-size: 12px; fill: rgb(51, 51, 51); fill-opacity: 1; white-space: pre;">Netherlands</text></g><g class="xtick"><text text-anchor="end" x="0" y="519.4" transform="translate(373.3,0) rotate(-45,0,513.4)" style="font-family: 'Open Sans', verdana, arial, sans-serif; font-size: 12px; fill: rgb(51, 51, 51); fill-opacity: 1; white-space: pre;">Norway</text></g><g class="xtick"><text text-anchor="end" x="0" y="519.4" transform="translate(400.52,0) rotate(-45,0,513.4)" style="font-family: 'Open Sans', verdana, arial, sans-serif; font-size: 12px; fill: rgb(51, 51, 51); fill-opacity: 1; white-space: pre;">Sweden</text></g><g class="xtick"><text text-anchor="end" x="0" y="519.4" transform="translate(427.74,0) rotate(-45,0,513.4)" style="font-family: 'Open Sans', verdana, arial, sans-serif; font-size: 12px; fill: rgb(51, 51, 51); fill-opacity: 1; white-space: pre;">Switzerland</text></g><g class="xtick"><text text-anchor="end" x="0" y="519.4" transform="translate(454.96,0) rotate(-45,0,513.4)" style="font-family: 'Open Sans', verdana, arial, sans-serif; font-size: 12px; fill: rgb(51, 51, 51); fill-opacity: 1; white-space: pre;">UK</text></g><g class="xtick"><text text-anchor="end" x="0" y="519.4" transform="translate(482.17,0) rotate(-45,0,513.4)" style="font-family: 'Open Sans', verdana, arial, sans-serif; font-size: 12px; fill: rgb(51, 51, 51); fill-opacity: 1; white-space: pre;">Greece</text></g><g class="xtick"><text text-anchor="end" x="0" y="519.4" transform="translate(509.39,0) rotate(-45,0,513.4)" style="font-family: 'Open Sans', verdana, arial, sans-serif; font-size: 12px; fill: rgb(51, 51, 51); fill-opacity: 1; white-space: pre;">Malta</text></g><g class="xtick"><text text-anchor="end" x="0" y="519.4" transform="translate(536.61,0) rotate(-45,0,513.4)" style="font-family: 'Open Sans', verdana, arial, sans-serif; font-size: 12px; fill: rgb(51, 51, 51); fill-opacity: 1; white-space: pre;">Italy</text></g><g class="xtick"><text text-anchor="end" x="0" y="519.4" transform="translate(563.83,0) rotate(-45,0,513.4)" style="font-family: 'Open Sans', verdana, arial, sans-serif; font-size: 12px; fill: rgb(51, 51, 51); fill-opacity: 1; white-space: pre;">Portugal</text></g><g class="xtick"><text text-anchor="end" x="0" y="519.4" transform="translate(591.04,0) rotate(-45,0,513.4)" style="font-family: 'Open Sans', verdana, arial, sans-serif; font-size: 12px; fill: rgb(51, 51, 51); fill-opacity: 1; white-space: pre;">Spain</text></g><g class="xtick"><text text-anchor="end" x="0" y="519.4" transform="translate(618.26,0) rotate(-45,0,513.4)" style="font-family: 'Open Sans', verdana, arial, sans-serif; font-size: 12px; fill: rgb(51, 51, 51); fill-opacity: 1; white-space: pre;">Croatia</text></g><g class="xtick"><text text-anchor="end" x="0" y="519.4" transform="translate(645.48,0) rotate(-45,0,513.4)" style="font-family: 'Open Sans', verdana, arial, sans-serif; font-size: 12px; fill: rgb(51, 51, 51); fill-opacity: 1; white-space: pre;">Czechia</text></g><g class="xtick"><text text-anchor="end" x="0" y="519.4" transform="translate(672.7,0) rotate(-45,0,513.4)" style="font-family: 'Open Sans', verdana, arial, sans-serif; font-size: 12px; fill: rgb(51, 51, 51); fill-opacity: 1; white-space: pre;">Estonia</text></g><g class="xtick"><text text-anchor="end" x="0" y="519.4" transform="translate(699.92,0) rotate(-45,0,513.4)" style="font-family: 'Open Sans', verdana, arial, sans-serif; font-size: 12px; fill: rgb(51, 51, 51); fill-opacity: 1; white-space: pre;">Hungary</text></g><g class="xtick"><text text-anchor="end" x="0" y="519.4" transform="translate(727.13,0) rotate(-45,0,513.4)" style="font-family: 'Open Sans', verdana, arial, sans-serif; font-size: 12px; fill: rgb(51, 51, 51); fill-opacity: 1; white-space: pre;">Latvia</text></g><g class="xtick"><text text-anchor="end" x="0" y="519.4" transform="translate(754.35,0) rotate(-45,0,513.4)" style="font-family: 'Open Sans', verdana, arial, sans-serif; font-size: 12px; fill: rgb(51, 51, 51); fill-opacity: 1; white-space: pre;">Lithuania</text></g><g class="xtick"><text text-anchor="end" x="0" y="519.4" transform="translate(781.57,0) rotate(-45,0,513.4)" style="font-family: 'Open Sans', verdana, arial, sans-serif; font-size: 12px; fill: rgb(51, 51, 51); fill-opacity: 1; white-space: pre;">Montenegro</text></g><g class="xtick"><text text-anchor="end" x="0" y="519.4" transform="translate(808.79,0) rotate(-45,0,513.4)" style="font-family: 'Open Sans', verdana, arial, sans-serif; font-size: 12px; fill: rgb(51, 51, 51); fill-opacity: 1; white-space: pre;">N. Macedonia</text></g><g class="xtick"><text text-anchor="end" x="0" y="519.4" transform="translate(836,0) rotate(-45,0,513.4)" style="font-family: 'Open Sans', verdana, arial, sans-serif; font-size: 12px; fill: rgb(51, 51, 51); fill-opacity: 1; white-space: pre;">Poland</text></g><g class="xtick"><text text-anchor="end" x="0" y="519.4" transform="translate(863.22,0) rotate(-45,0,513.4)" style="font-family: 'Open Sans', verdana, arial, sans-serif; font-size: 12px; fill: rgb(51, 51, 51); fill-opacity: 1; white-space: pre;">Romania</text></g><g class="xtick"><text text-anchor="end" x="0" y="519.4" transform="translate(890.44,0) rotate(-45,0,513.4)" style="font-family: 'Open Sans', verdana, arial, sans-serif; font-size: 12px; fill: rgb(51, 51, 51); fill-opacity: 1; white-space: pre;">Serbia</text></g><g class="xtick"><text text-anchor="end" x="0" y="519.4" transform="translate(917.66,0) rotate(-45,0,513.4)" style="font-family: 'Open Sans', verdana, arial, sans-serif; font-size: 12px; fill: rgb(51, 51, 51); fill-opacity: 1; white-space: pre;">Slovakia</text></g><g class="xtick"><text text-anchor="end" x="0" y="519.4" transform="translate(944.88,0) rotate(-45,0,513.4)" style="font-family: 'Open Sans', verdana, arial, sans-serif; font-size: 12px; fill: rgb(51, 51, 51); fill-opacity: 1; white-space: pre;">Slovenia</text></g></g><g class="yaxislayer-above"><path class="ytick ticks crisp" d="M46,0h-5" transform="translate(0,430.92)" style="stroke: rgb(51, 51, 51); stroke-opacity: 1; stroke-width: 2px;"/><path class="ytick ticks crisp" d="M46,0h-5" transform="translate(0,344.43)" style="stroke: rgb(51, 51, 51); stroke-opacity: 1; stroke-width: 2px;"/><path class="ytick ticks crisp" d="M46,0h-5" transform="translate(0,257.95)" style="stroke: rgb(51, 51, 51); stroke-opacity: 1; stroke-width: 2px;"/><path class="ytick ticks crisp" d="M46,0h-5" transform="translate(0,171.46)" style="stroke: rgb(51, 51, 51); stroke-opacity: 1; stroke-width: 2px;"/><path class="ytick ticks crisp" d="M46,0h-5" transform="translate(0,84.97)" style="stroke: rgb(51, 51, 51); stroke-opacity: 1; stroke-width: 2px;"/><g class="ytick"><text text-anchor="end" x="38.6" y="4.199999999999999" transform="translate(0,430.92)" style="font-family: 'Open Sans', verdana, arial, sans-serif; font-size: 12px; fill: rgb(51, 51, 51); fill-opacity: 1; white-space: pre;">0</text></g><g class="ytick"><text text-anchor="end" x="38.6" y="4.199999999999999" transform="translate(0,344.43)" style="font-family: 'Open Sans', verdana, arial, sans-serif; font-size: 12px; fill: rgb(51, 51, 51); fill-opacity: 1; white-space: pre;">5</text></g><g class="ytick"><text text-anchor="end" x="38.6" y="4.199999999999999" transform="translate(0,257.95)" style="font-family: 'Open Sans', verdana, arial, sans-serif; font-size: 12px; fill: rgb(51, 51, 51); fill-opacity: 1; white-space: pre;">10</text></g><g class="ytick"><text text-anchor="end" x="38.6" y="4.199999999999999" transform="translate(0,171.46)" style="font-family: 'Open Sans', verdana, arial, sans-serif; font-size: 12px; fill: rgb(51, 51, 51); fill-opacity: 1; white-space: pre;">15</text></g><g class="ytick"><text text-anchor="end" x="38.6" y="4.199999999999999" transform="translate(0,84.97)" style="font-family: 'Open Sans', verdana, arial, sans-serif; font-size: 12px; fill: rgb(51, 51, 51); fill-opacity: 1; white-space: pre;">20</text></g></g><g class="overaxes-above"/></g></g><g class="polarlayer"/><g class="ternarylayer"/><g class="geolayer"/><g class="funnelarealayer"/><g class="pielayer"/><g class="treemaplayer"/><g class="sunburstlayer"/><g class="glimages"/><defs id="topdefs-3097b1"><g class="clips"/><clipPath id="legend3097b1"><rect width="141" height="83" x="2" y="2"/></clipPath></defs><g class="layer-above"><g class="imagelayer"/><g class="shapelayer"><path data-index="0" fill-rule="evenodd" d="M48,430.92L998,430.92" clip-path="url('#clip3097b1y')" style="opacity: 0.3; stroke: rgb(0, 0, 0); stroke-opacity: 1; fill: rgb(0, 0, 0); fill-opacity: 1; stroke-width: 1px;"/><path data-index="1" fill-rule="evenodd" d="M468.56,498H604.65V30H468.56Z" clip-path="url('#clip3097b1x')" style="opacity: 0.05; stroke: rgb(0, 0, 0); stroke-opacity: 0; fill: rgb(0, 0, 0); fill-opacity: 1; stroke-width: 0px;"/></g></g><g class="infolayer"><g class="legend" pointer-events="all" transform="translate(62.25,44.04000000000001)"><rect class="bg" shape-rendering="crispEdges" width="143" height="85" x="1" y="1" style="stroke: rgb(0, 0, 0); stroke-opacity: 1; fill: rgb(255, 255, 255); fill-opacity: 1; stroke-width: 2px;"/><g class="scrollbox" transform="" clip-path="url('#legend3097b1')"><text class="legendtitletext" text-anchor="start" x="4" y="17.6" style="font-family: 'Open Sans', verdana, arial, sans-serif; font-size: 12px; fill: rgb(51, 51, 51); fill-opacity: 1; white-space: pre;"><tspan style="font-weight:bold"> Immigrant women vs. </tspan></text><g class="groups"><g class="traces" transform="translate(2,32.1)" style="opacity: 1;"><text class="legendtext" text-anchor="start" x="40" y="4.680000000000001" style="font-family: 'Open Sans', verdana, arial, sans-serif; font-size: 12px; fill: rgb(51, 51, 51); fill-opacity: 1; white-space: pre;">Native women</text><g class="layers" style="opacity: 1;"><g class="legendfill"/><g class="legendlines"/><g class="legendsymbols"><g class="legendpoints"><path class="scatterpts" transform="translate(20,0)" d="M4.5,0A4.5,4.5 0 1,1 0,-4.5A4.5,4.5 0 0,1 4.5,0Z" style="opacity: 1; stroke-width: 1.5px; fill: rgb(0, 119, 187); fill-opacity: 0.5; stroke: rgb(0, 119, 187); stroke-opacity: 1;"/></g></g></g><rect class="legendtoggle" x="0" y="-9.5" width="126.84375" height="19" style="fill: rgb(0, 0, 0); fill-opacity: 0;"/></g><g class="traces" transform="translate(2,51.1)" style="opacity: 1;"><text class="legendtext" text-anchor="start" x="40" y="4.680000000000001" style="font-family: 'Open Sans', verdana, arial, sans-serif; font-size: 12px; fill: rgb(51, 51, 51); fill-opacity: 1; white-space: pre;">Native men</text><g class="layers" style="opacity: 1;"><g class="legendfill"/><g class="legendlines"/><g class="legendsymbols"><g class="legendpoints"><path class="scatterpts" transform="translate(20,0)" d="M0,2.55l2.55,2.55l2.55,-2.55l-2.55,-2.55l2.55,-2.55l-2.55,-2.55l-2.55,2.55l-2.55,-2.55l-2.55,2.55l2.55,2.55l-2.55,2.55l2.55,2.55Z" style="opacity: 1; stroke-width: 1.5px; fill: rgb(0, 119, 187); fill-opacity: 0.5; stroke: rgb(0, 119, 187); stroke-opacity: 1;"/></g></g></g><rect class="legendtoggle" x="0" y="-9.5" width="126.84375" height="19" style="fill: rgb(0, 0, 0); fill-opacity: 0;"/></g><g class="traces" transform="translate(2,70.1)" style="opacity: 1;"><text class="legendtext" text-anchor="start" x="40" y="4.680000000000001" style="font-family: 'Open Sans', verdana, arial, sans-serif; font-size: 12px; fill: rgb(51, 51, 51); fill-opacity: 1; white-space: pre;">Immigrant men</text><g class="layers" style="opacity: 1;"><g class="legendfill"/><g class="legendlines"/><g class="legendsymbols"><g class="legendpoints"><path class="scatterpts" transform="translate(20,0)" d="M5.85,0L0,5.85L-5.85,0L0,-5.85Z" style="opacity: 1; stroke-width: 1.5px; fill: rgb(0, 119, 187); fill-opacity: 0.5; stroke: rgb(0, 119, 187); stroke-opacity: 1;"/></g></g></g><rect class="legendtoggle" x="0" y="-9.5" width="126.84375" height="19" style="fill: rgb(0, 0, 0); fill-opacity: 0;"/></g></g></g><rect class="scrollbar" rx="20" ry="3" width="0" height="0" x="0" y="0" style="fill: rgb(128, 139, 164); fill-opacity: 1;"/></g><g class="g-gtitle"/><g class="g-xtitle" transform="translate(0,-3.7228515624999545)"><text class="xtitle" x="523" y="599.7228515625" text-anchor="middle" style="font-family: 'Open Sans', verdana, arial, sans-serif; font-size: 14px; fill: rgb(51, 51, 51); opacity: 1; font-weight: normal; white-space: pre;">Country</text></g><g class="g-ytitle" transform="translate(14.9248046875,0)"><text class="ytitle" transform="rotate(-90,0.07500000000000284,264)" x="0.07500000000000284" y="264" text-anchor="middle" style="font-family: 'Open Sans', verdana, arial, sans-serif; font-size: 14px; fill: rgb(51, 51, 51); opacity: 1; font-weight: normal; white-space: pre;">Gap inunemployment rates (pp)</text></g></g></svg>